<?xml version="1.0" encoding="utf-8"?>
<!-- Generator: Adobe Illustrator 15.1.0, SVG Export Plug-In . SVG Version: 6.00 Build 0)  -->
<!DOCTYPE svg PUBLIC "-//W3C//DTD SVG 1.1//EN" "http://www.w3.org/Graphics/SVG/1.1/DTD/svg11.dtd">
<svg version="1.1" id="icon" xmlns="http://www.w3.org/2000/svg" xmlns:xlink="http://www.w3.org/1999/xlink" x="0px" y="0px"
	 width="64px" height="64px" viewBox="0 0 64 64" enable-background="new 0 0 64 64" xml:space="preserve">
<g>
	<path fill="#231F20" d="M14.545,47.986c0.363-0.428,0.85-0.965,1.459-1.608s1.307-1.364,2.092-2.162
		c0.786-0.797,1.598-1.614,2.436-2.452s1.67-1.664,2.496-2.479s1.588-1.561,2.285-2.241c0.696-0.68,1.295-1.267,1.793-1.758
		c0.498-0.492,0.834-0.826,1.011-1.002c-0.927-1.125-1.636-2.358-2.128-3.7c-0.491-1.342-0.737-2.745-0.737-4.21
		c0-1.137,0.146-2.232,0.438-3.287c0.293-1.055,0.709-2.039,1.248-2.953s1.187-1.75,1.942-2.505
		c0.757-0.755,1.591-1.403,2.505-1.942s1.898-0.955,2.953-1.248S36.488,14,37.625,14s2.232,0.147,3.288,0.44
		c1.055,0.293,2.039,0.709,2.953,1.248c0.913,0.539,1.75,1.186,2.505,1.942s1.402,1.591,1.941,2.505
		c0.539,0.914,0.955,1.898,1.248,2.953C49.854,24.143,50,25.238,50,26.375s-0.146,2.233-0.439,3.288
		c-0.293,1.055-0.709,2.039-1.248,2.953c-0.539,0.913-1.187,1.75-1.942,2.505c-0.757,0.755-1.591,1.402-2.505,1.941
		s-1.898,0.955-2.953,1.248s-2.15,0.439-3.287,0.439c-1.465,0-2.868-0.246-4.21-0.738s-2.575-1.201-3.7-2.127L15.916,49.666
		C15.693,49.889,15.43,50,15.125,50c-0.352,0-0.627-0.123-0.826-0.369S14,49.098,14,48.77C14,48.676,14.182,48.413,14.545,47.986z
		 M41.562,35.7c1.231-0.533,2.304-1.257,3.217-2.171c0.914-0.914,1.639-1.986,2.172-3.217s0.8-2.543,0.8-3.938
		s-0.267-2.707-0.8-3.938s-1.258-2.303-2.172-3.217c-0.913-0.914-1.985-1.638-3.217-2.171c-1.23-0.533-2.543-0.8-3.938-0.8
		s-2.707,0.267-3.938,0.8c-1.231,0.533-2.304,1.257-3.217,2.171c-0.914,0.914-1.639,1.986-2.172,3.217s-0.8,2.543-0.8,3.938
		s0.267,2.707,0.8,3.938s1.258,2.303,2.172,3.217c0.913,0.914,1.985,1.638,3.217,2.171c1.23,0.532,2.543,0.8,3.938,0.8
		S40.332,36.232,41.562,35.7z"/>
</g>
</svg>
