<?xml version="1.0" encoding="utf-8"?>
<!-- Generator: Adobe Illustrator 15.1.0, SVG Export Plug-In . SVG Version: 6.00 Build 0)  -->
<!DOCTYPE svg PUBLIC "-//W3C//DTD SVG 1.0//EN" "http://www.w3.org/TR/2001/REC-SVG-20010904/DTD/svg10.dtd">
<svg version="1.0" id="icon" xmlns="http://www.w3.org/2000/svg" xmlns:xlink="http://www.w3.org/1999/xlink" x="0px" y="0px"
	 width="64px" height="64px" viewBox="0 0 64 64" enable-background="new 0 0 64 64" xml:space="preserve">
<g>
	<path fill="#231F20" d="M33.125,43.25v2.25h4.5v2.25h-11.25V45.5h4.5v-2.25h-15.75V23h18l-2.268,2.25H17.375V41h29.25V27.5
		l2.25-2.25v18H33.125z M24.125,36.5c0.316,0,0.609-0.059,0.879-0.176s0.507-0.278,0.712-0.483s0.366-0.442,0.483-0.712
		s0.176-0.562,0.176-0.879c0-0.574,0.103-1.119,0.308-1.635s0.486-0.973,0.844-1.371s0.779-0.729,1.266-0.993
		s1.017-0.425,1.591-0.483L42.881,17.27c0.328-0.328,0.709-0.58,1.143-0.756s0.879-0.264,1.336-0.264
		c0.48,0,0.935,0.091,1.362,0.272s0.8,0.431,1.116,0.747s0.565,0.688,0.747,1.116s0.272,0.888,0.272,1.38
		c0,0.457-0.088,0.902-0.264,1.336s-0.428,0.814-0.756,1.143L35.34,34.742c-0.059,0.562-0.217,1.09-0.475,1.582
		s-0.589,0.917-0.993,1.274s-0.861,0.639-1.371,0.844s-1.052,0.308-1.626,0.308h-11.25V36.5H24.125z M33.125,34.25
		c0-0.316-0.059-0.609-0.176-0.879s-0.278-0.507-0.483-0.712s-0.442-0.366-0.712-0.483S31.191,32,30.875,32
		s-0.609,0.059-0.879,0.176s-0.507,0.278-0.712,0.483s-0.366,0.442-0.483,0.712s-0.176,0.562-0.176,0.879
		c0,0.797-0.199,1.547-0.598,2.25h2.848c0.305,0,0.595-0.059,0.87-0.176s0.516-0.278,0.721-0.483s0.366-0.445,0.483-0.721
		S33.125,34.555,33.125,34.25z M33.441,29.908c0.715,0.469,1.307,1.061,1.775,1.775l1.617-1.6c-0.492-0.703-1.09-1.301-1.793-1.793
		L33.441,29.908z M45.359,18.5c-0.34,0-0.633,0.123-0.879,0.369l-7.822,7.822c0.668,0.516,1.26,1.107,1.775,1.775l7.822-7.822
		c0.246-0.246,0.369-0.539,0.369-0.879c0-0.352-0.126-0.65-0.378-0.896S45.699,18.5,45.359,18.5z"/>
</g>
</svg>
