<?xml version="1.0" encoding="utf-8"?>
<!-- Generator: Adobe Illustrator 15.1.0, SVG Export Plug-In . SVG Version: 6.00 Build 0)  -->
<!DOCTYPE svg PUBLIC "-//W3C//DTD SVG 1.1//EN" "http://www.w3.org/Graphics/SVG/1.1/DTD/svg11.dtd">
<svg version="1.1" id="icon" xmlns="http://www.w3.org/2000/svg" xmlns:xlink="http://www.w3.org/1999/xlink" x="0px" y="0px"
	 width="64px" height="64px" viewBox="0 0 64 64" enable-background="new 0 0 64 64" xml:space="preserve">
<g>
	<g>
		<path fill="#231F20" d="M45.843,20.493l-5.84,4.216l1.521,2.148l3.709-2.678c1.392,2.354,2.139,5.053,2.139,7.82
			c0,8.476-6.896,15.369-15.369,15.369c-8.474,0-15.37-6.894-15.37-15.368c0-8.475,6.894-15.369,15.369-15.369
			c2.997,0,5.938,0.882,8.043,2.37l2.377-1.682C39.279,15.046,35.51,14,32,14c-9.925,0-18,8.074-18,18s8.075,18,18,18
			s18-8.074,18-18C50,27.793,48.525,23.719,45.843,20.493z M25.385,32c0,3.646,2.968,6.615,6.615,6.615
			c3.646,0,6.615-2.969,6.615-6.615c0-3.647-2.969-6.615-6.615-6.615C28.353,25.385,25.385,28.353,25.385,32z M34.285,32
			c0,1.26-1.025,2.285-2.285,2.285S29.715,33.26,29.715,32S30.74,29.715,32,29.715S34.285,30.74,34.285,32z"/>
	</g>
</g>
</svg>
