<?xml version="1.0" encoding="utf-8"?>
<!-- Generator: Adobe Illustrator 15.1.0, SVG Export Plug-In . SVG Version: 6.00 Build 0)  -->
<!DOCTYPE svg PUBLIC "-//W3C//DTD SVG 1.0//EN" "http://www.w3.org/TR/2001/REC-SVG-20010904/DTD/svg10.dtd">
<svg version="1.0" id="icon" xmlns="http://www.w3.org/2000/svg" xmlns:xlink="http://www.w3.org/1999/xlink" x="0px" y="0px"
	 width="64px" height="64px" viewBox="0 0 64 64" enable-background="new 0 0 64 64" xml:space="preserve">
<g>
	<path fill="#231F20" d="M47.75,16.25v31.5H41c0-1.277-0.229-2.463-0.686-3.559s-1.09-2.049-1.898-2.857s-1.761-1.441-2.856-1.898
		S33.277,38.75,32,38.75c-1.254,0-2.429,0.234-3.524,0.703s-2.048,1.107-2.856,1.916s-1.447,1.762-1.916,2.857S23,46.496,23,47.75
		h-6.75v-31.5H47.75z M45.5,18.5h-27v27h2.461c0.176-0.879,0.454-1.725,0.835-2.539s0.847-1.568,1.397-2.26s1.178-1.312,1.881-1.863
		s1.471-1.008,2.303-1.371c-0.68-0.398-1.289-0.875-1.828-1.433c-0.539-0.557-0.999-1.172-1.38-1.846s-0.671-1.386-0.87-2.136
		S23,30.535,23,29.75c0-1.242,0.234-2.411,0.703-3.507s1.11-2.051,1.925-2.865s1.77-1.456,2.865-1.925S30.758,20.75,32,20.75
		s2.411,0.234,3.507,0.703s2.051,1.11,2.865,1.925s1.456,1.77,1.925,2.865S41,28.508,41,29.75c0,0.785-0.1,1.55-0.299,2.294
		s-0.486,1.45-0.861,2.118s-0.832,1.283-1.371,1.846s-1.143,1.043-1.811,1.441c0.832,0.375,1.6,0.836,2.303,1.381
		s1.327,1.162,1.872,1.854c0.546,0.691,1.005,1.445,1.38,2.26s0.65,1.666,0.826,2.557H45.5V18.5z M32,36.5
		c0.926,0,1.799-0.179,2.619-0.536s1.535-0.841,2.145-1.45s1.093-1.324,1.45-2.145s0.536-1.693,0.536-2.619
		s-0.179-1.799-0.536-2.619s-0.841-1.535-1.45-2.145s-1.324-1.093-2.145-1.45S32.926,23,32,23s-1.799,0.179-2.619,0.536
		s-1.535,0.841-2.145,1.45s-1.093,1.324-1.45,2.145s-0.536,1.693-0.536,2.619s0.179,1.799,0.536,2.619s0.841,1.535,1.45,2.145
		s1.324,1.093,2.145,1.45S31.074,36.5,32,36.5z"/>
</g>
</svg>
