<?xml version="1.0" encoding="utf-8"?>
<!-- Generator: Adobe Illustrator 15.1.0, SVG Export Plug-In . SVG Version: 6.00 Build 0)  -->
<!DOCTYPE svg PUBLIC "-//W3C//DTD SVG 1.0//EN" "http://www.w3.org/TR/2001/REC-SVG-20010904/DTD/svg10.dtd">
<svg version="1.0" id="icon" xmlns="http://www.w3.org/2000/svg" xmlns:xlink="http://www.w3.org/1999/xlink" x="0px" y="0px"
	 width="64px" height="64px" viewBox="0 0 64 64" enable-background="new 0 0 64 64" xml:space="preserve">
<g>
	<path fill="#231F20" d="M18.658,34.197c-0.703-0.527-1.336-1.125-1.898-1.793s-1.037-1.383-1.424-2.145s-0.683-1.567-0.888-2.417
		s-0.308-1.714-0.308-2.593c0-1.031,0.135-2.027,0.404-2.988s0.647-1.857,1.134-2.689s1.072-1.591,1.758-2.276
		s1.444-1.271,2.276-1.758s1.729-0.864,2.689-1.134S24.359,14,25.391,14s2.027,0.135,2.988,0.404s1.857,0.647,2.689,1.134
		s1.591,1.072,2.276,1.758s1.271,1.444,1.758,2.276s0.864,1.729,1.134,2.689s0.404,1.957,0.404,2.988
		c0,0.375-0.021,0.75-0.062,1.125s-0.097,0.75-0.167,1.125h-2.338c0.094-0.375,0.17-0.75,0.229-1.125s0.088-0.75,0.088-1.125
		c0-1.242-0.237-2.408-0.712-3.498s-1.119-2.042-1.934-2.856s-1.767-1.459-2.856-1.934s-2.256-0.712-3.498-0.712
		s-2.408,0.237-3.498,0.712s-2.042,1.119-2.856,1.934s-1.459,1.767-1.934,2.856s-0.712,2.256-0.712,3.498
		c0,1.289,0.267,2.511,0.8,3.665s1.274,2.159,2.224,3.015L18.658,34.197z M24.705,34.25L29.943,50h-2.355l-1.512-4.5h-5.871
		L18.693,50h-2.355l5.238-15.75H24.705z M25.338,43.25l-2.197-6.574l-2.197,6.574H25.338z M25.391,18.5v6.75h4.5v2.25h-6.75v-9
		H25.391z M49.824,39.348c0.023,0.094,0.035,0.17,0.035,0.229v1.688c0,0.047-0.012,0.117-0.035,0.211
		c-0.094,0.023-0.17,0.035-0.229,0.035c-0.469-0.012-0.932-0.023-1.389-0.035s-0.92-0.018-1.389-0.018h-5.643
		c-0.012,0.703-0.009,1.409,0.009,2.118s0.038,1.415,0.062,2.118c0.012,0.293-0.035,0.586-0.141,0.879s-0.281,0.527-0.527,0.703
		c-0.164,0.117-0.396,0.208-0.694,0.272s-0.618,0.111-0.958,0.141s-0.671,0.047-0.993,0.053s-0.577,0.009-0.765,0.009
		c-0.07,0-0.182-0.003-0.334-0.009s-0.258-0.038-0.316-0.097c-0.035-0.035-0.076-0.129-0.123-0.281s-0.082-0.258-0.105-0.316
		c-0.082-0.305-0.179-0.589-0.29-0.853s-0.249-0.53-0.413-0.8c0.398,0.047,0.797,0.079,1.195,0.097s0.797,0.026,1.195,0.026
		c0.281,0,0.495-0.044,0.642-0.132s0.22-0.284,0.22-0.589v-3.34H33.23c-0.469,0-0.938,0.006-1.406,0.018s-0.938,0.023-1.406,0.035
		c-0.094,0-0.164-0.018-0.211-0.053c-0.023-0.07-0.035-0.135-0.035-0.193v-1.688c0-0.035,0.003-0.079,0.009-0.132
		s0.021-0.091,0.044-0.114c0.07-0.023,0.135-0.035,0.193-0.035c0.469,0.012,0.938,0.023,1.406,0.035s0.938,0.018,1.406,0.018h5.607
		c-0.023-0.305-0.038-0.612-0.044-0.923s-0.038-0.618-0.097-0.923c0.258,0.023,0.51,0.047,0.756,0.07s0.498,0.047,0.756,0.07
		c0.41-0.293,0.803-0.604,1.178-0.932s0.75-0.662,1.125-1.002h-5.414c-0.492,0-0.981,0.006-1.468,0.018s-0.976,0.023-1.468,0.035
		c-0.094,0-0.164-0.018-0.211-0.053c-0.023-0.07-0.035-0.135-0.035-0.193v-1.67c0-0.047,0.012-0.117,0.035-0.211
		c0.094-0.023,0.164-0.035,0.211-0.035c0.492,0.012,0.981,0.023,1.468,0.035s0.976,0.018,1.468,0.018h6.557
		c0.188,0,0.363-0.026,0.527-0.079s0.311-0.079,0.439-0.079c0.094,0,0.229,0.07,0.404,0.211s0.352,0.305,0.527,0.492
		s0.331,0.378,0.466,0.571s0.202,0.337,0.202,0.431c0,0.117-0.038,0.208-0.114,0.272s-0.161,0.12-0.255,0.167
		c-0.164,0.082-0.322,0.188-0.475,0.316s-0.299,0.252-0.439,0.369c-0.609,0.504-1.222,0.993-1.837,1.468s-1.257,0.929-1.925,1.362
		v0.193h5.643c0.469,0,0.932-0.006,1.389-0.018s0.92-0.023,1.389-0.035C49.678,39.295,49.754,39.312,49.824,39.348z M38.592,29.82
		c0-0.375-0.003-0.762-0.009-1.16s-0.056-0.785-0.149-1.16c0.809,0,1.611,0.035,2.408,0.105c0.07,0.012,0.144,0.029,0.22,0.053
		s0.114,0.082,0.114,0.176c0,0.059-0.018,0.129-0.053,0.211s-0.064,0.152-0.088,0.211c-0.023,0.07-0.044,0.164-0.062,0.281
		s-0.029,0.243-0.035,0.378s-0.009,0.264-0.009,0.387s0,0.22,0,0.29v0.229h5.203c0.492,0,0.981-0.006,1.468-0.018
		s0.976-0.023,1.468-0.035c0.082,0,0.158,0.018,0.229,0.053c0.035,0.059,0.053,0.117,0.053,0.176
		c-0.012,0.199-0.023,0.407-0.035,0.624s-0.018,0.425-0.018,0.624v1.02c0,0.422,0.006,0.847,0.018,1.274s0.023,0.853,0.035,1.274
		c0,0.035-0.003,0.076-0.009,0.123s-0.021,0.082-0.044,0.105c-0.094,0.023-0.17,0.035-0.229,0.035s-0.193,0.003-0.404,0.009
		s-0.434,0.009-0.668,0.009s-0.448-0.003-0.642-0.009s-0.308-0.026-0.343-0.062c-0.023-0.129-0.038-0.337-0.044-0.624
		s-0.006-0.592,0-0.914s0.012-0.633,0.018-0.932s0.009-0.53,0.009-0.694H32.896c0,0.059,0.003,0.176,0.009,0.352
		s0.009,0.378,0.009,0.606s0,0.472,0,0.729s0,0.495,0,0.712s-0.006,0.398-0.018,0.545s-0.029,0.231-0.053,0.255
		c-0.094,0.023-0.17,0.035-0.229,0.035h-1.793c-0.129,0-0.205-0.018-0.229-0.053s-0.035-0.111-0.035-0.229
		c0.012-0.809,0.021-1.611,0.026-2.408s-0.003-1.6-0.026-2.408c0-0.059,0.012-0.123,0.035-0.193c0.094-0.023,0.17-0.035,0.229-0.035
		c0.492,0.012,0.981,0.023,1.468,0.035s0.976,0.018,1.468,0.018H38.592z"/>
</g>
</svg>
