<?xml version="1.0" encoding="utf-8"?>
<!-- Generator: Adobe Illustrator 15.1.0, SVG Export Plug-In . SVG Version: 6.00 Build 0)  -->
<!DOCTYPE svg PUBLIC "-//W3C//DTD SVG 1.0//EN" "http://www.w3.org/TR/2001/REC-SVG-20010904/DTD/svg10.dtd">
<svg version="1.0" id="icon" xmlns="http://www.w3.org/2000/svg" xmlns:xlink="http://www.w3.org/1999/xlink" x="0px" y="0px"
	 width="64px" height="64px" viewBox="0 0 64 64" enable-background="new 0 0 64 64" xml:space="preserve">
<g>
	<path fill="#231F20" d="M29.75,36.5v-2.25c0.891,0,1.743-0.103,2.558-0.308s1.532-0.533,2.153-0.984s1.116-1.031,1.485-1.74
		s0.554-1.573,0.554-2.593c0-0.773-0.149-1.5-0.448-2.18s-0.703-1.274-1.213-1.784s-1.104-0.914-1.784-1.213S31.648,23,30.875,23h-9
		c-0.773,0-1.5,0.149-2.18,0.448s-1.274,0.703-1.784,1.213s-0.914,1.104-1.213,1.784s-0.448,1.406-0.448,2.18
		c0,1.02,0.185,1.884,0.554,2.593s0.864,1.289,1.485,1.74s1.339,0.779,2.153,0.984S22.109,34.25,23,34.25v2.25h-1.125
		c-1.09,0-2.112-0.208-3.067-0.624s-1.787-0.979-2.496-1.688s-1.271-1.541-1.688-2.496S14,29.715,14,28.625s0.208-2.112,0.624-3.067
		s0.979-1.787,1.688-2.496s1.541-1.271,2.496-1.688s1.978-0.624,3.067-0.624h9c1.09,0,2.112,0.208,3.067,0.624
		s1.787,0.979,2.496,1.688s1.271,1.541,1.688,2.496s0.624,1.978,0.624,3.067s-0.208,2.112-0.624,3.067s-0.979,1.787-1.688,2.496
		s-1.541,1.271-2.496,1.688S31.965,36.5,30.875,36.5H29.75z M41,27.5v2.25c0.891,0,1.742,0.103,2.557,0.308s1.533,0.533,2.154,0.984
		s1.115,1.031,1.484,1.74s0.555,1.573,0.555,2.593c0,0.773-0.15,1.5-0.449,2.18s-0.703,1.274-1.213,1.784s-1.104,0.914-1.783,1.213
		S42.898,41,42.125,41h-9c-0.773,0-1.5-0.149-2.18-0.448s-1.274-0.703-1.784-1.213s-0.914-1.104-1.213-1.784
		s-0.448-1.406-0.448-2.18c0-1.02,0.185-1.884,0.554-2.593s0.864-1.289,1.485-1.74s1.339-0.779,2.153-0.984s1.667-0.308,2.558-0.308
		V27.5h-1.125c-1.09,0-2.112,0.208-3.067,0.624s-1.787,0.979-2.496,1.688s-1.271,1.541-1.688,2.496s-0.624,1.978-0.624,3.067
		s0.208,2.112,0.624,3.067s0.979,1.787,1.688,2.496s1.541,1.271,2.496,1.688s1.978,0.624,3.067,0.624h9
		c1.09,0,2.111-0.208,3.066-0.624s1.787-0.979,2.496-1.688s1.271-1.541,1.688-2.496S50,36.465,50,35.375s-0.209-2.112-0.625-3.067
		s-0.979-1.787-1.688-2.496s-1.541-1.271-2.496-1.688S43.215,27.5,42.125,27.5H41z"/>
</g>
</svg>
