<?xml version="1.0" encoding="utf-8"?>
<!-- Generator: Adobe Illustrator 15.1.0, SVG Export Plug-In . SVG Version: 6.00 Build 0)  -->
<!DOCTYPE svg PUBLIC "-//W3C//DTD SVG 1.0//EN" "http://www.w3.org/TR/2001/REC-SVG-20010904/DTD/svg10.dtd">
<svg version="1.0" id="icon" xmlns="http://www.w3.org/2000/svg" xmlns:xlink="http://www.w3.org/1999/xlink" x="0px" y="0px"
	 width="64px" height="64px" viewBox="0 0 64 64" enable-background="new 0 0 64 64" xml:space="preserve">
<g>
	<path fill="#231F20" d="M35.964,47.75c-0.305,0-0.568-0.111-0.791-0.334s-0.334-0.486-0.334-0.791c0-0.176,0.035-0.334,0.105-0.475
		s0.17-0.275,0.299-0.404c0.668-0.645,1.274-1.386,1.819-2.224s1.017-1.726,1.415-2.663s0.706-1.896,0.923-2.874
		s0.325-1.931,0.325-2.856c0-0.961-0.185-1.898-0.554-2.812s-0.876-1.729-1.521-2.443s-1.4-1.289-2.268-1.723
		s-1.799-0.65-2.795-0.65c-1.102,0-2.001,0.073-2.698,0.22s-1.274,0.354-1.731,0.624s-0.829,0.598-1.116,0.984
		s-0.571,0.823-0.853,1.31s-0.601,1.02-0.958,1.6s-0.823,1.192-1.397,1.837c-0.445,0.516-0.943,0.993-1.494,1.433
		s-1.16,0.759-1.828,0.958c-0.047,0.023-0.094,0.035-0.141,0.035s-0.094,0-0.141,0c-0.316,0-0.589-0.114-0.817-0.343
		s-0.343-0.495-0.343-0.8c0-0.27,0.079-0.492,0.237-0.668s0.354-0.311,0.589-0.404c0.68-0.258,1.245-0.583,1.696-0.976
		s0.838-0.826,1.16-1.301s0.615-0.97,0.879-1.485s0.548-1.025,0.853-1.529s0.659-0.981,1.063-1.433s0.917-0.847,1.538-1.187
		s1.377-0.612,2.268-0.817s1.969-0.308,3.234-0.308c0.879,0,1.72,0.126,2.522,0.378s1.553,0.604,2.25,1.055s1.33,0.987,1.898,1.608
		s1.055,1.301,1.459,2.039s0.715,1.518,0.932,2.338s0.325,1.658,0.325,2.514c0,0.598-0.062,1.266-0.185,2.004
		s-0.299,1.506-0.527,2.303s-0.501,1.594-0.817,2.391s-0.671,1.553-1.063,2.268s-0.817,1.362-1.274,1.942s-0.938,1.052-1.441,1.415
		c-0.105,0.07-0.217,0.129-0.334,0.176S36.093,47.75,35.964,47.75z M43.804,29.75c-0.457,0-0.797-0.217-1.02-0.65
		c-1.113-2.016-2.514-3.536-4.201-4.562S34.886,23,32.554,23c-0.949,0-1.857,0.05-2.725,0.149s-1.685,0.29-2.452,0.571
		s-1.482,0.68-2.145,1.195s-1.269,1.184-1.819,2.004c-0.117,0.176-0.255,0.316-0.413,0.422S22.651,27.5,22.429,27.5
		c-0.305,0-0.568-0.111-0.791-0.334s-0.334-0.486-0.334-0.791c0-0.176,0.047-0.357,0.141-0.545c0.527-1.008,1.207-1.84,2.039-2.496
		s1.746-1.175,2.742-1.556s2.039-0.647,3.129-0.8s2.156-0.229,3.199-0.229c1.266,0,2.52,0.161,3.762,0.483s2.408,0.794,3.498,1.415
		s2.068,1.392,2.936,2.312s1.559,1.983,2.074,3.19c0.07,0.164,0.105,0.322,0.105,0.475c0,0.305-0.111,0.568-0.334,0.791
		S44.108,29.75,43.804,29.75z M29.214,47.75c-0.305,0-0.568-0.111-0.791-0.334s-0.334-0.486-0.334-0.791
		c0-0.387,0.17-0.703,0.51-0.949c0.41-0.293,0.85-0.674,1.318-1.143s0.935-0.99,1.397-1.564s0.911-1.181,1.345-1.819
		s0.814-1.283,1.143-1.934s0.589-1.283,0.782-1.898s0.29-1.187,0.29-1.714c0-0.645-0.047-1.195-0.141-1.652
		s-0.267-0.829-0.519-1.116s-0.601-0.498-1.046-0.633S32.155,32,31.464,32c-0.469,0-0.873,0.097-1.213,0.29
		s-0.639,0.451-0.896,0.773s-0.495,0.7-0.712,1.134s-0.442,0.894-0.677,1.38s-0.492,0.981-0.773,1.485s-0.618,0.993-1.011,1.468
		s-0.855,0.917-1.389,1.327s-1.169,0.762-1.907,1.055C22.733,40.971,22.587,41,22.446,41c-0.305,0-0.568-0.111-0.791-0.334
		s-0.334-0.486-0.334-0.791c0-0.234,0.067-0.442,0.202-0.624s0.308-0.319,0.519-0.413c0.82-0.387,1.55-0.888,2.188-1.503
		s1.146-1.345,1.521-2.188c0.293-0.68,0.592-1.345,0.896-1.995s0.668-1.228,1.09-1.731s0.929-0.908,1.521-1.213
		s1.327-0.457,2.206-0.457c1.992,0,3.434,0.489,4.324,1.468s1.336,2.44,1.336,4.386c0,0.609-0.111,1.283-0.334,2.021
		s-0.519,1.5-0.888,2.285s-0.8,1.57-1.292,2.355s-1.008,1.521-1.547,2.206s-1.09,1.298-1.652,1.837s-1.096,0.961-1.6,1.266
		c-0.094,0.059-0.188,0.103-0.281,0.132S29.331,47.75,29.214,47.75z M23.87,45.781c-0.305,0-0.568-0.108-0.791-0.325
		s-0.334-0.483-0.334-0.8c0-0.246,0.064-0.46,0.193-0.642s0.311-0.319,0.545-0.413c0.891-0.375,1.699-0.861,2.426-1.459
		s1.371-1.269,1.934-2.013s1.055-1.547,1.477-2.408s0.773-1.737,1.055-2.628c0.082-0.246,0.214-0.448,0.396-0.606
		s0.413-0.237,0.694-0.237c0.305,0,0.568,0.114,0.791,0.343s0.334,0.495,0.334,0.8c0,0.48-0.141,1.072-0.422,1.775
		s-0.656,1.438-1.125,2.206s-1.008,1.535-1.617,2.303s-1.236,1.453-1.881,2.057s-1.286,1.096-1.925,1.477
		S24.397,45.781,23.87,45.781z M41.554,20.82c-0.176,0-0.357-0.047-0.545-0.141c-1.359-0.703-2.725-1.242-4.096-1.617
		S34.089,18.5,32.554,18.5c-1.324,0-2.587,0.141-3.788,0.422s-2.405,0.686-3.612,1.213c-0.082,0.035-0.161,0.064-0.237,0.088
		s-0.161,0.035-0.255,0.035c-0.305,0-0.565-0.111-0.782-0.334s-0.325-0.486-0.325-0.791c0-0.34,0.185-0.647,0.554-0.923
		s0.844-0.521,1.424-0.738s1.219-0.401,1.916-0.554s1.38-0.278,2.048-0.378s1.277-0.173,1.828-0.22s0.961-0.07,1.23-0.07
		c0.293,0,0.747,0.032,1.362,0.097s1.298,0.164,2.048,0.299s1.523,0.299,2.32,0.492s1.521,0.419,2.171,0.677s1.184,0.542,1.6,0.853
		s0.624,0.653,0.624,1.028c0,0.305-0.111,0.568-0.334,0.791S41.858,20.82,41.554,20.82z"/>
</g>
</svg>
