<?xml version="1.0" encoding="utf-8"?>
<!-- Generator: Adobe Illustrator 15.1.0, SVG Export Plug-In . SVG Version: 6.00 Build 0)  -->
<!DOCTYPE svg PUBLIC "-//W3C//DTD SVG 1.0//EN" "http://www.w3.org/TR/2001/REC-SVG-20010904/DTD/svg10.dtd">
<svg version="1.0" id="icon" xmlns="http://www.w3.org/2000/svg" xmlns:xlink="http://www.w3.org/1999/xlink" x="0px" y="0px"
	 width="64px" height="64px" viewBox="0 0 64 64" enable-background="new 0 0 64 64" xml:space="preserve">
<g>
	<path fill="#231F20" d="M50,14v9c-1.348,0-2.449,0.199-3.305,0.598s-1.535,0.935-2.039,1.608s-0.858,1.459-1.063,2.355
		s-0.334,1.846-0.387,2.848s-0.059,2.024-0.018,3.067s0.062,2.051,0.062,3.023h-4.5v6.75L25.25,50V36.5h-4.5
		c0-0.973,0.021-1.98,0.062-3.023s0.035-2.065-0.018-3.067s-0.182-1.951-0.387-2.848s-0.56-1.682-1.063-2.355
		s-1.184-1.21-2.039-1.608S15.348,23,14,23v-9h2.25v6.75h31.5V14H50z M41,34.25c0-1.043-0.012-2.065-0.035-3.067
		s0.032-1.978,0.167-2.927s0.39-1.863,0.765-2.742s0.961-1.717,1.758-2.514H20.346c0.797,0.809,1.383,1.652,1.758,2.531
		s0.63,1.787,0.765,2.725s0.19,1.907,0.167,2.909S23,33.195,23,34.25H41z M36.5,36.5h-9v9.861l9-4.5V36.5z"/>
</g>
</svg>
