<?xml version="1.0" encoding="utf-8"?>
<!-- Generator: Adobe Illustrator 15.1.0, SVG Export Plug-In . SVG Version: 6.00 Build 0)  -->
<!DOCTYPE svg PUBLIC "-//W3C//DTD SVG 1.0//EN" "http://www.w3.org/TR/2001/REC-SVG-20010904/DTD/svg10.dtd">
<svg version="1.0" id="icon" xmlns="http://www.w3.org/2000/svg" xmlns:xlink="http://www.w3.org/1999/xlink" x="0px" y="0px"
	 width="64px" height="64px" viewBox="0 0 64 64" enable-background="new 0 0 64 64" xml:space="preserve">
<g>
	<path fill="#231F20" d="M45.5,16.25c0.316,0,0.609,0.059,0.879,0.176s0.506,0.278,0.711,0.483s0.367,0.442,0.484,0.712
		s0.176,0.562,0.176,0.879v29.25H20.275l-4.025-4.043V18.5c0-0.316,0.059-0.609,0.176-0.879s0.278-0.507,0.483-0.712
		s0.442-0.366,0.712-0.483s0.562-0.176,0.879-0.176H45.5z M45.5,18.5h-2.25V32h-22.5V18.5H18.5v24.275l2.707,2.725H23v-9h15.75v9
		h6.75V18.5z M23,29.75h18V18.5H23V29.75z M36.5,38.75H25.25v6.75h2.25V41h2.25v4.5h6.75V38.75z"/>
</g>
</svg>
