<?xml version="1.0" encoding="utf-8"?>
<!-- Generator: Adobe Illustrator 15.1.0, SVG Export Plug-In . SVG Version: 6.00 Build 0)  -->
<!DOCTYPE svg PUBLIC "-//W3C//DTD SVG 1.0//EN" "http://www.w3.org/TR/2001/REC-SVG-20010904/DTD/svg10.dtd">
<svg version="1.0" id="icon" xmlns="http://www.w3.org/2000/svg" xmlns:xlink="http://www.w3.org/1999/xlink" x="0px" y="0px"
	 width="64px" height="64px" viewBox="0 0 64 64" enable-background="new 0 0 64 64" xml:space="preserve">
<g>
	<path fill="#231F20" d="M44.375,23v4.623c-0.328-0.328-0.683-0.624-1.063-0.888s-0.776-0.495-1.187-0.694v-2.109L36.693,18.5
		H19.625v27h9v2.25h-9c-0.316,0-0.609-0.059-0.879-0.176s-0.507-0.278-0.712-0.483s-0.366-0.442-0.483-0.712
		s-0.176-0.562-0.176-0.879v-27c0-0.316,0.059-0.609,0.176-0.879s0.278-0.507,0.483-0.712s0.442-0.366,0.712-0.483
		s0.562-0.176,0.879-0.176h18L44.375,23z M46.625,34.25v13.5h-15.75v-13.5h2.25c0-0.891,0.103-1.743,0.308-2.558
		s0.533-1.532,0.984-2.153s1.031-1.116,1.74-1.485S37.73,27.5,38.75,27.5s1.884,0.185,2.593,0.554s1.289,0.864,1.74,1.485
		s0.779,1.339,0.984,2.153s0.308,1.667,0.308,2.558H46.625z M44.375,36.5h-11.25v9h11.25V36.5z M35.375,34.25h6.75v-1.125
		c0-0.469-0.088-0.908-0.264-1.318s-0.416-0.768-0.721-1.072s-0.662-0.545-1.072-0.721s-0.85-0.264-1.318-0.264
		s-0.908,0.088-1.318,0.264s-0.768,0.416-1.072,0.721s-0.545,0.662-0.721,1.072s-0.264,0.85-0.264,1.318V34.25z"/>
</g>
</svg>
