<?xml version="1.0" encoding="utf-8"?>
<!-- Generator: Adobe Illustrator 15.1.0, SVG Export Plug-In . SVG Version: 6.00 Build 0)  -->
<!DOCTYPE svg PUBLIC "-//W3C//DTD SVG 1.0//EN" "http://www.w3.org/TR/2001/REC-SVG-20010904/DTD/svg10.dtd">
<svg version="1.0" id="icon" xmlns="http://www.w3.org/2000/svg" xmlns:xlink="http://www.w3.org/1999/xlink" x="0px" y="0px"
	 width="64px" height="64px" viewBox="0 0 64 64" enable-background="new 0 0 64 64" xml:space="preserve">
<g>
	<path fill="#231F20" d="M49.666,48.084C49.889,48.307,50,48.57,50,48.875s-0.111,0.568-0.334,0.791S49.18,50,48.875,50
		s-0.568-0.111-0.791-0.334L34.285,35.885c-1.125,0.926-2.358,1.635-3.7,2.127s-2.745,0.738-4.21,0.738
		c-1.137,0-2.232-0.146-3.287-0.439s-2.039-0.709-2.953-1.248s-1.749-1.187-2.505-1.942s-1.403-1.591-1.942-2.505
		s-0.955-1.898-1.248-2.953S14,27.512,14,26.375s0.146-2.232,0.439-3.287s0.709-2.039,1.248-2.953s1.187-1.749,1.942-2.505
		s1.591-1.403,2.505-1.942s1.898-0.955,2.953-1.248S25.238,14,26.375,14s2.232,0.146,3.287,0.439s2.039,0.709,2.953,1.248
		s1.749,1.187,2.505,1.942s1.403,1.591,1.942,2.505s0.955,1.898,1.248,2.953s0.439,2.15,0.439,3.287c0,1.465-0.246,2.868-0.738,4.21
		s-1.201,2.575-2.127,3.7L49.666,48.084z M26.375,36.5c1.395,0,2.707-0.267,3.938-0.8s2.303-1.257,3.217-2.171
		s1.638-1.986,2.171-3.217s0.8-2.543,0.8-3.938s-0.267-2.707-0.8-3.938s-1.257-2.303-2.171-3.217s-1.986-1.638-3.217-2.171
		s-2.543-0.8-3.938-0.8s-2.707,0.267-3.938,0.8s-2.303,1.257-3.217,2.171s-1.638,1.986-2.171,3.217s-0.8,2.543-0.8,3.938
		s0.267,2.707,0.8,3.938s1.257,2.303,2.171,3.217s1.986,1.638,3.217,2.171S24.98,36.5,26.375,36.5z M27.5,25.25H32v2.25h-4.5V32
		h-2.25v-4.5h-4.5v-2.25h4.5v-4.5h2.25V25.25z"/>
</g>
</svg>
