<?xml version="1.0" encoding="utf-8"?>
<!-- Generator: Adobe Illustrator 15.1.0, SVG Export Plug-In . SVG Version: 6.00 Build 0)  -->
<!DOCTYPE svg PUBLIC "-//W3C//DTD SVG 1.0//EN" "http://www.w3.org/TR/2001/REC-SVG-20010904/DTD/svg10.dtd">
<svg version="1.0" id="icon" xmlns="http://www.w3.org/2000/svg" xmlns:xlink="http://www.w3.org/1999/xlink" x="0px" y="0px"
	 width="64px" height="64px" viewBox="0 0 64 64" enable-background="new 0 0 64 64" xml:space="preserve">
<g>
	<path fill="#231F20" d="M45.5,20.188V47.75c0,0.316-0.059,0.609-0.176,0.879s-0.278,0.507-0.483,0.712s-0.442,0.366-0.712,0.483
		S43.566,50,43.25,50h-22.5c-0.316,0-0.609-0.059-0.879-0.176s-0.507-0.278-0.712-0.483s-0.366-0.442-0.483-0.712
		S18.5,48.066,18.5,47.75v-9l2.25-2.25v-6.188L18.5,27.5V16.25c0-0.316,0.059-0.609,0.176-0.879s0.278-0.507,0.483-0.712
		s0.442-0.366,0.712-0.483S20.434,14,20.75,14h18.562L45.5,20.188z M43.25,21.119l-4.869-4.869H20.75v10.459L23,29.521v7.91
		c-0.363,0.387-0.735,0.765-1.116,1.134s-0.759,0.741-1.134,1.116v8.068h22.5V21.119z M25.25,18.5h2.25v6.75h-2.25V18.5z
		 M29.75,18.5H32v6.75h-2.25V18.5z M34.25,18.5h2.25v6.75h-2.25V18.5z"/>
</g>
</svg>
