<?xml version="1.0" encoding="utf-8"?>
<!-- Generator: Adobe Illustrator 15.1.0, SVG Export Plug-In . SVG Version: 6.00 Build 0)  -->
<!DOCTYPE svg PUBLIC "-//W3C//DTD SVG 1.0//EN" "http://www.w3.org/TR/2001/REC-SVG-20010904/DTD/svg10.dtd">
<svg version="1.0" id="icon" xmlns="http://www.w3.org/2000/svg" xmlns:xlink="http://www.w3.org/1999/xlink" x="0px" y="0px"
	 width="64px" height="64px" viewBox="0 0 64 64" enable-background="new 0 0 64 64" xml:space="preserve">
<g>
	<path fill="#231F20" d="M46.625,20.75h-2.25v25.875c0,0.469-0.088,0.908-0.264,1.318s-0.416,0.768-0.721,1.072
		s-0.662,0.545-1.072,0.721S41.469,50,41,50H23c-0.469,0-0.908-0.088-1.318-0.264s-0.768-0.416-1.072-0.721
		s-0.545-0.662-0.721-1.072s-0.264-0.85-0.264-1.318V20.75h-2.25V18.5h9v-2.25c0-0.316,0.059-0.609,0.176-0.879
		s0.278-0.507,0.483-0.712s0.442-0.366,0.712-0.483S28.309,14,28.625,14h6.75c0.316,0,0.609,0.059,0.879,0.176
		s0.507,0.278,0.712,0.483s0.366,0.442,0.483,0.712s0.176,0.562,0.176,0.879v2.25h9V20.75z M42.125,20.75h-20.25v25.875
		c0,0.305,0.111,0.568,0.334,0.791S22.695,47.75,23,47.75h18c0.305,0,0.568-0.111,0.791-0.334s0.334-0.486,0.334-0.791V20.75z
		 M28.625,43.25h-2.25v-18h2.25V43.25z M28.625,18.5h6.75v-2.25h-6.75V18.5z M33.125,43.25h-2.25v-18h2.25V43.25z M37.625,43.25
		h-2.25v-18h2.25V43.25z"/>
</g>
</svg>
