<?xml version="1.0" encoding="utf-8"?>
<!-- Generator: Adobe Illustrator 15.1.0, SVG Export Plug-In . SVG Version: 6.00 Build 0)  -->
<!DOCTYPE svg PUBLIC "-//W3C//DTD SVG 1.0//EN" "http://www.w3.org/TR/2001/REC-SVG-20010904/DTD/svg10.dtd">
<svg version="1.0" id="icon" xmlns="http://www.w3.org/2000/svg" xmlns:xlink="http://www.w3.org/1999/xlink" x="0px" y="0px"
	 width="64px" height="64px" viewBox="0 0 64 64" enable-background="new 0 0 64 64" xml:space="preserve">
<g>
	<path fill="#231F20" d="M50,46.845H14v-9c0-0.316,0.059-0.609,0.176-0.879s0.278-0.507,0.483-0.712s0.442-0.366,0.712-0.483
		s0.562-0.176,0.879-0.176h31.5v-2.672L20.24,19.159l1.02-2.004l27.492,13.746c0.375,0.199,0.677,0.48,0.905,0.844
		S50,32.501,50,32.923V46.845z M16.25,44.595h31.5v-6.75h-31.5V44.595z M19.625,40.095c0.305,0,0.568,0.111,0.791,0.334
		s0.334,0.486,0.334,0.791s-0.111,0.568-0.334,0.791s-0.486,0.334-0.791,0.334s-0.568-0.111-0.791-0.334S18.5,41.524,18.5,41.22
		s0.111-0.568,0.334-0.791S19.32,40.095,19.625,40.095z M38.75,33.345H18.553v-2.25H38.75V33.345z"/>
</g>
</svg>
