<?xml version="1.0" encoding="utf-8"?>
<!-- Generator: Adobe Illustrator 15.1.0, SVG Export Plug-In . SVG Version: 6.00 Build 0)  -->
<!DOCTYPE svg PUBLIC "-//W3C//DTD SVG 1.0//EN" "http://www.w3.org/TR/2001/REC-SVG-20010904/DTD/svg10.dtd">
<svg version="1.0" id="icon" xmlns="http://www.w3.org/2000/svg" xmlns:xlink="http://www.w3.org/1999/xlink" x="0px" y="0px"
	 width="64px" height="64px" viewBox="0 0 64 64" enable-background="new 0 0 64 64" xml:space="preserve">
<g>
	<path fill="#231F20" d="M50,41.009H33.969c-0.27,0.984-0.683,1.891-1.239,2.717s-1.219,1.537-1.986,2.135s-1.62,1.061-2.558,1.389
		s-1.916,0.492-2.936,0.492c-1.242,0-2.411-0.234-3.507-0.703s-2.051-1.109-2.865-1.924s-1.456-1.77-1.925-2.865
		s-0.703-2.266-0.703-3.508v-6.75H14v-13.5h6.75v13.5H18.5v6.75c0,0.926,0.179,1.799,0.536,2.619s0.841,1.535,1.45,2.145
		s1.324,1.094,2.145,1.451s1.693,0.535,2.619,0.535c0.715,0,1.403-0.107,2.065-0.324s1.271-0.521,1.828-0.914
		s1.046-0.865,1.468-1.416s0.756-1.16,1.002-1.828H23v-22.5h5.133l2.25-2.25h12.182l2.25,2.25H50V41.009z M16.25,20.741v2.25h2.25
		v-2.25H16.25z M18.5,29.741v-4.5h-2.25v4.5H18.5z M47.75,20.759h-3.867l-2.25-2.25H31.314l-2.25,2.25H25.25v18H32v-0.018h2.25
		v0.018h13.5V20.759z M28.625,23.009c0.305,0,0.565,0.108,0.782,0.325s0.325,0.478,0.325,0.782s-0.108,0.565-0.325,0.782
		s-0.478,0.325-0.782,0.325s-0.565-0.108-0.782-0.325s-0.325-0.478-0.325-0.782s0.108-0.565,0.325-0.782S28.32,23.009,28.625,23.009
		z M36.5,23.009c0.926,0,1.799,0.179,2.619,0.536s1.535,0.841,2.145,1.45s1.093,1.324,1.45,2.145s0.536,1.693,0.536,2.619
		s-0.179,1.799-0.536,2.619s-0.841,1.535-1.45,2.145s-1.324,1.093-2.145,1.45s-1.693,0.536-2.619,0.536s-1.799-0.179-2.619-0.536
		s-1.535-0.841-2.145-1.45s-1.093-1.324-1.45-2.145s-0.536-1.693-0.536-2.619s0.179-1.799,0.536-2.619s0.841-1.535,1.45-2.145
		s1.324-1.093,2.145-1.45S35.574,23.009,36.5,23.009z M36.5,34.259c0.609,0,1.189-0.12,1.74-0.36s1.028-0.562,1.433-0.967
		s0.727-0.879,0.967-1.424S41,30.38,41,29.759c0-0.609-0.12-1.189-0.36-1.74s-0.562-1.028-0.967-1.433s-0.882-0.727-1.433-0.967
		s-1.131-0.36-1.74-0.36c-0.621,0-1.204,0.12-1.749,0.36s-1.02,0.562-1.424,0.967s-0.727,0.882-0.967,1.433S32,29.149,32,29.759
		c0,0.621,0.12,1.204,0.36,1.749s0.562,1.02,0.967,1.424s0.879,0.727,1.424,0.967S35.879,34.259,36.5,34.259z"/>
</g>
</svg>
