<?xml version="1.0" encoding="utf-8"?>
<!-- Generator: Adobe Illustrator 15.1.0, SVG Export Plug-In . SVG Version: 6.00 Build 0)  -->
<!DOCTYPE svg PUBLIC "-//W3C//DTD SVG 1.0//EN" "http://www.w3.org/TR/2001/REC-SVG-20010904/DTD/svg10.dtd">
<svg version="1.0" id="icon" xmlns="http://www.w3.org/2000/svg" xmlns:xlink="http://www.w3.org/1999/xlink" x="0px" y="0px"
	 width="64px" height="64px" viewBox="0 0 64 64" enable-background="new 0 0 64 64" xml:space="preserve">
<g>
	<path fill="#231F20" d="M42.811,22.789c1.582,1.594,2.801,3.337,3.656,5.229s1.283,3.97,1.283,6.231
		c0,1.453-0.188,2.851-0.562,4.192s-0.905,2.596-1.591,3.762s-1.506,2.227-2.461,3.182s-2.016,1.775-3.182,2.461
		s-2.42,1.216-3.762,1.591S33.453,50,32,50s-2.851-0.188-4.192-0.562s-2.596-0.905-3.762-1.591s-2.227-1.506-3.182-2.461
		s-1.775-2.016-2.461-3.182s-1.216-2.42-1.591-3.762s-0.562-2.739-0.562-4.192c0-1.301,0.155-2.566,0.466-3.797
		s0.75-2.391,1.318-3.48s1.257-2.101,2.065-3.032s1.711-1.758,2.707-2.479s2.08-1.321,3.252-1.802s2.402-0.814,3.691-1.002V16.25
		h-4.5V14H36.5v2.25H32v2.25c1.629,0,3.214,0.24,4.755,0.721s2.974,1.195,4.298,2.145l3.656-3.656l1.582,1.582L42.811,22.789z
		 M32,47.75c1.863,0,3.612-0.354,5.247-1.063s3.064-1.676,4.289-2.9s2.191-2.654,2.9-4.289S45.5,36.113,45.5,34.25
		s-0.354-3.612-1.063-5.247s-1.676-3.064-2.9-4.289s-2.654-2.191-4.289-2.9S33.863,20.75,32,20.75s-3.612,0.354-5.247,1.063
		s-3.064,1.676-4.289,2.9s-2.191,2.654-2.9,4.289S18.5,32.387,18.5,34.25s0.354,3.612,1.063,5.247s1.676,3.064,2.9,4.289
		s2.654,2.191,4.289,2.9S30.137,47.75,32,47.75z M38.75,34.25v2.25h-9V25.25H32v9H38.75z"/>
</g>
</svg>
