<?xml version="1.0" encoding="utf-8"?>
<!-- Generator: Adobe Illustrator 15.1.0, SVG Export Plug-In . SVG Version: 6.00 Build 0)  -->
<!DOCTYPE svg PUBLIC "-//W3C//DTD SVG 1.0//EN" "http://www.w3.org/TR/2001/REC-SVG-20010904/DTD/svg10.dtd">
<svg version="1.0" id="icon" xmlns="http://www.w3.org/2000/svg" xmlns:xlink="http://www.w3.org/1999/xlink" x="0px" y="0px"
	 width="64px" height="64px" viewBox="0 0 64 64" enable-background="new 0 0 64 64" xml:space="preserve">
<g>
	<path fill="#231F20" d="M50,32c0,1.641-0.217,3.234-0.65,4.781s-1.051,3.003-1.854,4.368s-1.779,2.61-2.928,3.735
		s-2.443,2.08-3.885,2.865H45.5V50h-9v-9h2.25v5.221c1.371-0.645,2.611-1.465,3.719-2.461s2.053-2.112,2.838-3.349
		s1.389-2.569,1.811-3.999s0.633-2.9,0.633-4.412c0-1.441-0.188-2.833-0.562-4.175s-0.904-2.596-1.59-3.762s-1.51-2.229-2.471-3.19
		s-2.023-1.784-3.189-2.47s-2.42-1.216-3.762-1.591S33.441,16.25,32,16.25s-2.833,0.188-4.175,0.562s-2.596,0.905-3.762,1.591
		s-2.229,1.509-3.19,2.47s-1.784,2.024-2.47,3.19s-1.216,2.42-1.591,3.762S16.25,30.559,16.25,32c0,1.758,0.284,3.451,0.853,5.08
		s1.362,3.111,2.382,4.447s2.235,2.493,3.647,3.472s2.968,1.702,4.667,2.171l-0.598,2.162c-1.945-0.527-3.727-1.351-5.344-2.47
		s-3.009-2.443-4.175-3.973s-2.071-3.223-2.716-5.08S14,34.016,14,32c0-1.652,0.214-3.246,0.642-4.781s1.031-2.971,1.811-4.307
		s1.717-2.552,2.812-3.647s2.312-2.033,3.647-2.812s2.769-1.383,4.298-1.811S30.336,14,32,14c1.652,0,3.246,0.214,4.781,0.642
		s2.971,1.031,4.307,1.811s2.553,1.717,3.648,2.812s2.033,2.312,2.812,3.647s1.383,2.771,1.811,4.307S50,30.348,50,32z M32,27.5
		c0.621,0,1.205,0.117,1.75,0.352s1.021,0.557,1.432,0.967s0.732,0.888,0.967,1.433S36.5,31.379,36.5,32s-0.117,1.204-0.352,1.749
		s-0.557,1.022-0.967,1.433s-0.887,0.732-1.432,0.967S32.621,36.5,32,36.5s-1.203-0.117-1.748-0.352s-1.023-0.557-1.434-0.967
		s-0.732-0.888-0.967-1.433S27.5,32.621,27.5,32s0.117-1.204,0.352-1.749s0.557-1.022,0.967-1.433s0.889-0.732,1.434-0.967
		S31.379,27.5,32,27.5z M32,34.25c0.316,0,0.609-0.059,0.879-0.176s0.508-0.278,0.713-0.483s0.365-0.442,0.482-0.712
		S34.25,32.316,34.25,32s-0.059-0.609-0.176-0.879s-0.277-0.507-0.482-0.712s-0.443-0.366-0.713-0.483S32.316,29.75,32,29.75
		s-0.609,0.059-0.879,0.176s-0.506,0.278-0.711,0.483s-0.367,0.442-0.484,0.712S29.75,31.684,29.75,32s0.059,0.609,0.176,0.879
		s0.279,0.507,0.484,0.712s0.441,0.366,0.711,0.483S31.684,34.25,32,34.25z"/>
</g>
</svg>
