<?xml version="1.0" encoding="utf-8"?>
<!-- Generator: Adobe Illustrator 15.1.0, SVG Export Plug-In . SVG Version: 6.00 Build 0)  -->
<!DOCTYPE svg PUBLIC "-//W3C//DTD SVG 1.0//EN" "http://www.w3.org/TR/2001/REC-SVG-20010904/DTD/svg10.dtd">
<svg version="1.0" id="icon" xmlns="http://www.w3.org/2000/svg" xmlns:xlink="http://www.w3.org/1999/xlink" x="0px" y="0px"
	 width="64px" height="64px" viewBox="0 0 64 64" enable-background="new 0 0 64 64" xml:space="preserve">
<g>
	<path fill="#231F20" d="M49.49,26.639c-0.387,0.387-0.765,0.741-1.134,1.063s-0.75,0.595-1.143,0.817s-0.82,0.396-1.283,0.519
		s-0.987,0.185-1.573,0.185c-0.398,0-0.779-0.035-1.143-0.105l-2.355,2.373H37.66l4.887-4.887c0.305,0.094,0.604,0.179,0.896,0.255
		s0.598,0.114,0.914,0.114c0.645,0,1.254-0.152,1.828-0.457l-8.701-8.701c-0.305,0.574-0.457,1.184-0.457,1.828
		c0,0.316,0.038,0.621,0.114,0.914s0.161,0.592,0.255,0.896l-8.648,8.631c-0.281-0.117-0.551-0.229-0.809-0.334
		s-0.516-0.193-0.773-0.264s-0.524-0.126-0.8-0.167s-0.571-0.062-0.888-0.062c-0.668,0-1.318,0.097-1.951,0.29
		s-1.219,0.478-1.758,0.853l8.49,8.49v3.199l-3.375-3.393L16.9,48.699L14.51,49.49l0.791-2.391l10.002-9.984l-6.785-6.785
		l0.791-0.791c0.82-0.82,1.77-1.447,2.848-1.881s2.197-0.65,3.357-0.65c0.457,0,0.911,0.038,1.362,0.114s0.899,0.185,1.345,0.325
		l6.662-6.662c-0.07-0.363-0.105-0.744-0.105-1.143c0-0.574,0.062-1.093,0.185-1.556s0.296-0.894,0.519-1.292
		s0.495-0.782,0.817-1.151s0.677-0.747,1.063-1.134L49.49,26.639z M40.385,33.74c1.09,0,2.112,0.205,3.067,0.615
		s1.79,0.973,2.505,1.688s1.277,1.55,1.688,2.505s0.615,1.978,0.615,3.067s-0.205,2.112-0.615,3.067s-0.973,1.79-1.688,2.505
		s-1.55,1.277-2.505,1.688s-1.978,0.615-3.067,0.615s-2.112-0.205-3.067-0.615s-1.79-0.973-2.505-1.688s-1.277-1.55-1.688-2.505
		s-0.615-1.978-0.615-3.067s0.205-2.112,0.615-3.067s0.973-1.79,1.688-2.505s1.55-1.277,2.505-1.688S39.295,33.74,40.385,33.74z
		 M34.76,41.615c0,0.773,0.146,1.503,0.439,2.188s0.694,1.283,1.204,1.793s1.107,0.911,1.793,1.204s1.415,0.439,2.188,0.439
		c0.551,0,1.09-0.079,1.617-0.237s1.02-0.39,1.477-0.694l-7.787-7.787c-0.305,0.457-0.536,0.949-0.694,1.477
		S34.76,41.064,34.76,41.615z M45.078,44.709c0.305-0.457,0.536-0.949,0.694-1.477s0.237-1.066,0.237-1.617
		c0-0.773-0.149-1.5-0.448-2.18s-0.703-1.274-1.213-1.784s-1.104-0.914-1.784-1.213s-1.406-0.448-2.18-0.448
		c-0.551,0-1.09,0.079-1.617,0.237s-1.02,0.39-1.477,0.694L45.078,44.709z"/>
</g>
</svg>
