<?xml version="1.0" encoding="utf-8"?>
<!-- Generator: Adobe Illustrator 15.1.0, SVG Export Plug-In . SVG Version: 6.00 Build 0)  -->
<!DOCTYPE svg PUBLIC "-//W3C//DTD SVG 1.0//EN" "http://www.w3.org/TR/2001/REC-SVG-20010904/DTD/svg10.dtd">
<svg version="1.0" id="icon" xmlns="http://www.w3.org/2000/svg" xmlns:xlink="http://www.w3.org/1999/xlink" x="0px" y="0px"
	 width="64px" height="64px" viewBox="0 0 64 64" enable-background="new 0 0 64 64" xml:space="preserve">
<g>
	<path fill="#231F20" d="M25.9,18.5h1.6v27h-1.582l-6.768-6.75H14v-13.5h5.15L25.9,18.5z M25.25,22.35L20.1,27.5h-3.85v9h3.85
		l5.15,5.15V22.35z M33.863,25.637c0.855,0.855,1.509,1.828,1.96,2.918S36.5,30.793,36.5,32s-0.226,2.355-0.677,3.445
		s-1.104,2.062-1.96,2.918l-1.582-1.582c0.633-0.633,1.119-1.362,1.459-2.188s0.51-1.69,0.51-2.593s-0.17-1.767-0.51-2.593
		s-0.826-1.556-1.459-2.188L33.863,25.637z M43.25,32c0,2.109-0.398,4.119-1.195,6.029s-1.934,3.615-3.41,5.115l-1.6-1.6
		c1.277-1.277,2.256-2.736,2.936-4.377S41,33.805,41,32s-0.34-3.527-1.02-5.168s-1.658-3.1-2.936-4.377l1.6-1.6
		c1.477,1.5,2.613,3.205,3.41,5.115S43.25,29.891,43.25,32z M43.408,16.092c1.055,1.055,1.992,2.197,2.812,3.428
		s1.509,2.52,2.065,3.867s0.981,2.748,1.274,4.201S50,30.512,50,32c0,1.5-0.146,2.974-0.439,4.421s-0.718,2.845-1.274,4.192
		s-1.245,2.637-2.065,3.867s-1.758,2.373-2.812,3.428l-1.6-1.6c0.949-0.949,1.793-1.978,2.531-3.085s1.359-2.268,1.863-3.48
		s0.885-2.47,1.143-3.771s0.387-2.625,0.387-3.973s-0.129-2.672-0.387-3.973s-0.639-2.558-1.143-3.771s-1.125-2.373-1.863-3.48
		s-1.582-2.136-2.531-3.085L43.408,16.092z"/>
</g>
</svg>
