<?xml version="1.0" encoding="utf-8"?>
<!-- Generator: Adobe Illustrator 15.1.0, SVG Export Plug-In . SVG Version: 6.00 Build 0)  -->
<!DOCTYPE svg PUBLIC "-//W3C//DTD SVG 1.0//EN" "http://www.w3.org/TR/2001/REC-SVG-20010904/DTD/svg10.dtd">
<svg version="1.0" id="icon" xmlns="http://www.w3.org/2000/svg" xmlns:xlink="http://www.w3.org/1999/xlink" x="0px" y="0px"
	 width="64px" height="64px" viewBox="0 0 64 64" enable-background="new 0 0 64 64" xml:space="preserve">
<g>
	<path fill="#231F20" d="M42.125,24.125c1.09,0,2.113,0.208,3.068,0.624s1.787,0.979,2.496,1.688s1.271,1.541,1.688,2.496
		S50,30.91,50,32s-0.207,2.112-0.623,3.067s-0.979,1.787-1.688,2.496s-1.541,1.271-2.496,1.688s-1.979,0.624-3.068,0.624h-20.25
		c-1.09,0-2.111-0.208-3.066-0.624s-1.787-0.979-2.496-1.688s-1.272-1.541-1.688-2.496S14,33.09,14,32s0.208-2.112,0.624-3.067
		s0.979-1.787,1.688-2.496s1.541-1.271,2.496-1.688s1.977-0.624,3.066-0.624s2.113,0.208,3.068,0.624s1.787,0.979,2.496,1.688
		s1.271,1.541,1.688,2.496S29.75,30.91,29.75,32c0,0.246-0.025,0.542-0.078,0.888s-0.127,0.703-0.221,1.072
		s-0.211,0.744-0.352,1.125s-0.299,0.738-0.475,1.072s-0.369,0.63-0.58,0.888s-0.434,0.451-0.668,0.58h9.246
		c-0.234-0.129-0.457-0.322-0.668-0.58s-0.404-0.554-0.58-0.888s-0.334-0.691-0.475-1.072s-0.258-0.756-0.352-1.125
		s-0.166-0.724-0.219-1.063S34.25,32.258,34.25,32c0-1.09,0.209-2.112,0.625-3.067s0.979-1.787,1.688-2.496s1.541-1.271,2.496-1.688
		S41.035,24.125,42.125,24.125z M16.25,32c0,0.773,0.15,1.5,0.449,2.18s0.703,1.274,1.213,1.784s1.104,0.914,1.783,1.213
		s1.406,0.448,2.18,0.448s1.5-0.149,2.18-0.448s1.275-0.703,1.785-1.213s0.914-1.104,1.213-1.784S27.5,32.773,27.5,32
		s-0.148-1.5-0.447-2.18s-0.703-1.274-1.213-1.784s-1.105-0.914-1.785-1.213s-1.406-0.448-2.18-0.448s-1.5,0.149-2.18,0.448
		s-1.273,0.703-1.783,1.213s-0.914,1.104-1.213,1.784S16.25,31.227,16.25,32z M42.125,37.625c0.773,0,1.5-0.149,2.18-0.448
		s1.275-0.703,1.785-1.213s0.914-1.104,1.213-1.784S47.75,32.773,47.75,32s-0.148-1.5-0.447-2.18s-0.703-1.274-1.213-1.784
		s-1.105-0.914-1.785-1.213s-1.406-0.448-2.18-0.448s-1.5,0.149-2.18,0.448s-1.273,0.703-1.783,1.213s-0.914,1.104-1.213,1.784
		S36.5,31.227,36.5,32s0.15,1.5,0.449,2.18s0.703,1.274,1.213,1.784s1.104,0.914,1.783,1.213S41.352,37.625,42.125,37.625z"/>
</g>
</svg>
