<?xml version="1.0" encoding="utf-8"?>
<!-- Generator: Adobe Illustrator 15.1.0, SVG Export Plug-In . SVG Version: 6.00 Build 0)  -->
<!DOCTYPE svg PUBLIC "-//W3C//DTD SVG 1.0//EN" "http://www.w3.org/TR/2001/REC-SVG-20010904/DTD/svg10.dtd">
<svg version="1.0" id="icon" xmlns="http://www.w3.org/2000/svg" xmlns:xlink="http://www.w3.org/1999/xlink" x="0px" y="0px"
	 width="64px" height="64px" viewBox="0 0 64 64" enable-background="new 0 0 64 64" xml:space="preserve">
<g>
	<path fill="#231F20" d="M14,36.5v-9h2.25v9H14z M18.5,36.5v-9h2.25v9H18.5z M25.25,18.5v2.25H23V18.5H25.25z M25.25,23v2.25H23V23
		H25.25z M23,36.5v-9h18v9H23z M23,41v-2.25h2.25V41H23z M23,45.5v-2.25h2.25v2.25H23z M25.25,29.75v4.5h13.5v-4.5H25.25z
		 M38.75,20.75V18.5H41v2.25H38.75z M38.75,25.25V23H41v2.25H38.75z M38.75,41v-2.25H41V41H38.75z M38.75,45.5v-2.25H41v2.25H38.75z
		 M43.25,36.5v-9h2.25v9H43.25z M47.75,27.5H50v9h-2.25V27.5z"/>
</g>
</svg>
