<?xml version="1.0" encoding="utf-8"?>
<!-- Generator: Adobe Illustrator 15.1.0, SVG Export Plug-In . SVG Version: 6.00 Build 0)  -->
<!DOCTYPE svg PUBLIC "-//W3C//DTD SVG 1.0//EN" "http://www.w3.org/TR/2001/REC-SVG-20010904/DTD/svg10.dtd">
<svg version="1.0" id="icon" xmlns="http://www.w3.org/2000/svg" xmlns:xlink="http://www.w3.org/1999/xlink" x="0px" y="0px"
	 width="64px" height="64px" viewBox="0 0 64 64" enable-background="new 0 0 64 64" xml:space="preserve">
<g>
	<path fill="#231F20" d="M32,14c1.652,0,3.243,0.214,4.772,0.642s2.962,1.034,4.298,1.819s2.552,1.726,3.647,2.821
		s2.036,2.312,2.821,3.647s1.392,2.769,1.819,4.298S50,30.348,50,32s-0.214,3.244-0.642,4.773s-1.034,2.961-1.819,4.297
		s-1.726,2.553-2.821,3.648s-2.312,2.035-3.647,2.82s-2.769,1.393-4.298,1.82S33.652,50,32,50s-3.243-0.213-4.772-0.641
		s-2.962-1.035-4.298-1.82s-2.552-1.725-3.647-2.82s-2.036-2.312-2.821-3.648s-1.392-2.768-1.819-4.297S14,33.652,14,32
		s0.214-3.243,0.642-4.772s1.034-2.962,1.819-4.298s1.726-2.552,2.821-3.647s2.312-2.036,3.647-2.821s2.769-1.392,4.298-1.819
		S30.348,14,32,14z M32,47.75c1.922,0,3.759-0.328,5.511-0.984s3.354-1.611,4.808-2.865L20.1,21.682
		c-1.254,1.453-2.209,3.056-2.865,4.808S16.25,30.078,16.25,32c0,1.453,0.188,2.851,0.562,4.193
		c0.375,1.342,0.905,2.596,1.591,3.762s1.506,2.227,2.461,3.182s2.016,1.775,3.182,2.461s2.42,1.215,3.762,1.59
		S30.547,47.75,32,47.75z M43.9,42.318c1.254-1.453,2.209-3.055,2.865-4.807S47.75,33.922,47.75,32c0-1.453-0.188-2.851-0.562-4.192
		s-0.905-2.596-1.591-3.762s-1.506-2.227-2.461-3.182s-2.016-1.775-3.182-2.461s-2.42-1.216-3.762-1.591S33.453,16.25,32,16.25
		c-1.922,0-3.759,0.328-5.511,0.984s-3.354,1.611-4.808,2.865L43.9,42.318z"/>
</g>
</svg>
