<?xml version="1.0" encoding="utf-8"?>
<!-- Generator: Adobe Illustrator 15.1.0, SVG Export Plug-In . SVG Version: 6.00 Build 0)  -->
<!DOCTYPE svg PUBLIC "-//W3C//DTD SVG 1.0//EN" "http://www.w3.org/TR/2001/REC-SVG-20010904/DTD/svg10.dtd">
<svg version="1.0" id="icon" xmlns="http://www.w3.org/2000/svg" xmlns:xlink="http://www.w3.org/1999/xlink" x="0px" y="0px"
	 width="64px" height="64px" viewBox="0 0 64 64" enable-background="new 0 0 64 64" xml:space="preserve">
<g>
	<path fill="#231F20" d="M50,41.65V50h-9v-4.5h-4.5V41H32v-3.639c-0.867,0.457-1.775,0.803-2.725,1.037s-1.916,0.352-2.9,0.352
		c-1.137,0-2.232-0.146-3.287-0.439s-2.039-0.709-2.953-1.248s-1.749-1.187-2.505-1.942s-1.403-1.591-1.942-2.505
		s-0.955-1.898-1.248-2.953S14,27.512,14,26.375s0.146-2.232,0.439-3.287s0.709-2.039,1.248-2.953s1.187-1.749,1.942-2.505
		s1.591-1.403,2.505-1.942s1.898-0.955,2.953-1.248S25.238,14,26.375,14s2.232,0.146,3.287,0.439s2.039,0.709,2.953,1.248
		s1.749,1.187,2.505,1.942s1.403,1.591,1.942,2.505s0.955,1.898,1.248,2.953s0.439,2.15,0.439,3.287
		c0,0.598-0.047,1.189-0.141,1.775s-0.229,1.16-0.404,1.723L50,41.65z M47.75,42.6L35.621,30.471
		c0.258-0.668,0.469-1.339,0.633-2.013S36.5,27.09,36.5,26.375c0-1.395-0.267-2.707-0.8-3.938s-1.257-2.303-2.171-3.217
		s-1.986-1.638-3.217-2.171s-2.543-0.8-3.938-0.8s-2.707,0.267-3.938,0.8s-2.303,1.257-3.217,2.171s-1.638,1.986-2.171,3.217
		s-0.8,2.543-0.8,3.938s0.267,2.707,0.8,3.938s1.257,2.303,2.171,3.217s1.986,1.638,3.217,2.171s2.543,0.8,3.938,0.8
		c1.137,0,2.253-0.193,3.349-0.58s2.083-0.943,2.962-1.67h1.564v4.5h4.5v4.5h4.5v4.5h4.5V42.6z M23,20.75
		c0.316,0,0.609,0.059,0.879,0.176s0.507,0.278,0.712,0.483s0.366,0.442,0.483,0.712S25.25,22.684,25.25,23
		s-0.059,0.609-0.176,0.879s-0.278,0.507-0.483,0.712s-0.442,0.366-0.712,0.483S23.316,25.25,23,25.25s-0.609-0.059-0.879-0.176
		s-0.507-0.278-0.712-0.483s-0.366-0.442-0.483-0.712S20.75,23.316,20.75,23s0.059-0.609,0.176-0.879s0.278-0.507,0.483-0.712
		s0.442-0.366,0.712-0.483S22.684,20.75,23,20.75z"/>
</g>
</svg>
