<?xml version="1.0" encoding="utf-8"?>
<!-- Generator: Adobe Illustrator 15.1.0, SVG Export Plug-In . SVG Version: 6.00 Build 0)  -->
<!DOCTYPE svg PUBLIC "-//W3C//DTD SVG 1.0//EN" "http://www.w3.org/TR/2001/REC-SVG-20010904/DTD/svg10.dtd">
<svg version="1.0" id="icon" xmlns="http://www.w3.org/2000/svg" xmlns:xlink="http://www.w3.org/1999/xlink" x="0px" y="0px"
	 width="64px" height="64px" viewBox="0 0 64 64" enable-background="new 0 0 64 64" xml:space="preserve">
<g>
	<path fill="#231F20" d="M38.891,36.043L43.25,50L32,41.352L20.75,50l4.359-13.957L14,27.5h13.781L32,14l4.219,13.5H50
		L38.891,36.043z M38.979,43.883c-0.445-1.453-0.891-2.896-1.336-4.332s-0.902-2.881-1.371-4.334
		c1.207-0.902,2.396-1.811,3.568-2.725s2.355-1.828,3.551-2.742h-8.824L32,21.541l-2.566,8.209h-8.824
		c1.195,0.914,2.379,1.828,3.551,2.742s2.361,1.822,3.568,2.725c-0.469,1.453-0.926,2.898-1.371,4.334s-0.891,2.879-1.336,4.332
		L32,38.504L38.979,43.883z"/>
</g>
</svg>
