<?xml version="1.0" encoding="utf-8"?>
<!-- Generator: Adobe Illustrator 15.1.0, SVG Export Plug-In . SVG Version: 6.00 Build 0)  -->
<!DOCTYPE svg PUBLIC "-//W3C//DTD SVG 1.0//EN" "http://www.w3.org/TR/2001/REC-SVG-20010904/DTD/svg10.dtd">
<svg version="1.0" id="icon" xmlns="http://www.w3.org/2000/svg" xmlns:xlink="http://www.w3.org/1999/xlink" x="0px" y="0px"
	 width="64px" height="64px" viewBox="0 0 64 64" enable-background="new 0 0 64 64" xml:space="preserve">
<g>
	<path fill="#231F20" d="M32.281,30.629c1.113,0.422,2.147,0.979,3.103,1.67s1.802,1.485,2.54,2.382s1.354,1.881,1.846,2.953
		s0.838,2.194,1.037,3.366h-2.285c-0.27-1.312-0.744-2.52-1.424-3.621s-1.509-2.051-2.487-2.848s-2.074-1.418-3.287-1.863
		S28.836,32,27.5,32c-1.031,0-2.027,0.135-2.988,0.404s-1.857,0.647-2.689,1.134s-1.591,1.072-2.276,1.758s-1.271,1.444-1.758,2.276
		s-0.864,1.729-1.134,2.689s-0.404,1.957-0.404,2.988H14c0-1.406,0.208-2.76,0.624-4.061s1.005-2.502,1.767-3.604
		s1.679-2.08,2.751-2.936s2.265-1.529,3.577-2.021c-1.324-0.867-2.358-1.957-3.103-3.27S18.5,24.594,18.5,23
		c0-1.242,0.234-2.411,0.703-3.507s1.11-2.051,1.925-2.865s1.77-1.456,2.865-1.925S26.258,14,27.5,14s2.411,0.234,3.507,0.703
		s2.051,1.11,2.865,1.925s1.456,1.77,1.925,2.865S36.5,21.758,36.5,23c0,0.773-0.097,1.529-0.29,2.268s-0.472,1.436-0.835,2.092
		s-0.806,1.263-1.327,1.819S32.938,30.219,32.281,30.629z M20.75,23c0,0.938,0.176,1.813,0.527,2.628s0.835,1.529,1.45,2.145
		s1.33,1.099,2.145,1.45s1.69,0.527,2.628,0.527c0.926,0,1.799-0.176,2.619-0.527s1.538-0.835,2.153-1.45s1.099-1.33,1.45-2.145
		S34.25,23.938,34.25,23c0-0.926-0.176-1.799-0.527-2.619s-0.835-1.538-1.45-2.153s-1.333-1.099-2.153-1.45S28.426,16.25,27.5,16.25
		c-0.938,0-1.813,0.176-2.628,0.527s-1.529,0.835-2.145,1.45s-1.099,1.333-1.45,2.153S20.75,22.074,20.75,23z M50,43.25v2.25h-4.5
		V50h-2.25v-4.5h-4.5v-2.25h4.5v-4.5h2.25v4.5H50z"/>
</g>
</svg>
