<?xml version="1.0" encoding="utf-8"?>
<!-- Generator: Adobe Illustrator 15.1.0, SVG Export Plug-In . SVG Version: 6.00 Build 0)  -->
<!DOCTYPE svg PUBLIC "-//W3C//DTD SVG 1.0//EN" "http://www.w3.org/TR/2001/REC-SVG-20010904/DTD/svg10.dtd">
<svg version="1.0" id="icon" xmlns="http://www.w3.org/2000/svg" xmlns:xlink="http://www.w3.org/1999/xlink" x="0px" y="0px"
	 width="64px" height="64px" viewBox="0 0 64 64" enable-background="new 0 0 64 64" xml:space="preserve">
<g>
	<path fill="#231F20" d="M48.875,50h-33.75l4.5-13.5h11.25v-6.838c-0.973-0.129-1.869-0.425-2.689-0.888s-1.532-1.043-2.136-1.74
		s-1.075-1.488-1.415-2.373s-0.51-1.813-0.51-2.786c0-1.09,0.208-2.112,0.624-3.067s0.979-1.787,1.688-2.496
		s1.541-1.271,2.496-1.688S30.91,14,32,14s2.112,0.208,3.067,0.624s1.787,0.979,2.496,1.688s1.271,1.541,1.688,2.496
		s0.624,1.978,0.624,3.067c0,0.973-0.17,1.901-0.51,2.786s-0.812,1.676-1.415,2.373s-1.318,1.277-2.145,1.74
		s-1.72,0.759-2.681,0.888V36.5h11.25L48.875,50z M18.254,47.75h27.492l-2.988-9h-9.633v4.5c0,0.105-0.044,0.196-0.132,0.272
		s-0.193,0.135-0.316,0.176s-0.246,0.07-0.369,0.088S32.082,43.812,32,43.812s-0.185-0.009-0.308-0.026s-0.246-0.047-0.369-0.088
		s-0.229-0.1-0.316-0.176s-0.132-0.167-0.132-0.272v-4.5h-9.633L18.254,47.75z M26.375,21.875c0,0.773,0.149,1.5,0.448,2.18
		s0.703,1.274,1.213,1.784s1.104,0.914,1.784,1.213S31.227,27.5,32,27.5s1.5-0.149,2.18-0.448s1.274-0.703,1.784-1.213
		s0.914-1.104,1.213-1.784s0.448-1.406,0.448-2.18s-0.149-1.5-0.448-2.18s-0.703-1.274-1.213-1.784s-1.104-0.914-1.784-1.213
		S32.773,16.25,32,16.25s-1.5,0.149-2.18,0.448s-1.274,0.703-1.784,1.213s-0.914,1.104-1.213,1.784S26.375,21.102,26.375,21.875z
		 M33.125,21.875c0,0.305-0.111,0.568-0.334,0.791S32.305,23,32,23s-0.568-0.111-0.791-0.334s-0.334-0.486-0.334-0.791
		s0.111-0.568,0.334-0.791S31.695,20.75,32,20.75s0.568,0.111,0.791,0.334S33.125,21.57,33.125,21.875z"/>
</g>
</svg>
