<?xml version="1.0" encoding="utf-8"?>
<!-- Generator: Adobe Illustrator 15.1.0, SVG Export Plug-In . SVG Version: 6.00 Build 0)  -->
<!DOCTYPE svg PUBLIC "-//W3C//DTD SVG 1.0//EN" "http://www.w3.org/TR/2001/REC-SVG-20010904/DTD/svg10.dtd">
<svg version="1.0" id="icon" xmlns="http://www.w3.org/2000/svg" xmlns:xlink="http://www.w3.org/1999/xlink" x="0px" y="0px"
	 width="64px" height="64px" viewBox="0 0 64 64" enable-background="new 0 0 64 64" xml:space="preserve">
<g>
	<path fill="#231F20" d="M31.35,27.5l-6.1,6.1c-0.211,0.211-0.469,0.372-0.773,0.483s-0.609,0.167-0.914,0.167
		c-0.387,0-0.75-0.073-1.09-0.22s-0.639-0.349-0.896-0.606s-0.46-0.557-0.606-0.896s-0.22-0.703-0.22-1.09
		c0-0.105,0.044-0.34,0.132-0.703s0.185-0.762,0.29-1.195s0.211-0.847,0.316-1.239s0.176-0.659,0.211-0.8H16.25
		c-0.305,0-0.595-0.059-0.87-0.176s-0.516-0.275-0.721-0.475s-0.366-0.437-0.483-0.712S14,25.572,14,25.268
		c0-0.223,0.064-0.58,0.193-1.072s0.293-1.052,0.492-1.679s0.419-1.292,0.659-1.995s0.478-1.377,0.712-2.021s0.445-1.23,0.633-1.758
		s0.328-0.932,0.422-1.213c0.152-0.457,0.428-0.826,0.826-1.107S18.775,14,19.256,14H36.5v13.5H31.35z M29.75,25.9v-9.65H19.256
		l-3.006,9h8.332l-1.564,6.293c0.023,0.129,0.088,0.237,0.193,0.325S23.434,32,23.562,32l0.123-0.035L29.75,25.9z M47.75,36.5
		c0.305,0,0.596,0.059,0.871,0.176s0.516,0.279,0.721,0.484s0.365,0.441,0.482,0.711S50,38.428,50,38.732
		c0,0.223-0.064,0.58-0.193,1.072s-0.293,1.053-0.492,1.68s-0.418,1.291-0.658,1.994s-0.479,1.377-0.713,2.021
		s-0.445,1.23-0.633,1.758s-0.328,0.932-0.422,1.213c-0.152,0.457-0.428,0.826-0.826,1.107S45.225,50,44.744,50H27.5V36.5h5.15
		l6.1-6.1c0.211-0.211,0.469-0.372,0.773-0.483s0.609-0.167,0.914-0.167c0.387,0,0.75,0.073,1.09,0.22s0.639,0.349,0.896,0.606
		s0.461,0.557,0.607,0.896s0.219,0.703,0.219,1.09c0,0.07-0.02,0.202-0.061,0.396s-0.094,0.419-0.158,0.677
		s-0.133,0.533-0.203,0.826s-0.141,0.574-0.211,0.844s-0.135,0.513-0.193,0.729s-0.1,0.372-0.123,0.466H47.75z M29.75,47.75H32v-9
		h-2.25V47.75z M34.25,16.25H32v9h2.25V16.25z M47.75,38.75h-8.332l1.564-6.293c-0.023-0.129-0.088-0.237-0.193-0.325
		S40.566,32,40.438,32l-0.123,0.035L34.25,38.1v9.65h10.494L47.75,38.75z"/>
</g>
</svg>
