<?xml version="1.0" encoding="utf-8"?>
<!-- Generator: Adobe Illustrator 15.1.0, SVG Export Plug-In . SVG Version: 6.00 Build 0)  -->
<!DOCTYPE svg PUBLIC "-//W3C//DTD SVG 1.0//EN" "http://www.w3.org/TR/2001/REC-SVG-20010904/DTD/svg10.dtd">
<svg version="1.0" id="icon" xmlns="http://www.w3.org/2000/svg" xmlns:xlink="http://www.w3.org/1999/xlink" x="0px" y="0px"
	 width="64px" height="64px" viewBox="0 0 64 64" enable-background="new 0 0 64 64" xml:space="preserve">
<g>
	<path fill="#231F20" d="M14,28.625v-2.25h9v2.25H14z M16.25,33.125v-2.25H23v2.25H16.25z M18.5,37.625v-2.25H23v2.25H18.5z
		 M25.25,21.875H50v20.25H25.25V21.875z M47.75,39.875v-15.75H27.5v15.75H47.75z M45.5,26.375v2.25H29.75v-2.25H45.5z M36.5,30.875
		v2.25h-6.75v-2.25H36.5z M36.5,35.375v2.25h-6.75v-2.25H36.5z M38.75,37.625v-6.75h6.75v6.75H38.75z M41,33.125v2.25h2.25v-2.25H41
		z"/>
</g>
</svg>
