<?xml version="1.0" encoding="utf-8"?>
<!-- Generator: Adobe Illustrator 15.1.0, SVG Export Plug-In . SVG Version: 6.00 Build 0)  -->
<!DOCTYPE svg PUBLIC "-//W3C//DTD SVG 1.0//EN" "http://www.w3.org/TR/2001/REC-SVG-20010904/DTD/svg10.dtd">
<svg version="1.0" id="icon" xmlns="http://www.w3.org/2000/svg" xmlns:xlink="http://www.w3.org/1999/xlink" x="0px" y="0px"
	 width="64px" height="64px" viewBox="0 0 64 64" enable-background="new 0 0 64 64" xml:space="preserve">
<g>
	<path fill="#231F20" d="M47.029,23.721c0.961,0.961,1.696,2.054,2.206,3.278S50,29.516,50,30.875c0,0.41-0.012,0.902-0.035,1.477
		s-0.073,1.195-0.149,1.863s-0.188,1.356-0.334,2.065s-0.337,1.403-0.571,2.083c-0.352,1.008-0.762,1.831-1.23,2.47
		s-0.955,1.137-1.459,1.494s-1.014,0.601-1.529,0.729s-0.996,0.193-1.441,0.193c-0.387,0-0.741-0.067-1.063-0.202
		s-0.627-0.308-0.914-0.519s-0.557-0.454-0.809-0.729s-0.501-0.554-0.747-0.835s-0.489-0.551-0.729-0.809s-0.489-0.489-0.747-0.694
		s-0.53-0.372-0.817-0.501s-0.601-0.199-0.94-0.211h-8.965c-0.34,0.012-0.653,0.082-0.94,0.211s-0.56,0.296-0.817,0.501
		s-0.507,0.437-0.747,0.694s-0.483,0.527-0.729,0.809s-0.495,0.56-0.747,0.835s-0.521,0.519-0.809,0.729s-0.592,0.384-0.914,0.519
		s-0.677,0.202-1.063,0.202c-0.445,0-0.926-0.064-1.441-0.193s-1.025-0.372-1.529-0.729s-0.99-0.855-1.459-1.494
		s-0.879-1.462-1.23-2.47c-0.234-0.68-0.425-1.374-0.571-2.083s-0.258-1.397-0.334-2.065s-0.126-1.289-0.149-1.863
		S14,31.285,14,30.875c0-1.359,0.255-2.651,0.765-3.876s1.245-2.317,2.206-3.278c0.949-0.961,2.039-1.696,3.27-2.206
		s2.525-0.765,3.885-0.765h15.75c1.359,0,2.651,0.255,3.876,0.765S46.068,22.76,47.029,23.721z M46.783,37.625
		c0.223-0.621,0.398-1.266,0.527-1.934s0.226-1.31,0.29-1.925s0.105-1.175,0.123-1.679s0.026-0.908,0.026-1.213
		c0-1.09-0.208-2.112-0.624-3.067s-0.979-1.787-1.688-2.496s-1.541-1.271-2.496-1.688S40.965,23,39.875,23h-15.75
		c-1.09,0-2.112,0.208-3.067,0.624s-1.787,0.979-2.496,1.688s-1.271,1.541-1.688,2.496s-0.624,1.978-0.624,3.067
		c0,0.305,0.009,0.709,0.026,1.213s0.059,1.063,0.123,1.679s0.161,1.257,0.29,1.925s0.305,1.312,0.527,1.934
		c0.293,0.844,0.615,1.494,0.967,1.951s0.694,0.791,1.028,1.002s0.639,0.334,0.914,0.369S20.609,41,20.75,41
		c0.258,0,0.542-0.155,0.853-0.466s0.636-0.659,0.976-1.046c0.281-0.328,0.583-0.665,0.905-1.011s0.68-0.662,1.072-0.949
		s0.829-0.524,1.31-0.712s1.014-0.293,1.6-0.316h0.018h9.053c0.586,0.023,1.119,0.129,1.6,0.316s0.917,0.425,1.31,0.712
		s0.75,0.604,1.072,0.949s0.624,0.683,0.905,1.011c0.34,0.387,0.665,0.735,0.976,1.046S42.992,41,43.25,41
		c0.141,0,0.349-0.018,0.624-0.053s0.58-0.158,0.914-0.369s0.677-0.545,1.028-1.002S46.49,38.469,46.783,37.625z M23,29.75h2.25V32
		H23v2.25h-2.25V32H18.5v-2.25h2.25V27.5H23V29.75z M38.75,27.5c0.316,0,0.609,0.059,0.879,0.176s0.507,0.278,0.712,0.483
		s0.366,0.442,0.483,0.712S41,29.434,41,29.75s-0.059,0.609-0.176,0.879s-0.278,0.507-0.483,0.712s-0.442,0.366-0.712,0.483
		S39.066,32,38.75,32s-0.609-0.059-0.879-0.176s-0.507-0.278-0.712-0.483s-0.366-0.442-0.483-0.712S36.5,30.066,36.5,29.75
		s0.059-0.609,0.176-0.879s0.278-0.507,0.483-0.712s0.442-0.366,0.712-0.483S38.434,27.5,38.75,27.5z M43.25,32
		c0.316,0,0.609,0.059,0.879,0.176s0.507,0.278,0.712,0.483s0.366,0.442,0.483,0.712S45.5,33.934,45.5,34.25
		s-0.059,0.609-0.176,0.879s-0.278,0.507-0.483,0.712s-0.442,0.366-0.712,0.483S43.566,36.5,43.25,36.5s-0.609-0.059-0.879-0.176
		s-0.507-0.278-0.712-0.483s-0.366-0.442-0.483-0.712S41,34.566,41,34.25s0.059-0.609,0.176-0.879s0.278-0.507,0.483-0.712
		s0.442-0.366,0.712-0.483S42.934,32,43.25,32z"/>
</g>
</svg>
