<?xml version="1.0" encoding="utf-8"?>
<!-- Generator: Adobe Illustrator 15.1.0, SVG Export Plug-In . SVG Version: 6.00 Build 0)  -->
<!DOCTYPE svg PUBLIC "-//W3C//DTD SVG 1.0//EN" "http://www.w3.org/TR/2001/REC-SVG-20010904/DTD/svg10.dtd">
<svg version="1.0" id="icon" xmlns="http://www.w3.org/2000/svg" xmlns:xlink="http://www.w3.org/1999/xlink" x="0px" y="0px"
	 width="64px" height="64px" viewBox="0 0 64 64" enable-background="new 0 0 64 64" xml:space="preserve">
<g>
	<path fill="#231F20" d="M18.5,34.145c-0.656-0.129-1.257-0.366-1.802-0.712s-1.02-0.765-1.424-1.257s-0.718-1.04-0.94-1.644
		S14,29.293,14,28.625c0-0.855,0.082-1.629,0.246-2.32s0.381-1.362,0.65-2.013s0.583-1.301,0.94-1.951s0.729-1.362,1.116-2.136
		c0.117-0.234,0.272-0.457,0.466-0.668s0.407-0.393,0.642-0.545s0.486-0.272,0.756-0.36s0.539-0.132,0.809-0.132
		c0.562,0,1.037,0.132,1.424,0.396s0.724,0.595,1.011,0.993s0.536,0.832,0.747,1.301s0.422,0.902,0.633,1.301
		c0.293,0.586,0.554,1.107,0.782,1.564s0.419,0.908,0.571,1.354s0.267,0.92,0.343,1.424s0.114,1.102,0.114,1.793
		c0,0.668-0.111,1.304-0.334,1.907s-0.536,1.151-0.94,1.644s-0.882,0.911-1.433,1.257s-1.148,0.583-1.793,0.712V41H18.5V34.145z
		 M50,43.25v2.25H14v-2.25H50z M19.625,20.75c-0.105,0-0.243,0.105-0.413,0.316s-0.357,0.48-0.562,0.809s-0.41,0.691-0.615,1.09
		s-0.398,0.779-0.58,1.143s-0.34,0.691-0.475,0.984s-0.226,0.498-0.272,0.615c-0.176,0.445-0.296,0.926-0.36,1.441
		s-0.097,1.008-0.097,1.477s0.088,0.908,0.264,1.318s0.416,0.768,0.721,1.072s0.662,0.545,1.072,0.721S19.156,32,19.625,32
		s0.908-0.088,1.318-0.264s0.768-0.416,1.072-0.721s0.545-0.662,0.721-1.072S23,29.094,23,28.625s-0.032-0.961-0.097-1.477
		s-0.185-0.996-0.36-1.441c-0.047-0.117-0.138-0.322-0.272-0.615s-0.293-0.621-0.475-0.984s-0.378-0.744-0.589-1.143
		s-0.416-0.762-0.615-1.09s-0.384-0.598-0.554-0.809S19.73,20.75,19.625,20.75z M29.135,31.947l-1.582-1.582L38.75,19.15
		l11.197,11.215l-1.582,1.582L47.75,31.35V41H41v-6.75h-4.5V41h-6.75v-9.65L29.135,31.947z M32,38.75h2.25V32h9v6.75h2.25V29.1
		l-6.75-6.75L32,29.1V38.75z"/>
</g>
</svg>
