<?xml version="1.0" encoding="utf-8"?>
<!-- Generator: Adobe Illustrator 15.1.0, SVG Export Plug-In . SVG Version: 6.00 Build 0)  -->
<!DOCTYPE svg PUBLIC "-//W3C//DTD SVG 1.0//EN" "http://www.w3.org/TR/2001/REC-SVG-20010904/DTD/svg10.dtd">
<svg version="1.0" id="icon" xmlns="http://www.w3.org/2000/svg" xmlns:xlink="http://www.w3.org/1999/xlink" x="0px" y="0px"
	 width="64px" height="64px" viewBox="0 0 64 64" enable-background="new 0 0 64 64" xml:space="preserve">
<g>
	<path fill="#231F20" d="M50,21.875v20.25h-8.35l-4.5-4.5H14v-11.25h23.15l4.5-4.5H50z M16.25,35.375H36.5v-6.75H16.25V35.375z
		 M33.125,30.875c0.305,0,0.568,0.111,0.791,0.334S34.25,31.695,34.25,32s-0.111,0.568-0.334,0.791s-0.486,0.334-0.791,0.334
		s-0.568-0.111-0.791-0.334S32,32.305,32,32s0.111-0.568,0.334-0.791S32.82,30.875,33.125,30.875z M42.6,39.875h0.65v-15.75H42.6
		l-3.85,3.85v8.051L42.6,39.875z M47.75,24.125H45.5v15.75h2.25V24.125z"/>
</g>
</svg>
