<?xml version="1.0" encoding="utf-8"?>
<!-- Generator: Adobe Illustrator 15.1.0, SVG Export Plug-In . SVG Version: 6.00 Build 0)  -->
<!DOCTYPE svg PUBLIC "-//W3C//DTD SVG 1.0//EN" "http://www.w3.org/TR/2001/REC-SVG-20010904/DTD/svg10.dtd">
<svg version="1.0" id="icon" xmlns="http://www.w3.org/2000/svg" xmlns:xlink="http://www.w3.org/1999/xlink" x="0px" y="0px"
	 width="64px" height="64px" viewBox="0 0 64 64" enable-background="new 0 0 64 64" xml:space="preserve">
<g>
	<path fill="#231F20" d="M47.926,17.867c0.305,0.527,0.584,1.031,0.836,1.512s0.471,0.967,0.658,1.459s0.332,1.005,0.432,1.538
		S50,23.492,50,24.125c0,0.926-0.119,1.819-0.359,2.681s-0.58,1.667-1.02,2.417s-0.971,1.436-1.592,2.057s-1.307,1.151-2.057,1.591
		s-1.555,0.779-2.416,1.02s-1.756,0.36-2.682,0.36c-0.27,0-0.542-0.012-0.817-0.035s-0.548-0.059-0.817-0.105L24.072,48.277
		c-0.562,0.562-1.204,0.99-1.925,1.283S20.674,50,19.889,50c-0.809,0-1.57-0.155-2.285-0.466s-1.339-0.732-1.872-1.266
		s-0.955-1.157-1.266-1.872S14,44.92,14,44.111c0-0.785,0.146-1.538,0.439-2.259s0.721-1.362,1.283-1.925L29.891,25.76
		c-0.047-0.27-0.082-0.542-0.105-0.817s-0.035-0.548-0.035-0.817c0-0.926,0.12-1.819,0.36-2.681s0.58-1.667,1.02-2.417
		s0.97-1.436,1.591-2.057s1.307-1.151,2.057-1.591s1.556-0.779,2.417-1.02S38.949,14,39.875,14c0.632,0,1.217,0.05,1.75,0.149
		s1.045,0.243,1.537,0.431s0.979,0.407,1.459,0.659s0.984,0.53,1.512,0.835L39.207,23L41,24.793L47.926,17.867z M39.875,32
		c1.089,0,2.113-0.208,3.068-0.624s1.787-0.979,2.496-1.688s1.271-1.541,1.688-2.496s0.623-1.978,0.623-3.067
		c0-0.855-0.141-1.682-0.422-2.479L41,27.957L36.043,23l6.311-6.328c-0.797-0.281-1.624-0.422-2.479-0.422
		c-1.09,0-2.112,0.208-3.067,0.624s-1.787,0.979-2.496,1.688s-1.271,1.541-1.688,2.496S32,23.035,32,24.125
		c0,0.41,0.035,0.809,0.105,1.195s0.152,0.773,0.246,1.16L17.322,41.527c-0.34,0.34-0.604,0.732-0.791,1.178
		s-0.281,0.914-0.281,1.406s0.097,0.961,0.29,1.406s0.454,0.832,0.782,1.16s0.715,0.589,1.16,0.782s0.914,0.29,1.406,0.29
		s0.961-0.094,1.406-0.281s0.838-0.451,1.178-0.791L37.52,31.648c0.387,0.094,0.773,0.176,1.16,0.246S39.465,32,39.875,32z"/>
</g>
</svg>
