<?xml version="1.0" encoding="utf-8"?>
<!-- Generator: Adobe Illustrator 15.1.0, SVG Export Plug-In . SVG Version: 6.00 Build 0)  -->
<!DOCTYPE svg PUBLIC "-//W3C//DTD SVG 1.0//EN" "http://www.w3.org/TR/2001/REC-SVG-20010904/DTD/svg10.dtd">
<svg version="1.0" id="icon" xmlns="http://www.w3.org/2000/svg" xmlns:xlink="http://www.w3.org/1999/xlink" x="0px" y="0px"
	 width="64px" height="64px" viewBox="0 0 64 64" enable-background="new 0 0 64 64" xml:space="preserve">
<g>
	<path fill="#231F20" d="M27.008,34.057c0.762,0.387,1.45,0.864,2.065,1.433s1.14,1.202,1.573,1.899s0.768,1.447,1.002,2.25
		S32,41.27,32,42.125h-2.25c0-0.926-0.179-1.799-0.536-2.619s-0.841-1.535-1.45-2.145s-1.324-1.093-2.145-1.45
		S23.926,35.375,23,35.375s-1.799,0.179-2.619,0.536s-1.535,0.841-2.145,1.45s-1.093,1.324-1.45,2.145s-0.536,1.693-0.536,2.619H14
		c0-0.855,0.117-1.684,0.352-2.486s0.568-1.553,1.002-2.25s0.958-1.331,1.573-1.899s1.304-1.046,2.065-1.433
		c-0.855-0.633-1.526-1.43-2.013-2.391s-0.729-1.975-0.729-3.041c0-0.926,0.179-1.799,0.536-2.619s0.841-1.535,1.45-2.145
		s1.324-1.093,2.145-1.45s1.693-0.536,2.619-0.536s1.799,0.179,2.619,0.536s1.535,0.841,2.145,1.45s1.093,1.324,1.45,2.145
		s0.536,1.693,0.536,2.619c0,1.066-0.243,2.08-0.729,3.041S27.863,33.424,27.008,34.057z M18.5,28.625
		c0,0.621,0.12,1.204,0.36,1.749s0.562,1.02,0.967,1.424s0.879,0.727,1.424,0.967s1.128,0.36,1.749,0.36
		c0.609,0,1.189-0.12,1.74-0.36s1.028-0.562,1.433-0.967s0.727-0.879,0.967-1.424s0.36-1.128,0.36-1.749
		c0-0.609-0.12-1.189-0.36-1.74s-0.562-1.028-0.967-1.433s-0.882-0.727-1.433-0.967s-1.131-0.36-1.74-0.36
		c-0.621,0-1.204,0.12-1.749,0.36s-1.02,0.562-1.424,0.967s-0.727,0.882-0.967,1.433S18.5,28.016,18.5,28.625z M50,21.875v2.25
		H34.25v-2.25H50z M34.25,30.875H50v2.25H34.25V30.875z M34.25,39.875H50v2.25H34.25V39.875z"/>
</g>
</svg>
