<?xml version="1.0" encoding="utf-8"?>
<!-- Generator: Adobe Illustrator 15.1.0, SVG Export Plug-In . SVG Version: 6.00 Build 0)  -->
<!DOCTYPE svg PUBLIC "-//W3C//DTD SVG 1.0//EN" "http://www.w3.org/TR/2001/REC-SVG-20010904/DTD/svg10.dtd">
<svg version="1.0" id="icon" xmlns="http://www.w3.org/2000/svg" xmlns:xlink="http://www.w3.org/1999/xlink" x="0px" y="0px"
	 width="64px" height="64px" viewBox="0 0 64 64" enable-background="new 0 0 64 64" xml:space="preserve">
<g>
	<path fill="#231F20" d="M36.869,33.512c-0.316,0.199-0.624,0.407-0.923,0.624s-0.583,0.46-0.853,0.729
		c-1.043-0.938-2.218-1.649-3.524-2.136S28.906,32,27.5,32c-1.57,0-3.041,0.29-4.412,0.87s-2.563,1.377-3.577,2.391
		s-1.811,2.206-2.391,3.577s-0.87,2.842-0.87,4.412H14c0-1.406,0.205-2.766,0.615-4.078s0.996-2.522,1.758-3.63
		s1.679-2.083,2.751-2.927s2.276-1.512,3.612-2.004c-0.645-0.41-1.228-0.894-1.749-1.45s-0.967-1.163-1.336-1.819
		s-0.653-1.351-0.853-2.083S18.5,23.773,18.5,23c0-1.242,0.237-2.408,0.712-3.498s1.119-2.042,1.934-2.856s1.767-1.459,2.856-1.934
		S26.258,14,27.5,14s2.408,0.237,3.498,0.712s2.042,1.119,2.856,1.934s1.459,1.767,1.934,2.856S36.5,21.758,36.5,23
		c0,0.773-0.1,1.526-0.299,2.259s-0.483,1.427-0.853,2.083s-0.814,1.263-1.336,1.819s-1.104,1.04-1.749,1.45
		c0.867,0.305,1.685,0.706,2.452,1.204S36.201,32.879,36.869,33.512z M20.75,23c0,0.926,0.179,1.799,0.536,2.619
		s0.841,1.535,1.45,2.145s1.324,1.093,2.145,1.45s1.693,0.536,2.619,0.536s1.799-0.179,2.619-0.536s1.535-0.841,2.145-1.45
		s1.093-1.324,1.45-2.145S34.25,23.926,34.25,23s-0.179-1.799-0.536-2.619s-0.841-1.535-1.45-2.145s-1.324-1.093-2.145-1.45
		S28.426,16.25,27.5,16.25s-1.799,0.179-2.619,0.536s-1.535,0.841-2.145,1.45s-1.093,1.324-1.45,2.145S20.75,22.074,20.75,23z
		 M42.125,34.25c1.09,0,2.112,0.208,3.067,0.624s1.787,0.979,2.496,1.688s1.271,1.541,1.688,2.496S50,41.035,50,42.125
		s-0.208,2.112-0.624,3.067s-0.979,1.787-1.688,2.496s-1.541,1.271-2.496,1.688S43.215,50,42.125,50s-2.112-0.208-3.067-0.624
		s-1.787-0.979-2.496-1.688s-1.271-1.541-1.688-2.496s-0.624-1.978-0.624-3.067s0.208-2.112,0.624-3.067s0.979-1.787,1.688-2.496
		s1.541-1.271,2.496-1.688S41.035,34.25,42.125,34.25z M42.125,47.75c0.551,0,1.09-0.079,1.617-0.237s1.02-0.39,1.477-0.694
		l-7.787-7.787c-0.305,0.457-0.536,0.949-0.694,1.477S36.5,41.574,36.5,42.125c0,0.773,0.149,1.5,0.448,2.18
		s0.703,1.274,1.213,1.784s1.104,0.914,1.784,1.213S41.352,47.75,42.125,47.75z M46.818,45.219c0.305-0.457,0.536-0.949,0.694-1.477
		s0.237-1.066,0.237-1.617c0-0.773-0.149-1.5-0.448-2.18s-0.703-1.274-1.213-1.784s-1.104-0.914-1.784-1.213
		s-1.406-0.448-2.18-0.448c-0.551,0-1.09,0.079-1.617,0.237s-1.02,0.39-1.477,0.694L46.818,45.219z"/>
</g>
</svg>
