<?xml version="1.0" encoding="utf-8"?>
<!-- Generator: Adobe Illustrator 15.1.0, SVG Export Plug-In . SVG Version: 6.00 Build 0)  -->
<!DOCTYPE svg PUBLIC "-//W3C//DTD SVG 1.0//EN" "http://www.w3.org/TR/2001/REC-SVG-20010904/DTD/svg10.dtd">
<svg version="1.0" id="icon" xmlns="http://www.w3.org/2000/svg" xmlns:xlink="http://www.w3.org/1999/xlink" x="0px" y="0px"
	 width="64px" height="64px" viewBox="0 0 64 64" enable-background="new 0 0 64 64" xml:space="preserve">
<g>
	<path fill="#231F20" d="M23,27.5h-9v-9h2.25v4.834c0.785-1.43,1.743-2.722,2.874-3.876s2.376-2.136,3.735-2.944
		s2.812-1.43,4.359-1.863S30.359,14,32,14c1.652,0,3.246,0.214,4.781,0.642s2.968,1.034,4.298,1.819
		c1.329,0.785,2.542,1.726,3.638,2.821s2.037,2.309,2.822,3.639s1.391,2.763,1.818,4.298S50,30.348,50,32
		c0,0.457-0.021,0.914-0.062,1.371s-0.096,0.908-0.166,1.354c-0.305-0.316-0.633-0.618-0.984-0.905s-0.715-0.548-1.09-0.782
		c0.012-0.176,0.023-0.349,0.035-0.519S47.75,32.176,47.75,32c0-1.441-0.188-2.833-0.562-4.175s-0.906-2.596-1.592-3.762
		s-1.508-2.229-2.469-3.19s-2.024-1.784-3.19-2.47s-2.42-1.216-3.762-1.591S33.441,16.25,32,16.25c-1.512,0-2.979,0.214-4.403,0.642
		s-2.751,1.031-3.981,1.811s-2.341,1.723-3.331,2.83s-1.808,2.347-2.452,3.718H23V27.5z M33.037,47.697
		c0.234,0.375,0.495,0.738,0.782,1.09s0.589,0.68,0.905,0.984c-0.445,0.07-0.896,0.126-1.354,0.167S32.457,50,32,50
		c-1.336,0-2.646-0.146-3.929-0.439s-2.505-0.712-3.665-1.257s-2.256-1.21-3.287-1.995s-1.963-1.667-2.795-2.646
		s-1.562-2.045-2.188-3.199s-1.116-2.376-1.468-3.665l2.162-0.598c0.469,1.699,1.192,3.255,2.171,4.667s2.136,2.628,3.472,3.647
		s2.818,1.813,4.447,2.382S30.242,47.75,32,47.75c0.176,0,0.349-0.006,0.519-0.018S32.861,47.709,33.037,47.697z M42.125,34.25
		c1.09,0,2.111,0.205,3.066,0.615s1.791,0.973,2.506,1.688s1.277,1.55,1.688,2.505S50,41.035,50,42.125s-0.205,2.112-0.615,3.067
		s-0.973,1.79-1.688,2.505s-1.551,1.277-2.506,1.688S43.215,50,42.125,50s-2.112-0.205-3.067-0.615s-1.79-0.973-2.505-1.688
		s-1.277-1.55-1.688-2.505s-0.615-1.978-0.615-3.067s0.205-2.112,0.615-3.067s0.973-1.79,1.688-2.505s1.55-1.277,2.505-1.688
		S41.035,34.25,42.125,34.25z M36.5,42.125c0,0.773,0.146,1.503,0.439,2.188s0.694,1.283,1.204,1.793s1.107,0.911,1.793,1.204
		s1.415,0.439,2.188,0.439c0.551,0,1.09-0.079,1.617-0.237s1.02-0.39,1.477-0.694l-7.787-7.787
		c-0.305,0.457-0.536,0.949-0.694,1.477S36.5,41.574,36.5,42.125z M46.818,45.219c0.305-0.457,0.535-0.949,0.693-1.477
		s0.238-1.066,0.238-1.617c0-0.773-0.15-1.5-0.449-2.18s-0.703-1.274-1.213-1.784s-1.104-0.914-1.783-1.213s-1.406-0.448-2.18-0.448
		c-0.551,0-1.09,0.079-1.617,0.237s-1.02,0.39-1.477,0.694L46.818,45.219z"/>
</g>
</svg>
