<?xml version="1.0" encoding="utf-8"?>
<!-- Generator: Adobe Illustrator 15.1.0, SVG Export Plug-In . SVG Version: 6.00 Build 0)  -->
<!DOCTYPE svg PUBLIC "-//W3C//DTD SVG 1.0//EN" "http://www.w3.org/TR/2001/REC-SVG-20010904/DTD/svg10.dtd">
<svg version="1.0" id="icon" xmlns="http://www.w3.org/2000/svg" xmlns:xlink="http://www.w3.org/1999/xlink" x="0px" y="0px"
	 width="64px" height="64px" viewBox="0 0 64 64" enable-background="new 0 0 64 64" xml:space="preserve">
<g>
	<path fill="#231F20" d="M32,16.25c1.441,0,2.833,0.188,4.175,0.562s2.596,0.905,3.762,1.591s2.229,1.509,3.19,2.47
		s1.785,2.024,2.471,3.19s1.215,2.42,1.59,3.762S47.75,30.559,47.75,32s-0.188,2.833-0.562,4.175
		c-0.375,1.341-0.904,2.595-1.59,3.761s-1.51,2.23-2.471,3.191s-2.024,1.783-3.19,2.469s-2.42,1.217-3.762,1.592
		S33.441,47.75,32,47.75s-2.833-0.188-4.175-0.562s-2.596-0.906-3.762-1.592s-2.229-1.508-3.19-2.469s-1.784-2.025-2.47-3.191
		s-1.216-2.416-1.591-3.752S16.25,33.453,16.25,32c0-1.441,0.188-2.833,0.562-4.175s0.905-2.596,1.591-3.762s1.509-2.229,2.47-3.19
		s2.024-1.784,3.19-2.47s2.417-1.216,3.753-1.591S30.547,16.25,32,16.25z M32,45.5c1.242,0,2.438-0.162,3.586-0.484
		s2.224-0.775,3.226-1.361s1.913-1.289,2.733-2.109s1.523-1.732,2.109-2.734s1.041-2.076,1.363-3.225S45.5,33.242,45.5,32
		s-0.16-2.438-0.482-3.586s-0.777-2.224-1.363-3.226s-1.289-1.913-2.109-2.733s-1.731-1.523-2.733-2.109s-2.077-1.04-3.226-1.362
		S33.242,18.5,32,18.5s-2.438,0.161-3.586,0.483s-2.224,0.776-3.226,1.362s-1.913,1.289-2.733,2.109s-1.523,1.731-2.109,2.733
		s-1.04,2.077-1.362,3.226S18.5,30.758,18.5,32s0.161,2.438,0.483,3.586s0.776,2.223,1.362,3.225s1.289,1.914,2.109,2.734
		s1.731,1.523,2.733,2.109s2.077,1.039,3.226,1.361S30.758,45.5,32,45.5z M32,25.25c0.926,0,1.799,0.179,2.619,0.536
		s1.535,0.841,2.145,1.45s1.093,1.324,1.45,2.145S38.75,31.074,38.75,32s-0.179,1.799-0.536,2.619s-0.841,1.535-1.45,2.145
		s-1.324,1.092-2.145,1.449S32.926,38.75,32,38.75s-1.799-0.18-2.619-0.537s-1.535-0.84-2.145-1.449s-1.093-1.324-1.45-2.145
		S25.25,32.926,25.25,32s0.179-1.799,0.536-2.619s0.841-1.535,1.45-2.145s1.324-1.093,2.145-1.45S31.074,25.25,32,25.25z"/>
</g>
</svg>
