<?xml version="1.0" encoding="utf-8"?>
<!-- Generator: Adobe Illustrator 15.1.0, SVG Export Plug-In . SVG Version: 6.00 Build 0)  -->
<!DOCTYPE svg PUBLIC "-//W3C//DTD SVG 1.0//EN" "http://www.w3.org/TR/2001/REC-SVG-20010904/DTD/svg10.dtd">
<svg version="1.0" id="icon" xmlns="http://www.w3.org/2000/svg" xmlns:xlink="http://www.w3.org/1999/xlink" x="0px" y="0px"
	 width="64px" height="64px" viewBox="0 0 64 64" enable-background="new 0 0 64 64" xml:space="preserve">
<g>
	<path fill="#231F20" d="M33.125,20.75c0.762,0,1.5,0.108,2.215,0.325s1.383,0.521,2.004,0.914s1.178,0.87,1.67,1.433
		s0.902,1.189,1.23,1.881c1.055-0.152,2.039-0.064,2.953,0.264s1.708,0.82,2.382,1.477s1.204,1.441,1.591,2.355s0.58,1.881,0.58,2.9
		c0.703,0.598,1.254,1.312,1.652,2.145S50,36.148,50,37.062c0,0.867-0.161,1.676-0.483,2.426s-0.762,1.403-1.318,1.96
		s-1.213,0.996-1.969,1.318s-1.562,0.483-2.417,0.483H20.75c-0.938,0-1.813-0.176-2.628-0.527s-1.529-0.835-2.145-1.45
		s-1.099-1.33-1.45-2.145S14,37.438,14,36.5c0-0.891,0.164-1.737,0.492-2.54s0.782-1.506,1.362-2.109s1.257-1.093,2.03-1.468
		s1.611-0.58,2.514-0.615c0.633-0.703,1.377-1.251,2.232-1.644s1.758-0.601,2.707-0.624c0.129-0.961,0.425-1.854,0.888-2.681
		s1.043-1.541,1.74-2.145s1.488-1.075,2.373-1.415S32.152,20.75,33.125,20.75z M33.125,23c-0.773,0-1.503,0.149-2.188,0.448
		s-1.283,0.703-1.793,1.213s-0.911,1.104-1.204,1.784s-0.439,1.406-0.439,2.18c0,0.293,0.026,0.583,0.079,0.87
		s0.126,0.571,0.22,0.853c-0.352-0.188-0.718-0.334-1.099-0.439s-0.771-0.158-1.169-0.158c-0.832,0-1.614,0.208-2.347,0.624
		s-1.31,0.981-1.731,1.696c-0.68-0.117-1.333-0.079-1.96,0.114s-1.181,0.495-1.661,0.905s-0.864,0.911-1.151,1.503
		S16.25,35.82,16.25,36.5c0,0.621,0.12,1.204,0.36,1.749s0.562,1.02,0.967,1.424s0.879,0.727,1.424,0.967S20.129,41,20.75,41h23.062
		c0.551,0,1.066-0.103,1.547-0.308s0.896-0.483,1.248-0.835s0.63-0.768,0.835-1.248s0.308-0.996,0.308-1.547
		c0-0.809-0.229-1.544-0.686-2.206s-1.061-1.146-1.811-1.45c0.07-0.234,0.129-0.469,0.176-0.703S45.5,32.234,45.5,32
		c0-0.609-0.12-1.189-0.36-1.74s-0.562-1.028-0.967-1.433s-0.882-0.727-1.433-0.967S41.609,27.5,41,27.5
		c-0.41,0-0.809,0.059-1.195,0.176s-0.756,0.275-1.107,0.475c-0.059-0.715-0.246-1.386-0.562-2.013s-0.727-1.175-1.23-1.644
		s-1.078-0.835-1.723-1.099S33.852,23,33.125,23z"/>
</g>
</svg>
