<?xml version="1.0" encoding="utf-8"?>
<!-- Generator: Adobe Illustrator 15.1.0, SVG Export Plug-In . SVG Version: 6.00 Build 0)  -->
<!DOCTYPE svg PUBLIC "-//W3C//DTD SVG 1.0//EN" "http://www.w3.org/TR/2001/REC-SVG-20010904/DTD/svg10.dtd">
<svg version="1.0" id="icon" xmlns="http://www.w3.org/2000/svg" xmlns:xlink="http://www.w3.org/1999/xlink" x="0px" y="0px"
	 width="64px" height="64px" viewBox="0 0 64 64" enable-background="new 0 0 64 64" xml:space="preserve">
<g>
	<path fill="#231F20" d="M32,49.974c-1.395-0.82-2.78-1.696-4.157-2.628s-2.689-1.934-3.938-3.006s-2.408-2.218-3.48-3.437
		s-2.001-2.525-2.786-3.92s-1.4-2.877-1.846-4.447s-0.668-3.24-0.668-5.01v-9c0.973,0,1.916-0.035,2.83-0.105
		s1.805-0.199,2.672-0.387s1.723-0.451,2.566-0.791s1.688-0.779,2.531-1.318c0.996-0.645,1.992-1.122,2.988-1.433
		s2.092-0.466,3.287-0.466c0.598,0,1.166,0.038,1.705,0.114s1.063,0.193,1.573,0.352s1.011,0.357,1.503,0.598
		s0.99,0.519,1.494,0.835c0.844,0.539,1.688,0.979,2.531,1.318s1.699,0.604,2.566,0.791s1.758,0.316,2.672,0.387
		s1.857,0.105,2.83,0.105v9c0,1.77-0.223,3.439-0.668,5.01s-1.061,3.053-1.846,4.447s-1.714,2.701-2.786,3.92
		s-2.232,2.364-3.48,3.437s-2.561,2.074-3.938,3.006S33.395,49.153,32,49.974z M17.375,20.741v6.785
		c0,1.488,0.196,2.918,0.589,4.289s0.929,2.675,1.608,3.911s1.488,2.408,2.426,3.516s1.945,2.15,3.023,3.129
		s2.212,1.884,3.401,2.716s2.382,1.594,3.577,2.285c1.195-0.691,2.388-1.453,3.577-2.285s2.323-1.737,3.401-2.716
		s2.086-2.021,3.023-3.129s1.746-2.279,2.426-3.516s1.216-2.54,1.608-3.911s0.589-2.801,0.589-4.289v-6.785
		c-1.746-0.094-3.419-0.375-5.019-0.844s-3.138-1.178-4.614-2.127c-0.797-0.516-1.591-0.894-2.382-1.134s-1.661-0.36-2.61-0.36
		s-1.819,0.12-2.61,0.36s-1.585,0.618-2.382,1.134c-1.477,0.949-3.015,1.658-4.614,2.127S19.121,20.647,17.375,20.741z
		 M33.125,20.776h-2.25v15.75h2.25V20.776z M33.125,41.026h-2.25v-2.25h2.25V41.026z"/>
</g>
</svg>
