<?xml version="1.0" encoding="utf-8"?>
<!-- Generator: Adobe Illustrator 15.1.0, SVG Export Plug-In . SVG Version: 6.00 Build 0)  -->
<!DOCTYPE svg PUBLIC "-//W3C//DTD SVG 1.0//EN" "http://www.w3.org/TR/2001/REC-SVG-20010904/DTD/svg10.dtd">
<svg version="1.0" id="icon" xmlns="http://www.w3.org/2000/svg" xmlns:xlink="http://www.w3.org/1999/xlink" x="0px" y="0px"
	 width="64px" height="64px" viewBox="0 0 64 64" enable-background="new 0 0 64 64" xml:space="preserve">
<g>
	<path fill="#231F20" d="M34.215,23.167h7.4c-0.832-0.844-1.626-1.664-2.382-2.461s-1.544-1.509-2.364-2.136
		s-1.714-1.131-2.681-1.512s-2.083-0.571-3.349-0.571c-1.371,0-2.666,0.267-3.885,0.8s-2.285,1.257-3.199,2.171
		s-1.638,1.98-2.171,3.199s-0.8,2.514-0.8,3.885c0,1.312,0.252,2.575,0.756,3.788s1.219,2.282,2.145,3.208l14.695,14.713
		l-1.582,1.582L22.086,35.138c-1.137-1.137-2.013-2.452-2.628-3.946s-0.923-3.044-0.923-4.649c0-1.125,0.146-2.209,0.439-3.252
		s0.709-2.021,1.248-2.936s1.184-1.746,1.934-2.496s1.582-1.395,2.496-1.934s1.893-0.955,2.936-1.248s2.127-0.439,3.252-0.439
		c0.984,0,1.884,0.091,2.698,0.272s1.57,0.434,2.268,0.756s1.354,0.709,1.969,1.16s1.219,0.949,1.811,1.494s1.181,1.125,1.767,1.74
		s1.207,1.251,1.863,1.907v-7.4h2.25v11.25h-11.25V23.167z"/>
</g>
</svg>
