<?xml version="1.0" encoding="utf-8"?>
<!-- Generator: Adobe Illustrator 15.1.0, SVG Export Plug-In . SVG Version: 6.00 Build 0)  -->
<!DOCTYPE svg PUBLIC "-//W3C//DTD SVG 1.0//EN" "http://www.w3.org/TR/2001/REC-SVG-20010904/DTD/svg10.dtd">
<svg version="1.0" id="icon" xmlns="http://www.w3.org/2000/svg" xmlns:xlink="http://www.w3.org/1999/xlink" x="0px" y="0px"
	 width="64px" height="64px" viewBox="0 0 64 64" enable-background="new 0 0 64 64" xml:space="preserve">
<g>
	<path fill="#231F20" d="M23,25.25v9h3.305c-0.223,0.352-0.416,0.718-0.58,1.099s-0.316,0.765-0.457,1.151H20.75V23h5.15l6.75-6.75
		h1.6v13.043c-0.387,0.047-0.765,0.114-1.134,0.202s-0.741,0.19-1.116,0.308V20.1l-5.15,5.15H23z M35.375,32
		c1.09,0,2.112,0.205,3.067,0.615s1.79,0.973,2.505,1.688s1.277,1.55,1.688,2.506c0.41,0.955,0.615,1.977,0.615,3.066
		s-0.205,2.113-0.615,3.068s-0.973,1.789-1.688,2.504s-1.55,1.277-2.505,1.688s-1.978,0.615-3.067,0.615s-2.112-0.205-3.067-0.615
		s-1.79-0.973-2.505-1.688s-1.277-1.549-1.688-2.504S27.5,40.965,27.5,39.875s0.205-2.111,0.615-3.066
		c0.41-0.956,0.973-1.791,1.688-2.506s1.55-1.277,2.505-1.688S34.285,32,35.375,32z M29.75,39.875c0,0.773,0.146,1.504,0.439,2.189
		s0.694,1.283,1.204,1.793s1.107,0.91,1.793,1.203s1.415,0.439,2.188,0.439c0.551,0,1.09-0.078,1.617-0.236s1.02-0.391,1.477-0.695
		l-7.787-7.787c-0.305,0.457-0.536,0.949-0.694,1.477S29.75,39.324,29.75,39.875z M40.068,42.969
		c0.305-0.457,0.536-0.949,0.694-1.477S41,40.426,41,39.875c0-0.773-0.149-1.5-0.448-2.18s-0.703-1.273-1.213-1.784
		c-0.51-0.51-1.104-0.914-1.784-1.213s-1.406-0.448-2.18-0.448c-0.551,0-1.09,0.079-1.617,0.237s-1.02,0.39-1.477,0.694
		L40.068,42.969z"/>
</g>
</svg>
