<?xml version="1.0" encoding="utf-8"?>
<!-- Generator: Adobe Illustrator 15.1.0, SVG Export Plug-In . SVG Version: 6.00 Build 0)  -->
<!DOCTYPE svg PUBLIC "-//W3C//DTD SVG 1.0//EN" "http://www.w3.org/TR/2001/REC-SVG-20010904/DTD/svg10.dtd">
<svg version="1.0" id="icon" xmlns="http://www.w3.org/2000/svg" xmlns:xlink="http://www.w3.org/1999/xlink" x="0px" y="0px"
	 width="64px" height="64px" viewBox="0 0 64 64" enable-background="new 0 0 64 64" xml:space="preserve">
<g>
	<path d="M4.75,28.154c0.34,0.002,0.679,0.002,1.02,0.006c0.529,1.913,1.051,3.828,1.582,5.741c0.113,0.401,0.197,0.812,0.248,1.229
		c0.551-2.348,1.306-4.646,1.938-6.976c0.294,0.002,0.589,0.002,0.883,0.003c0.466,1.657,0.901,3.322,1.363,4.98
		c0.17,0.661,0.39,1.313,0.459,1.996c0.5-2.345,1.212-4.644,1.777-6.974c0.334-0.004,0.669-0.004,1.004-0.004
		c-0.729,2.668-1.489,5.328-2.229,7.992h-1.088c-0.535-1.913-1.065-3.829-1.607-5.739c-0.09-0.31-0.128-0.629-0.156-0.949
		c-0.043,0.276-0.082,0.556-0.152,0.825c-0.548,1.948-1.103,3.894-1.635,5.846c-0.362,0.019-0.725,0.021-1.086,0.018
		C6.295,33.485,5.524,30.818,4.75,28.154"/>
	<path d="M15.646,28.219c0.041-0.331,0.343-0.565,0.673-0.523c0.332,0.041,0.565,0.343,0.523,0.674
		c-0.041,0.33-0.343,0.564-0.674,0.523c-0.272-0.035-0.488-0.25-0.522-0.523 M15.781,30.417h0.905v5.73h-0.905"/>
	<path d="M19.094,31.34c0.517-0.922,1.724-1.345,2.696-0.919c0.773,0.302,1.062,1.198,1.087,1.961
		c0.041,1.255,0.007,2.512,0.018,3.766c-0.302,0-0.604,0-0.905-0.002c-0.013-1.205,0.031-2.412-0.021-3.617
		c-0.025-0.598-0.278-1.314-0.929-1.467c-0.948-0.287-1.895,0.567-1.925,1.507c-0.027,1.192-0.002,2.386-0.011,3.579h-0.905
		c0.002-1.91,0.002-3.819,0-5.73h0.906C19.104,30.725,19.103,31.033,19.094,31.34"/>
	<path d="M28.304,27.705c0.302-0.002,0.604-0.002,0.905-0.002v8.445h-0.902c0.002-0.307-0.004-0.612-0.026-0.918
		c-0.652,1.174-2.398,1.433-3.397,0.562c-0.713-0.614-0.93-1.612-0.893-2.516c0.009-0.917,0.311-1.891,1.039-2.49
		c0.949-0.78,2.63-0.736,3.28,0.411C28.298,30.033,28.309,28.87,28.304,27.705 M26.355,31.042c-0.725,0.115-1.214,0.776-1.35,1.46
		c-0.178,0.823-0.146,1.775,0.372,2.476c0.561,0.745,1.8,0.762,2.399,0.058c0.408-0.426,0.525-1.034,0.528-1.605
		c0.004-0.602,0.056-1.28-0.345-1.781C27.609,31.146,26.949,30.92,26.355,31.042"/>
	<path d="M32.729,30.276c0.806-0.071,1.7,0.056,2.307,0.64c0.685,0.632,0.889,1.613,0.852,2.511c-0.011,0.807-0.309,1.626-0.9,2.188
		c-1.234,1.122-3.524,0.877-4.309-0.666c-0.614-1.293-0.49-3.081,0.633-4.063C31.713,30.544,32.223,30.389,32.729,30.276
		 M32.564,31.096c-1.327,0.409-1.552,2.145-1.139,3.286c0.332,1.013,1.619,1.462,2.543,0.989c0.626-0.288,0.911-0.993,0.972-1.641
		c0.068-0.756,0.008-1.612-0.526-2.202C33.962,31.019,33.196,30.91,32.564,31.096"/>
	<path d="M36.264,30.417h0.943c0.374,1.364,0.736,2.732,1.117,4.097c0.077,0.256,0.105,0.521,0.134,0.786
		c0.426-1.644,0.967-3.257,1.45-4.885l0.824,0.005c0.416,1.629,0.932,3.233,1.274,4.879c0.355-1.637,0.857-3.236,1.253-4.864
		c0.303-0.015,0.605-0.02,0.91-0.022c-0.575,1.912-1.125,3.828-1.703,5.735h-0.938c-0.407-1.553-0.936-3.077-1.265-4.646
		c-0.394,1.568-0.94,3.096-1.391,4.646h-0.906C37.402,34.238,36.822,32.332,36.264,30.417"/>
	<path d="M46.45,30.273c0.566-0.039,1.141,0.015,1.673,0.223c0.148,0.281,0.034,0.649,0.068,0.964
		c-0.634-0.396-1.51-0.65-2.198-0.245c-0.472,0.256-0.494,1.014-0.034,1.297c0.658,0.427,1.496,0.538,2.08,1.086
		c0.646,0.623,0.489,1.817-0.266,2.283c-0.919,0.585-2.129,0.527-3.09,0.081c0-0.339-0.002-0.676-0.008-1.014
		c0.685,0.521,1.646,0.812,2.465,0.44c0.479-0.24,0.502-0.975,0.081-1.283c-0.658-0.485-1.562-0.562-2.146-1.168
		c-0.578-0.583-0.474-1.653,0.17-2.147C45.579,30.484,46.03,30.392,46.45,30.273"/>
	<path d="M52.755,28.027c0.08-0.011,0.24-0.032,0.318-0.043c0.004,2.721,0.001,5.442,0.001,8.164h-0.893
		c0.008-2.266-0.015-4.531,0.012-6.797c-0.569,0.394-1.183,0.73-1.851,0.917c0.004-0.302,0.007-0.604,0.01-0.904
		C51.229,29.066,52.023,28.587,52.755,28.027"/>
	<path d="M56.373,28.024c0.785-0.13,1.654,0.155,2.12,0.822c0.662,0.936,0.725,2.135,0.757,3.239
		c-0.022,1.168-0.15,2.433-0.895,3.384c-0.688,0.9-2.092,1.111-3.012,0.449c-0.746-0.538-1.039-1.477-1.172-2.348
		c-0.151-1.292-0.138-2.647,0.312-3.882C54.768,28.852,55.467,28.131,56.373,28.024 M56.234,28.834
		c-0.803,0.325-1.034,1.275-1.146,2.047c-0.116,1.078-0.145,2.187,0.112,3.247c0.128,0.521,0.398,1.076,0.916,1.306
		c0.587,0.295,1.37,0.039,1.679-0.538c0.494-0.854,0.506-1.875,0.512-2.833c-0.02-0.933-0.058-1.938-0.573-2.75
		C57.427,28.819,56.768,28.62,56.234,28.834"/>
</g>
</svg>
