<?xml version="1.0" encoding="utf-8"?>
<!-- Generator: Adobe Illustrator 15.1.0, SVG Export Plug-In . SVG Version: 6.00 Build 0)  -->
<!DOCTYPE svg PUBLIC "-//W3C//DTD SVG 1.0//EN" "http://www.w3.org/TR/2001/REC-SVG-20010904/DTD/svg10.dtd">
<svg version="1.0" id="icon" xmlns="http://www.w3.org/2000/svg" xmlns:xlink="http://www.w3.org/1999/xlink" x="0px" y="0px"
	 width="64px" height="64px" viewBox="0 0 64 64" enable-background="new 0 0 64 64" xml:space="preserve">
<g>
	<path fill="#231F20" d="M45.5,41v2.25h-9c0,0.621-0.117,1.204-0.352,1.749s-0.557,1.022-0.967,1.433s-0.888,0.732-1.433,0.967
		S32.621,47.75,32,47.75s-1.204-0.117-1.749-0.352s-1.022-0.557-1.433-0.967s-0.732-0.888-0.967-1.433S27.5,43.871,27.5,43.25h-9V41
		h2.25V27.5c0-1.031,0.135-2.027,0.404-2.988s0.647-1.857,1.134-2.689s1.072-1.591,1.758-2.276s1.444-1.271,2.276-1.758
		s1.729-0.864,2.689-1.134S30.969,16.25,32,16.25s2.027,0.135,2.988,0.404s1.857,0.647,2.689,1.134s1.591,1.072,2.276,1.758
		s1.271,1.444,1.758,2.276s0.864,1.729,1.134,2.689s0.404,1.957,0.404,2.988V41H45.5z M41,41V27.5c0-1.242-0.237-2.408-0.712-3.498
		s-1.119-2.042-1.934-2.856s-1.767-1.459-2.856-1.934S33.242,18.5,32,18.5s-2.408,0.237-3.498,0.712s-2.042,1.119-2.856,1.934
		s-1.459,1.767-1.934,2.856S23,26.258,23,27.5V41H41z M32,45.5c0.316,0,0.609-0.059,0.879-0.176s0.507-0.278,0.712-0.483
		s0.366-0.442,0.483-0.712s0.176-0.562,0.176-0.879h-4.5c0,0.316,0.059,0.609,0.176,0.879s0.278,0.507,0.483,0.712
		s0.442,0.366,0.712,0.483S31.684,45.5,32,45.5z"/>
</g>
</svg>
