<?xml version="1.0" encoding="utf-8"?>
<!-- Generator: Adobe Illustrator 15.1.0, SVG Export Plug-In . SVG Version: 6.00 Build 0)  -->
<!DOCTYPE svg PUBLIC "-//W3C//DTD SVG 1.0//EN" "http://www.w3.org/TR/2001/REC-SVG-20010904/DTD/svg10.dtd">
<svg version="1.0" id="icon" xmlns="http://www.w3.org/2000/svg" xmlns:xlink="http://www.w3.org/1999/xlink" x="0px" y="0px"
	 width="64px" height="64px" viewBox="0 0 64 64" enable-background="new 0 0 64 64" xml:space="preserve">
<g>
	<path fill="#231F20" d="M50,19.889c0,0.773-0.146,1.523-0.439,2.25s-0.721,1.371-1.283,1.934l-23.15,23.15L14,50l2.777-11.127
		l23.15-23.15c0.562-0.562,1.207-0.99,1.934-1.283S43.338,14,44.111,14c0.809,0,1.57,0.155,2.285,0.466s1.339,0.732,1.872,1.266
		s0.955,1.157,1.266,1.872S50,19.08,50,19.889z M17.094,46.906l5.783-1.441c-0.117-0.539-0.308-1.049-0.571-1.529
		s-0.583-0.908-0.958-1.283s-0.803-0.694-1.283-0.958s-0.99-0.454-1.529-0.571L17.094,46.906z M19.73,39.102
		c1.242,0.41,2.312,1.063,3.208,1.96s1.55,1.966,1.96,3.208L43.9,25.25l-5.15-5.15L19.73,39.102z M45.5,23.65
		c0.293-0.293,0.574-0.568,0.844-0.826s0.51-0.53,0.721-0.817s0.378-0.598,0.501-0.932s0.185-0.724,0.185-1.169
		c0-0.504-0.097-0.976-0.29-1.415s-0.457-0.826-0.791-1.16s-0.721-0.598-1.16-0.791s-0.911-0.29-1.415-0.29
		c-0.445,0-0.835,0.062-1.169,0.185s-0.645,0.29-0.932,0.501s-0.56,0.451-0.817,0.721s-0.533,0.551-0.826,0.844L45.5,23.65z"/>
</g>
</svg>
