<?xml version="1.0" encoding="utf-8"?>
<!-- Generator: Adobe Illustrator 15.1.0, SVG Export Plug-In . SVG Version: 6.00 Build 0)  -->
<!DOCTYPE svg PUBLIC "-//W3C//DTD SVG 1.0//EN" "http://www.w3.org/TR/2001/REC-SVG-20010904/DTD/svg10.dtd">
<svg version="1.0" id="icon" xmlns="http://www.w3.org/2000/svg" xmlns:xlink="http://www.w3.org/1999/xlink" x="0px" y="0px"
	 width="64px" height="64px" viewBox="0 0 64 64" enable-background="new 0 0 64 64" xml:space="preserve">
<g>
	<path fill="#231F20" d="M37.713,36.5c-0.527-0.727-1.131-1.371-1.811-1.934s-1.409-1.034-2.188-1.415s-1.6-0.668-2.461-0.861
		S29.516,32,28.625,32c-1.57,0-3.041,0.29-4.412,0.87s-2.563,1.377-3.577,2.391s-1.811,2.206-2.391,3.577s-0.87,2.842-0.87,4.412
		h-2.25c0-1.406,0.205-2.766,0.615-4.078s0.996-2.522,1.758-3.63s1.679-2.083,2.751-2.927s2.276-1.512,3.612-2.004
		c-0.645-0.41-1.228-0.894-1.749-1.45s-0.967-1.163-1.336-1.819s-0.653-1.351-0.853-2.083S19.625,23.773,19.625,23
		c0-1.242,0.237-2.408,0.712-3.498s1.119-2.042,1.934-2.856s1.767-1.459,2.856-1.934S27.383,14,28.625,14s2.408,0.237,3.498,0.712
		s2.042,1.119,2.856,1.934s1.459,1.767,1.934,2.856s0.712,2.256,0.712,3.498c0,0.773-0.1,1.526-0.299,2.259
		s-0.483,1.427-0.853,2.083s-0.814,1.263-1.336,1.819s-1.104,1.04-1.749,1.45c1.465,0.539,2.795,1.315,3.99,2.329
		s2.18,2.2,2.953,3.56H37.713z M21.875,23c0,0.926,0.179,1.799,0.536,2.619s0.841,1.535,1.45,2.145s1.324,1.093,2.145,1.45
		s1.693,0.536,2.619,0.536s1.799-0.179,2.619-0.536s1.535-0.841,2.145-1.45s1.093-1.324,1.45-2.145s0.536-1.693,0.536-2.619
		s-0.179-1.799-0.536-2.619s-0.841-1.535-1.45-2.145s-1.324-1.093-2.145-1.45s-1.693-0.536-2.619-0.536s-1.799,0.179-2.619,0.536
		s-1.535,0.841-2.145,1.45s-1.093,1.324-1.45,2.145S21.875,22.074,21.875,23z M48.875,38.75V50h-11.25V38.75H48.875z M46.625,41
		h-6.75v6.75h6.75V41z"/>
</g>
</svg>
