<?xml version="1.0" encoding="utf-8"?>
<!-- Generator: Adobe Illustrator 15.1.0, SVG Export Plug-In . SVG Version: 6.00 Build 0)  -->
<!DOCTYPE svg PUBLIC "-//W3C//DTD SVG 1.0//EN" "http://www.w3.org/TR/2001/REC-SVG-20010904/DTD/svg10.dtd">
<svg version="1.0" id="icon" xmlns="http://www.w3.org/2000/svg" xmlns:xlink="http://www.w3.org/1999/xlink" x="0px" y="0px"
	 width="64px" height="64px" viewBox="0 0 64 64" enable-background="new 0 0 64 64" xml:space="preserve">
<g>
	<path fill="#231F20" d="M21.875,33.125h-6.75v-2.25h6.75V33.125z M24.037,25.637l-4.764-4.781l1.582-1.582l4.781,4.764
		L24.037,25.637z M24.037,38.363l1.6,1.6l-4.781,4.764l-1.582-1.582L24.037,38.363z M32,24.125c1.09,0,2.112,0.208,3.067,0.624
		s1.787,0.979,2.496,1.688s1.271,1.541,1.688,2.496S39.875,30.91,39.875,32s-0.208,2.112-0.624,3.067s-0.979,1.787-1.688,2.496
		s-1.541,1.271-2.496,1.688S33.09,39.875,32,39.875s-2.112-0.208-3.067-0.624s-1.787-0.979-2.496-1.688s-1.271-1.541-1.688-2.496
		S24.125,33.09,24.125,32s0.208-2.112,0.624-3.067s0.979-1.787,1.688-2.496s1.541-1.271,2.496-1.688S30.91,24.125,32,24.125z
		 M32,37.625c0.773,0,1.5-0.149,2.18-0.448s1.274-0.703,1.784-1.213s0.914-1.104,1.213-1.784s0.448-1.406,0.448-2.18
		s-0.149-1.5-0.448-2.18s-0.703-1.274-1.213-1.784s-1.104-0.914-1.784-1.213s-1.406-0.448-2.18-0.448s-1.5,0.149-2.18,0.448
		s-1.274,0.703-1.784,1.213s-0.914,1.104-1.213,1.784s-0.448,1.406-0.448,2.18s0.149,1.5,0.448,2.18s0.703,1.274,1.213,1.784
		s1.104,0.914,1.784,1.213S31.227,37.625,32,37.625z M33.125,21.875h-2.25v-6.75h2.25V21.875z M30.875,42.125h2.25v6.75h-2.25
		V42.125z M39.963,25.637l-1.6-1.6l4.781-4.764l1.582,1.582L39.963,25.637z M39.963,38.363l4.764,4.781l-1.582,1.582l-4.781-4.764
		L39.963,38.363z M48.875,30.875v2.25h-6.75v-2.25H48.875z"/>
</g>
</svg>
