<?xml version="1.0" encoding="utf-8"?>
<!-- Generator: Adobe Illustrator 15.1.0, SVG Export Plug-In . SVG Version: 6.00 Build 0)  -->
<!DOCTYPE svg PUBLIC "-//W3C//DTD SVG 1.0//EN" "http://www.w3.org/TR/2001/REC-SVG-20010904/DTD/svg10.dtd">
<svg version="1.0" id="icon" xmlns="http://www.w3.org/2000/svg" xmlns:xlink="http://www.w3.org/1999/xlink" x="0px" y="0px"
	 width="64px" height="64px" viewBox="0 0 64 64" enable-background="new 0 0 64 64" xml:space="preserve">
<g>
	<path fill="#231F20" d="M37.625,14c1.137,0,2.232,0.146,3.287,0.439s2.039,0.709,2.953,1.248s1.748,1.187,2.504,1.942
		s1.404,1.591,1.943,2.505s0.955,1.898,1.248,2.953S50,25.238,50,26.375s-0.146,2.232-0.439,3.287s-0.709,2.039-1.248,2.953
		s-1.188,1.749-1.943,2.505s-1.59,1.403-2.504,1.942s-1.898,0.955-2.953,1.248s-2.15,0.439-3.287,0.439
		c-1.465,0-2.868-0.246-4.21-0.738s-2.575-1.201-3.7-2.127L15.916,49.666C15.693,49.889,15.43,50,15.125,50
		s-0.568-0.111-0.791-0.334S14,49.18,14,48.875s0.111-0.568,0.334-0.791l13.781-13.799c-0.926-1.125-1.635-2.358-2.127-3.7
		s-0.738-2.745-0.738-4.21c0-1.137,0.146-2.232,0.439-3.287s0.709-2.039,1.248-2.953s1.187-1.749,1.942-2.505
		s1.591-1.403,2.505-1.942s1.898-0.955,2.953-1.248S36.488,14,37.625,14z M37.625,36.5c1.395,0,2.707-0.267,3.938-0.8
		s2.303-1.257,3.217-2.171s1.637-1.986,2.17-3.217s0.801-2.543,0.801-3.938s-0.268-2.707-0.801-3.938s-1.256-2.303-2.17-3.217
		s-1.986-1.638-3.217-2.171s-2.543-0.8-3.938-0.8s-2.707,0.267-3.938,0.8s-2.303,1.257-3.217,2.171s-1.638,1.986-2.171,3.217
		s-0.8,2.543-0.8,3.938s0.267,2.707,0.8,3.938s1.257,2.303,2.171,3.217s1.986,1.638,3.217,2.171S36.23,36.5,37.625,36.5z"/>
</g>
</svg>
