<?xml version="1.0" encoding="utf-8"?>
<!-- Generator: Adobe Illustrator 15.1.0, SVG Export Plug-In . SVG Version: 6.00 Build 0)  -->
<!DOCTYPE svg PUBLIC "-//W3C//DTD SVG 1.0//EN" "http://www.w3.org/TR/2001/REC-SVG-20010904/DTD/svg10.dtd">
<svg version="1.0" id="icon" xmlns="http://www.w3.org/2000/svg" xmlns:xlink="http://www.w3.org/1999/xlink" x="0px" y="0px"
	 width="64px" height="64px" viewBox="0 0 64 64" enable-background="new 0 0 64 64" xml:space="preserve">
<g>
	<path fill="#231F20" d="M42.283,31.438c-1.465,0-2.839,0.258-4.122,0.773s-2.408,1.233-3.375,2.153s-1.743,2.01-2.329,3.27
		s-0.914,2.634-0.984,4.122L20.75,50l4.359-13.957L14,27.5h13.781L32,14l4.219,13.5H50l-5.502,4.219
		c-0.363-0.082-0.729-0.149-1.099-0.202S42.658,31.438,42.283,31.438z M42.125,34.25c1.09,0,2.112,0.208,3.067,0.624
		s1.787,0.979,2.496,1.688s1.271,1.541,1.688,2.496S50,41.035,50,42.125s-0.208,2.112-0.624,3.067s-0.979,1.787-1.688,2.496
		s-1.541,1.271-2.496,1.688S43.215,50,42.125,50s-2.112-0.208-3.067-0.624s-1.787-0.979-2.496-1.688s-1.271-1.541-1.688-2.496
		s-0.624-1.978-0.624-3.067s0.208-2.112,0.624-3.067s0.979-1.787,1.688-2.496s1.541-1.271,2.496-1.688S41.035,34.25,42.125,34.25z
		 M36.5,42.125c0,0.773,0.149,1.5,0.448,2.18s0.703,1.274,1.213,1.784s1.104,0.914,1.784,1.213s1.406,0.448,2.18,0.448
		c0.551,0,1.09-0.079,1.617-0.237s1.02-0.39,1.477-0.694l-7.787-7.787c-0.305,0.457-0.536,0.949-0.694,1.477
		S36.5,41.574,36.5,42.125z M46.818,45.219c0.305-0.457,0.536-0.949,0.694-1.477s0.237-1.066,0.237-1.617
		c0-0.773-0.149-1.5-0.448-2.18s-0.703-1.274-1.213-1.784s-1.104-0.914-1.784-1.213s-1.406-0.448-2.18-0.448
		c-0.551,0-1.09,0.079-1.617,0.237s-1.02,0.39-1.477,0.694L46.818,45.219z"/>
</g>
</svg>
