<?xml version="1.0" encoding="utf-8"?>
<!-- Generator: Adobe Illustrator 15.1.0, SVG Export Plug-In . SVG Version: 6.00 Build 0)  -->
<!DOCTYPE svg PUBLIC "-//W3C//DTD SVG 1.0//EN" "http://www.w3.org/TR/2001/REC-SVG-20010904/DTD/svg10.dtd">
<svg version="1.0" id="icon" xmlns="http://www.w3.org/2000/svg" xmlns:xlink="http://www.w3.org/1999/xlink" x="0px" y="0px"
	 width="64px" height="64px" viewBox="0 0 64 64" enable-background="new 0 0 64 64" xml:space="preserve">
<g>
	<path fill="#231F20" d="M35.832,14.009c0.305,0,0.595,0.053,0.87,0.158s0.519,0.264,0.729,0.475L49.35,26.56
		c0.211,0.211,0.372,0.454,0.483,0.729S50,27.854,50,28.159c0,0.293-0.056,0.577-0.167,0.853s-0.272,0.519-0.483,0.729l-6.152,6.152
		c-0.094-0.867-0.334-1.693-0.721-2.479l5.273-5.273l-11.9-11.9l-19.6,19.582l11.25,11.25v2.777
		c-0.176-0.059-0.343-0.129-0.501-0.211s-0.302-0.188-0.431-0.316l-11.918-11.9c-0.211-0.211-0.372-0.454-0.483-0.729
		S14,36.134,14,35.841c0-0.305,0.056-0.595,0.167-0.87s0.272-0.519,0.483-0.729l19.6-19.6c0.211-0.211,0.454-0.369,0.729-0.475
		S35.539,14.009,35.832,14.009z M22.771,37.845l1.582-1.6l3.375,3.393l-1.582,1.582L22.771,37.845z M36.5,31.991
		c0.609,0,1.189,0.12,1.74,0.36s1.028,0.562,1.433,0.967s0.727,0.882,0.967,1.433S41,35.882,41,36.491v2.25h2.25v11.25h-13.5v-11.25
		H32v-2.25c0-0.609,0.12-1.189,0.36-1.74s0.562-1.028,0.967-1.433s0.879-0.727,1.424-0.967S35.879,31.991,36.5,31.991z M41,40.991
		h-9v6.75h9V40.991z M34.25,38.741h4.5v-2.25c0-0.305-0.059-0.595-0.176-0.87s-0.278-0.516-0.483-0.721s-0.445-0.366-0.721-0.483
		s-0.565-0.176-0.87-0.176c-0.316,0-0.609,0.059-0.879,0.176s-0.507,0.278-0.712,0.483s-0.366,0.442-0.483,0.712
		s-0.176,0.562-0.176,0.879V38.741z"/>
</g>
</svg>
