<?xml version="1.0" encoding="utf-8"?>
<!-- Generator: Adobe Illustrator 15.1.0, SVG Export Plug-In . SVG Version: 6.00 Build 0)  -->
<!DOCTYPE svg PUBLIC "-//W3C//DTD SVG 1.0//EN" "http://www.w3.org/TR/2001/REC-SVG-20010904/DTD/svg10.dtd">
<svg version="1.0" id="icon" xmlns="http://www.w3.org/2000/svg" xmlns:xlink="http://www.w3.org/1999/xlink" x="0px" y="0px"
	 width="64px" height="64px" viewBox="0 0 64 64" enable-background="new 0 0 64 64" xml:space="preserve">
<g>
	<path fill="#231F20" d="M39.875,20.75v21.375c0,1.09-0.208,2.113-0.624,3.068s-0.979,1.787-1.688,2.496s-1.541,1.271-2.496,1.688
		S33.09,50,32,50s-2.112-0.207-3.067-0.623s-1.787-0.979-2.496-1.688s-1.271-1.541-1.688-2.496s-0.624-1.979-0.624-3.068v-22.5
		c0-0.773,0.149-1.5,0.448-2.18s0.703-1.274,1.213-1.784s1.104-0.914,1.784-1.213S28.977,14,29.75,14s1.5,0.149,2.18,0.448
		s1.274,0.703,1.784,1.213s0.914,1.104,1.213,1.784s0.448,1.406,0.448,2.18v22.5c0,0.469-0.088,0.908-0.264,1.318
		s-0.416,0.768-0.721,1.072s-0.662,0.545-1.072,0.721S32.469,45.5,32,45.5s-0.908-0.088-1.318-0.264s-0.768-0.416-1.072-0.721
		s-0.545-0.662-0.721-1.072s-0.264-0.85-0.264-1.318V23h2.25v19.125c0,0.305,0.111,0.568,0.334,0.791S31.695,43.25,32,43.25
		s0.568-0.111,0.791-0.334s0.334-0.486,0.334-0.791v-22.5c0-0.469-0.088-0.908-0.264-1.318s-0.416-0.768-0.721-1.072
		s-0.662-0.545-1.072-0.721s-0.85-0.264-1.318-0.264s-0.908,0.088-1.318,0.264s-0.768,0.416-1.072,0.721s-0.545,0.662-0.721,1.072
		s-0.264,0.85-0.264,1.318v22.5c0,0.773,0.149,1.5,0.448,2.18s0.703,1.275,1.213,1.785s1.104,0.914,1.784,1.213
		S31.227,47.75,32,47.75s1.5-0.148,2.18-0.447s1.274-0.703,1.784-1.213s0.914-1.105,1.213-1.785s0.448-1.406,0.448-2.18V20.75
		H39.875z"/>
</g>
</svg>
