<?xml version="1.0" encoding="utf-8"?>
<!-- Generator: Adobe Illustrator 15.1.0, SVG Export Plug-In . SVG Version: 6.00 Build 0)  -->
<!DOCTYPE svg PUBLIC "-//W3C//DTD SVG 1.0//EN" "http://www.w3.org/TR/2001/REC-SVG-20010904/DTD/svg10.dtd">
<svg version="1.0" id="icon" xmlns="http://www.w3.org/2000/svg" xmlns:xlink="http://www.w3.org/1999/xlink" x="0px" y="0px"
	 width="64px" height="64px" viewBox="0 0 64 64" enable-background="new 0 0 64 64" xml:space="preserve">
<g>
	<path fill="#231F20" d="M46.625,23v22.5c0,0.621-0.12,1.204-0.36,1.749s-0.562,1.02-0.967,1.424s-0.882,0.727-1.433,0.967
		S42.734,50,42.125,50h-20.25c-0.621,0-1.204-0.12-1.749-0.36s-1.02-0.562-1.424-0.967s-0.727-0.879-0.967-1.424
		s-0.36-1.128-0.36-1.749V23h4.5v-2.25c0-0.926,0.179-1.799,0.536-2.619s0.841-1.535,1.45-2.145s1.324-1.093,2.145-1.45
		S27.699,14,28.625,14c1.219,0,2.35,0.305,3.393,0.914C33.061,14.305,34.18,14,35.375,14c0.926,0,1.799,0.179,2.619,0.536
		s1.535,0.841,2.145,1.45s1.093,1.324,1.45,2.145s0.536,1.693,0.536,2.619V23H46.625z M38.223,47.75
		c-0.398-0.703-0.598-1.453-0.598-2.25V25.25h-18V45.5c0,0.316,0.059,0.609,0.176,0.879s0.278,0.507,0.483,0.712
		s0.442,0.366,0.712,0.483s0.562,0.176,0.879,0.176H38.223z M24.125,23h9v-2.25c0-0.609-0.12-1.189-0.36-1.74
		s-0.562-1.028-0.967-1.433s-0.882-0.727-1.433-0.967s-1.131-0.36-1.74-0.36c-0.621,0-1.204,0.12-1.749,0.36
		s-1.02,0.562-1.424,0.967s-0.727,0.882-0.967,1.433s-0.36,1.131-0.36,1.74V23z M39.875,20.75c0-0.609-0.12-1.189-0.36-1.74
		s-0.562-1.028-0.967-1.433s-0.882-0.727-1.433-0.967s-1.131-0.36-1.74-0.36c-0.527,0-1.025,0.088-1.494,0.264
		c0.422,0.527,0.738,1.043,0.949,1.547s0.354,1.014,0.431,1.529s0.114,1.052,0.114,1.608s0,1.157,0,1.802h4.5V20.75z M44.375,25.25
		h-4.5V45.5c0,0.316,0.059,0.609,0.176,0.879s0.278,0.507,0.483,0.712s0.442,0.366,0.712,0.483s0.562,0.176,0.879,0.176
		s0.609-0.059,0.879-0.176s0.507-0.278,0.712-0.483s0.366-0.442,0.483-0.712s0.176-0.562,0.176-0.879V25.25z"/>
</g>
</svg>
