<?xml version="1.0" encoding="utf-8"?>
<!-- Generator: Adobe Illustrator 15.1.0, SVG Export Plug-In . SVG Version: 6.00 Build 0)  -->
<!DOCTYPE svg PUBLIC "-//W3C//DTD SVG 1.1//EN" "http://www.w3.org/Graphics/SVG/1.1/DTD/svg11.dtd">
<svg version="1.1" id="icon" xmlns="http://www.w3.org/2000/svg" xmlns:xlink="http://www.w3.org/1999/xlink" x="0px" y="0px"
	 width="64px" height="64px" viewBox="0 0 64 64" enable-background="new 0 0 64 64" xml:space="preserve">
<g>
	<path fill="#231F20" d="M43.001,29.569c0,1.359-0.237,2.656-0.712,3.892c-0.475,1.236-1.13,2.341-1.965,3.315
		c-0.834,0.974-1.829,1.784-2.983,2.431c-1.154,0.647-2.41,1.061-3.77,1.24V50h-3.143v-9.553c-1.359-0.18-2.615-0.593-3.77-1.24
		c-1.154-0.646-2.149-1.457-2.983-2.431c-0.835-0.975-1.49-2.079-1.965-3.315c-0.475-1.236-0.712-2.533-0.712-3.892
		c0-1.473,0.278-2.881,0.835-4.224s1.351-2.529,2.382-3.561L32,14l7.784,7.785c1.031,1.031,1.825,2.218,2.382,3.561
		S43.001,28.096,43.001,29.569z M24.142,29.569c0,0.933,0.156,1.825,0.467,2.677c0.312,0.851,0.745,1.617,1.302,2.295
		c0.557,0.68,1.22,1.257,1.989,1.731c0.77,0.476,1.612,0.811,2.529,1.007V24.854h3.143v12.425c0.917-0.196,1.76-0.531,2.529-1.007
		c0.77-0.475,1.433-1.052,1.989-1.731c0.557-0.679,0.99-1.444,1.302-2.295c0.311-0.852,0.467-1.744,0.467-2.677
		c0-1.081-0.196-2.083-0.59-3.008c-0.393-0.925-0.966-1.772-1.719-2.542L32,18.445l-5.55,5.574c-0.753,0.77-1.326,1.617-1.719,2.542
		C24.338,27.486,24.142,28.488,24.142,29.569z"/>
</g>
</svg>
