<?xml version="1.0" encoding="utf-8"?>
<!-- Generator: Adobe Illustrator 15.1.0, SVG Export Plug-In . SVG Version: 6.00 Build 0)  -->
<!DOCTYPE svg PUBLIC "-//W3C//DTD SVG 1.0//EN" "http://www.w3.org/TR/2001/REC-SVG-20010904/DTD/svg10.dtd">
<svg version="1.0" id="icon" xmlns="http://www.w3.org/2000/svg" xmlns:xlink="http://www.w3.org/1999/xlink" x="0px" y="0px"
	 width="64px" height="64px" viewBox="0 0 64 64" enable-background="new 0 0 64 64" xml:space="preserve">
<g>
	<path fill-rule="evenodd" clip-rule="evenodd" d="M28.048,14c0.122,0,0.244,0,0.365,0c1.875,0.104,3.187,0.87,4.12,1.928
		c0.936,1.061,1.564,2.506,1.552,4.495c0.203-0.019,0.408-0.062,0.609-0.102c0.596-0.119,1.207-0.255,1.816-0.365
		c0.002-0.008,0.01-0.01,0.01-0.021c-0.281-1.69-1.108-2.811-2.375-3.511c-0.188-0.104-0.391-0.189-0.609-0.273
		c-0.073-0.028-0.118-0.062-0.183-0.112c-0.453-0.348-0.888-0.678-1.329-1.015c0-0.015-0.043-0.032,0-0.03
		c1.586,0.067,2.745,0.651,3.612,1.451c0.867,0.801,1.507,1.894,1.725,3.328c1.389-0.262,2.755-0.547,4.13-0.822
		c1.003,0.575,2.033,1.153,3.064,1.745c0.134,0.077,0.316,0.208,0.456,0.224c0.234,0.026,0.474,0.018,0.711,0.03
		c0.686,0.038,1.373,0.078,2.09,0.111c0,8.846,0,17.688,0,26.534c-2.103,0.803-4.217,1.594-6.312,2.404c-0.01,0-0.02,0-0.03,0
		c-8.416-1.72-16.874-3.398-25.285-5.124c0-6.95,0-13.901,0-20.852c1.693-0.336,3.379-0.68,5.073-1.015
		c-0.276-1.185-0.14-2.55,0.152-3.562c0.3-1.041,0.798-1.924,1.37-2.658c0.587-0.753,1.297-1.383,2.151-1.877S26.8,14.051,28.048,14
		z M31.863,16.486c-0.426-0.479-0.933-0.879-1.572-1.178c-0.638-0.297-1.405-0.489-2.313-0.446c-1.052,0.05-1.976,0.397-2.709,0.843
		c-0.739,0.448-1.348,1.003-1.856,1.664c-0.521,0.676-0.918,1.441-1.177,2.344c-0.259,0.901-0.377,2.053-0.132,3.125
		c0.822-0.159,1.631-0.331,2.456-0.487c0.034-1.951,0.693-3.358,1.573-4.484c0.875-1.121,2.055-2.015,3.531-2.527
		c0.275,0.187,0.601,0.365,0.883,0.538c0.042,0.026,0.101,0.06,0.102,0.092c-1.538,0.333-2.718,1.115-3.592,2.131
		c-0.431,0.5-0.829,1.08-1.116,1.745c-0.29,0.669-0.505,1.441-0.507,2.333c2.585-0.529,5.185-1.044,7.782-1.562
		C33.293,18.754,32.731,17.461,31.863,16.486z M27.571,28.977c0,1.785,0,3.571,0,5.357c2.459,0,4.918,0,7.377,0
		c0-2.053,0-4.159,0-6.2c0-0.061,0.024-0.161-0.031-0.172C32.472,28.304,30.017,28.635,27.571,28.977z M21.696,29.859
		c0,1.491,0,2.982,0,4.475c1.816,0,3.632,0,5.449,0c-0.007-1.701,0.009-3.446,0-5.135c0-0.054,0.017-0.132-0.021-0.152
		C25.318,29.32,23.502,29.586,21.696,29.859z M21.696,34.729c0,1.488,0,2.977,0,4.465c1.814,0.263,3.63,0.522,5.449,0.781
		c0-1.759,0-3.518,0-5.276c-1.813,0-3.626,0-5.438,0C21.694,34.701,21.695,34.715,21.696,34.729z M27.571,34.729
		c0,1.782,0,3.564,0,5.348c2.458,0.359,4.914,0.721,7.377,1.075c-0.007-2.147,0.013-4.322-0.01-6.453c-2.449,0-4.897,0-7.346,0
		C27.579,34.703,27.571,34.712,27.571,34.729z"/>
</g>
</svg>
