<?xml version="1.0" encoding="utf-8"?>
<!-- Generator: Adobe Illustrator 15.1.0, SVG Export Plug-In . SVG Version: 6.00 Build 0)  -->
<!DOCTYPE svg PUBLIC "-//W3C//DTD SVG 1.0//EN" "http://www.w3.org/TR/2001/REC-SVG-20010904/DTD/svg10.dtd">
<svg version="1.0" id="icon" xmlns="http://www.w3.org/2000/svg" xmlns:xlink="http://www.w3.org/1999/xlink" x="0px" y="0px"
	 width="64px" height="64px" viewBox="0 0 64 64" enable-background="new 0 0 64 64" xml:space="preserve">
<g>
	<path fill="#231F20" d="M14.026,32.026c0.129-1.547,0.489-3.035,1.081-4.465s1.392-2.736,2.399-3.92l1.582,1.6
		c-0.809,0.961-1.447,2.021-1.916,3.182s-0.768,2.361-0.896,3.604H14.026z M17.507,42.661c-1.008-1.184-1.808-2.49-2.399-3.92
		s-0.952-2.918-1.081-4.465h2.25c0.129,1.242,0.428,2.443,0.896,3.604s1.107,2.221,1.916,3.182L17.507,42.661z M19.089,22.06
		c1.184-1.008,2.49-1.808,3.92-2.399s2.918-0.952,4.465-1.081v2.25c-1.242,0.129-2.443,0.428-3.604,0.896s-2.221,1.107-3.182,1.916
		L19.089,22.06z M27.474,47.724c-1.547-0.129-3.035-0.489-4.465-1.081s-2.736-1.392-3.92-2.399l1.6-1.582
		c0.961,0.809,2.021,1.447,3.182,1.916s2.361,0.768,3.604,0.896V47.724z M31.974,16.276v13.5h3.375l-4.5,4.5l-4.5-4.5h3.375v-13.5
		H31.974z M38.108,44.243c-1.184,1.008-2.49,1.808-3.92,2.399s-2.918,0.952-4.465,1.081v-2.25c1.242-0.129,2.443-0.428,3.604-0.896
		s2.221-1.107,3.182-1.916L38.108,44.243z M45.474,35.401v-3.375H36.28l2.25-2.25h6.943v-3.375l4.5,4.5L45.474,35.401z
		 M43.171,34.276c-0.129,1.547-0.489,3.035-1.081,4.465s-1.392,2.736-2.399,3.92l-1.582-1.6c0.809-0.961,1.447-2.021,1.916-3.182
		s0.768-2.361,0.896-3.604H43.171z"/>
</g>
</svg>
