<?xml version="1.0" encoding="utf-8"?>
<!-- Generator: Adobe Illustrator 15.1.0, SVG Export Plug-In . SVG Version: 6.00 Build 0)  -->
<!DOCTYPE svg PUBLIC "-//W3C//DTD SVG 1.0//EN" "http://www.w3.org/TR/2001/REC-SVG-20010904/DTD/svg10.dtd">
<svg version="1.0" id="icon" xmlns="http://www.w3.org/2000/svg" xmlns:xlink="http://www.w3.org/1999/xlink" x="0px" y="0px"
	 width="64px" height="64px" viewBox="0 0 64 64" enable-background="new 0 0 64 64" xml:space="preserve">
<g>
	<path fill="#231F20" d="M32,14c1.652,0,3.246,0.214,4.781,0.642s2.971,1.031,4.307,1.811s2.552,1.717,3.647,2.812
		s2.033,2.312,2.812,3.647s1.383,2.771,1.811,4.307S50,30.348,50,32s-0.214,3.246-0.642,4.781s-1.031,2.971-1.811,4.307
		s-1.717,2.552-2.812,3.647s-2.312,2.033-3.647,2.812s-2.771,1.383-4.307,1.811S33.652,50,32,50s-3.246-0.214-4.781-0.642
		s-2.971-1.031-4.307-1.811s-2.552-1.717-3.647-2.812s-2.033-2.312-2.812-3.647s-1.383-2.769-1.811-4.298S14,33.664,14,32
		c0-1.652,0.214-3.246,0.642-4.781s1.031-2.971,1.811-4.307s1.717-2.552,2.812-3.647s2.312-2.033,3.647-2.812
		s2.769-1.383,4.298-1.811S30.336,14,32,14z M16.25,32c0,1.559,0.217,3.059,0.65,4.5h6.381c-0.094-0.75-0.164-1.497-0.211-2.241
		S23,32.762,23,32s0.023-1.515,0.07-2.259s0.117-1.491,0.211-2.241H16.9C16.467,28.941,16.25,30.441,16.25,32z M26.85,17.111
		c-0.984,0.34-1.928,0.779-2.83,1.318s-1.74,1.154-2.514,1.846s-1.477,1.456-2.109,2.294s-1.172,1.731-1.617,2.681h5.854
		c0.141-0.703,0.305-1.412,0.492-2.127s0.413-1.421,0.677-2.118s0.565-1.374,0.905-2.03S26.428,17.697,26.85,17.111z M17.779,38.75
		c0.445,0.949,0.984,1.843,1.617,2.681s1.336,1.603,2.109,2.294s1.611,1.307,2.514,1.846s1.846,0.979,2.83,1.318
		c-0.422-0.586-0.803-1.207-1.143-1.863s-0.642-1.333-0.905-2.03s-0.489-1.403-0.677-2.118s-0.352-1.424-0.492-2.127H17.779z
		 M38.451,36.5c0.094-0.75,0.167-1.497,0.22-2.241S38.75,32.762,38.75,32s-0.026-1.515-0.079-2.259s-0.126-1.491-0.22-2.241H25.549
		c-0.094,0.75-0.167,1.497-0.22,2.241S25.25,31.238,25.25,32s0.026,1.515,0.079,2.259s0.126,1.491,0.22,2.241H38.451z M32,16.25
		c-0.574,0-1.11,0.158-1.608,0.475s-0.958,0.732-1.38,1.248s-0.8,1.099-1.134,1.749s-0.63,1.31-0.888,1.978s-0.475,1.312-0.65,1.934
		s-0.311,1.16-0.404,1.617h12.129c-0.094-0.457-0.229-0.996-0.404-1.617s-0.393-1.266-0.65-1.934s-0.554-1.327-0.888-1.978
		s-0.712-1.233-1.134-1.749s-0.882-0.932-1.38-1.248S32.574,16.25,32,16.25z M32,47.75c0.574,0,1.11-0.158,1.608-0.475
		s0.958-0.732,1.38-1.248s0.8-1.099,1.134-1.749s0.63-1.31,0.888-1.978s0.475-1.312,0.65-1.934s0.311-1.16,0.404-1.617H25.936
		c0.094,0.457,0.229,0.996,0.404,1.617s0.393,1.266,0.65,1.934s0.554,1.327,0.888,1.978s0.712,1.233,1.134,1.749
		s0.882,0.932,1.38,1.248S31.426,47.75,32,47.75z M46.221,25.25c-0.445-0.949-0.984-1.843-1.617-2.681s-1.336-1.603-2.109-2.294
		s-1.611-1.307-2.514-1.846s-1.846-0.979-2.83-1.318c0.422,0.586,0.803,1.207,1.143,1.863s0.642,1.333,0.905,2.03
		s0.489,1.403,0.677,2.118s0.352,1.424,0.492,2.127H46.221z M37.15,46.889c0.984-0.34,1.928-0.779,2.83-1.318
		s1.74-1.154,2.514-1.846s1.477-1.456,2.109-2.294s1.172-1.731,1.617-2.681h-5.854c-0.141,0.703-0.305,1.412-0.492,2.127
		s-0.413,1.421-0.677,2.118s-0.565,1.374-0.905,2.03S37.572,46.303,37.15,46.889z M47.75,32c0-1.559-0.217-3.059-0.65-4.5h-6.381
		c0.094,0.75,0.164,1.497,0.211,2.241S41,31.238,41,32s-0.023,1.515-0.07,2.259s-0.117,1.491-0.211,2.241H47.1
		C47.533,35.059,47.75,33.559,47.75,32z"/>
</g>
</svg>
