<?xml version="1.0" encoding="utf-8"?>
<!-- Generator: Adobe Illustrator 15.1.0, SVG Export Plug-In . SVG Version: 6.00 Build 0)  -->
<!DOCTYPE svg PUBLIC "-//W3C//DTD SVG 1.0//EN" "http://www.w3.org/TR/2001/REC-SVG-20010904/DTD/svg10.dtd">
<svg version="1.0" id="icon" xmlns="http://www.w3.org/2000/svg" xmlns:xlink="http://www.w3.org/1999/xlink" x="0px" y="0px"
	 width="64px" height="64px" viewBox="0 0 64 64" enable-background="new 0 0 64 64" xml:space="preserve">
<g>
	<path fill="#231F20" d="M45.5,29.75V50h-27V29.75h20.25V23c0-0.961-0.173-1.852-0.519-2.672s-0.82-1.532-1.424-2.136
		s-1.315-1.078-2.136-1.424S32.961,16.25,32,16.25s-1.852,0.173-2.672,0.519s-1.532,0.82-2.136,1.424s-1.078,1.315-1.424,2.136
		S25.25,22.039,25.25,23H23c0-1.277,0.229-2.464,0.686-3.56s1.09-2.048,1.898-2.856s1.761-1.441,2.856-1.898S30.723,14,32,14
		s2.464,0.229,3.56,0.686s2.048,1.09,2.856,1.898s1.441,1.761,1.898,2.856S41,21.723,41,23v6.75H45.5z M43.25,32h-22.5v15.75h22.5
		V32z"/>
</g>
</svg>
