<?xml version="1.0" encoding="utf-8"?>
<!-- Generator: Adobe Illustrator 15.1.0, SVG Export Plug-In . SVG Version: 6.00 Build 0)  -->
<!DOCTYPE svg PUBLIC "-//W3C//DTD SVG 1.0//EN" "http://www.w3.org/TR/2001/REC-SVG-20010904/DTD/svg10.dtd">
<svg version="1.0" id="icon" xmlns="http://www.w3.org/2000/svg" xmlns:xlink="http://www.w3.org/1999/xlink" x="0px" y="0px"
	 width="64px" height="64px" viewBox="0 0 64 64" enable-background="new 0 0 64 64" xml:space="preserve">
<g>
	<path fill="#231F20" d="M32,34.25H14v-18h31.5v9.686c-0.715-0.41-1.465-0.721-2.25-0.932V18.5h-27V32H32V34.25z M45.008,39.682
		c0.762,0.387,1.449,0.865,2.064,1.434s1.141,1.201,1.574,1.898s0.768,1.447,1.002,2.25S50,46.895,50,47.75h-2.25
		c0-0.926-0.18-1.799-0.537-2.619s-0.84-1.535-1.449-2.145s-1.324-1.092-2.145-1.449S41.926,41,41,41s-1.799,0.18-2.619,0.537
		s-1.535,0.84-2.145,1.449s-1.093,1.324-1.45,2.145s-0.536,1.693-0.536,2.619H32c0-0.855,0.117-1.684,0.352-2.486
		s0.568-1.553,1.002-2.25s0.958-1.33,1.573-1.898s1.304-1.047,2.065-1.434c-0.855-0.633-1.526-1.43-2.013-2.391
		s-0.729-1.975-0.729-3.041c0-0.926,0.179-1.799,0.536-2.619s0.841-1.535,1.45-2.145s1.324-1.093,2.145-1.45S40.074,27.5,41,27.5
		s1.799,0.179,2.619,0.536s1.535,0.841,2.145,1.45s1.092,1.324,1.449,2.145s0.537,1.693,0.537,2.619c0,1.066-0.244,2.08-0.73,3.041
		S45.863,39.049,45.008,39.682z M41,38.75c0.609,0,1.189-0.119,1.74-0.359s1.027-0.562,1.432-0.967s0.727-0.879,0.967-1.424
		s0.361-1.129,0.361-1.75c0-0.609-0.121-1.189-0.361-1.74s-0.562-1.028-0.967-1.433s-0.881-0.727-1.432-0.967s-1.131-0.36-1.74-0.36
		c-0.621,0-1.204,0.12-1.749,0.36s-1.02,0.562-1.424,0.967s-0.727,0.882-0.967,1.433s-0.36,1.131-0.36,1.74
		c0,0.621,0.12,1.205,0.36,1.75s0.562,1.02,0.967,1.424s0.879,0.727,1.424,0.967S40.379,38.75,41,38.75z"/>
</g>
</svg>
