<?xml version="1.0" encoding="utf-8"?>
<!-- Generator: Adobe Illustrator 15.1.0, SVG Export Plug-In . SVG Version: 6.00 Build 0)  -->
<!DOCTYPE svg PUBLIC "-//W3C//DTD SVG 1.0//EN" "http://www.w3.org/TR/2001/REC-SVG-20010904/DTD/svg10.dtd">
<svg version="1.0" id="icon" xmlns="http://www.w3.org/2000/svg" xmlns:xlink="http://www.w3.org/1999/xlink" x="0px" y="0px"
	 width="64px" height="64px" viewBox="0 0 64 64" enable-background="new 0 0 64 64" xml:space="preserve">
<g>
	<path fill="#231F20" d="M43.25,14v20.25c0,1.559-0.293,3.021-0.879,4.386s-1.389,2.558-2.408,3.577s-2.212,1.822-3.577,2.408
		S33.559,45.5,32,45.5s-3.021-0.293-4.386-0.879s-2.558-1.389-3.577-2.408s-1.822-2.212-2.408-3.577s-0.879-2.827-0.879-4.386V14H23
		v20.25c0,1.242,0.237,2.408,0.712,3.498s1.119,2.042,1.934,2.856s1.767,1.459,2.856,1.934S30.758,43.25,32,43.25
		s2.408-0.237,3.498-0.712s2.042-1.119,2.856-1.934s1.459-1.767,1.934-2.856S41,35.492,41,34.25V14H43.25z M20.75,47.75h22.5V50
		h-22.5V47.75z"/>
</g>
</svg>
