<?xml version="1.0" encoding="utf-8"?>
<!-- Generator: Adobe Illustrator 15.1.0, SVG Export Plug-In . SVG Version: 6.00 Build 0)  -->
<!DOCTYPE svg PUBLIC "-//W3C//DTD SVG 1.0//EN" "http://www.w3.org/TR/2001/REC-SVG-20010904/DTD/svg10.dtd">
<svg version="1.0" id="icon" xmlns="http://www.w3.org/2000/svg" xmlns:xlink="http://www.w3.org/1999/xlink" x="0px" y="0px"
	 width="64px" height="64px" viewBox="0 0 64 64" enable-background="new 0 0 64 64" xml:space="preserve">
<g>
	<path fill="#231F20" d="M32,14c1.652,0,3.246,0.214,4.781,0.642s2.971,1.031,4.307,1.811s2.552,1.717,3.647,2.812
		s2.033,2.312,2.812,3.647s1.383,2.771,1.811,4.307S50,30.348,50,32c0,0.645-0.062,1.315-0.185,2.013s-0.308,1.38-0.554,2.048
		s-0.557,1.301-0.932,1.898s-0.812,1.123-1.31,1.574s-1.063,0.809-1.696,1.072S44,41,43.25,41c-0.633,0-1.251-0.084-1.854-0.254
		s-1.163-0.414-1.679-0.73s-0.987-0.703-1.415-1.16s-0.782-0.973-1.063-1.547c-0.352,0.551-0.756,1.053-1.213,1.504
		s-0.955,0.84-1.494,1.168s-1.116,0.58-1.731,0.756S31.543,41,30.875,41c-1.195,0-2.279-0.26-3.252-0.781s-1.802-1.205-2.487-2.049
		s-1.213-1.805-1.582-2.883S23,33.113,23,32s0.185-2.209,0.554-3.287s0.896-2.039,1.582-2.883s1.515-1.526,2.487-2.048
		S29.68,23,30.875,23c1.113,0,2.147,0.24,3.103,0.721s1.796,1.137,2.522,1.969V23h2.25v9v2.25c0,0.621,0.117,1.204,0.352,1.749
		s0.557,1.022,0.967,1.433s0.888,0.732,1.433,0.967s1.128,0.352,1.749,0.352c0.516,0,0.987-0.107,1.415-0.324
		s0.809-0.504,1.143-0.861s0.624-0.769,0.87-1.231s0.448-0.946,0.606-1.45s0.275-1.005,0.352-1.503S47.75,32.422,47.75,32
		c0-1.441-0.188-2.833-0.562-4.175s-0.905-2.596-1.591-3.762s-1.509-2.229-2.47-3.19s-2.024-1.784-3.19-2.47
		s-2.42-1.216-3.762-1.591S33.441,16.25,32,16.25s-2.833,0.188-4.175,0.562s-2.596,0.905-3.762,1.591s-2.229,1.509-3.19,2.47
		s-1.784,2.024-2.47,3.19s-1.216,2.42-1.591,3.762S16.25,30.559,16.25,32s0.188,2.833,0.562,4.175
		c0.375,1.343,0.905,2.597,1.591,3.763s1.509,2.229,2.47,3.189s2.024,1.785,3.19,2.471s2.417,1.215,3.753,1.59
		S30.547,47.75,32,47.75c2.086,0,4.096-0.398,6.029-1.195l0.861,2.074c-1.102,0.457-2.229,0.801-3.384,1.029S33.184,50,32,50
		c-1.652,0-3.246-0.213-4.781-0.641s-2.971-1.031-4.307-1.811s-2.552-1.717-3.647-2.812s-2.033-2.312-2.812-3.648
		s-1.383-2.768-1.811-4.298C14.214,35.261,14,33.664,14,32c0-1.652,0.214-3.246,0.642-4.781s1.031-2.971,1.811-4.307
		s1.717-2.552,2.812-3.647s2.312-2.033,3.647-2.812s2.769-1.383,4.298-1.811S30.336,14,32,14z M30.875,38.75
		c0.879,0,1.667-0.201,2.364-0.605s1.286-0.93,1.767-1.574s0.85-1.368,1.107-2.171S36.5,32.797,36.5,32s-0.129-1.597-0.387-2.399
		s-0.627-1.526-1.107-2.171s-1.069-1.169-1.767-1.573s-1.485-0.606-2.364-0.606s-1.667,0.202-2.364,0.606s-1.286,0.929-1.767,1.573
		s-0.85,1.368-1.107,2.171S25.25,31.203,25.25,32s0.129,1.597,0.387,2.399s0.627,1.526,1.107,2.171s1.069,1.17,1.767,1.574
		S29.996,38.75,30.875,38.75z"/>
</g>
</svg>
