<?xml version="1.0" encoding="utf-8"?>
<!-- Generator: Adobe Illustrator 15.1.0, SVG Export Plug-In . SVG Version: 6.00 Build 0)  -->
<!DOCTYPE svg PUBLIC "-//W3C//DTD SVG 1.0//EN" "http://www.w3.org/TR/2001/REC-SVG-20010904/DTD/svg10.dtd">
<svg version="1.0" id="icon" xmlns="http://www.w3.org/2000/svg" xmlns:xlink="http://www.w3.org/1999/xlink" x="0px" y="0px"
	 width="64px" height="64px" viewBox="0 0 64 64" enable-background="new 0 0 64 64" xml:space="preserve">
<g>
	<path fill="#231F20" d="M43.25,17.375H50v31.5H14v-31.5h6.75v-2.25H23v2.25h18v-2.25h2.25V17.375z M20.75,19.625h-4.5v4.5h31.5
		v-4.5h-4.5v2.25H41v-2.25H23v2.25h-2.25V19.625z M16.25,46.625h31.5v-20.25h-31.5V46.625z M20.75,44.375v-15.75h9v15.75H20.75z
		 M23,30.875v11.25h4.5v-11.25H23z M34.25,44.375v-15.75h9v15.75H34.25z M36.5,30.875v11.25H41v-11.25H36.5z"/>
</g>
</svg>
