<?xml version="1.0" encoding="utf-8"?>
<!-- Generator: Adobe Illustrator 15.1.0, SVG Export Plug-In . SVG Version: 6.00 Build 0)  -->
<!DOCTYPE svg PUBLIC "-//W3C//DTD SVG 1.0//EN" "http://www.w3.org/TR/2001/REC-SVG-20010904/DTD/svg10.dtd">
<svg version="1.0" id="icon" xmlns="http://www.w3.org/2000/svg" xmlns:xlink="http://www.w3.org/1999/xlink" x="0px" y="0px"
	 width="64px" height="64px" viewBox="0 0 64 64" enable-background="new 0 0 64 64" xml:space="preserve">
<g>
	<path fill="#231F20" d="M50,19.625v27H14v-27h9.65l2.25-2.25H38.1l2.25,2.25H50z M47.75,21.875H39.4l-2.25-2.25H26.85l-2.25,2.25
		h-8.35v22.5h31.5V21.875z M19.625,24.125c0.305,0,0.568,0.111,0.791,0.334s0.334,0.486,0.334,0.791s-0.111,0.568-0.334,0.791
		s-0.486,0.334-0.791,0.334s-0.568-0.111-0.791-0.334S18.5,25.555,18.5,25.25s0.111-0.568,0.334-0.791S19.32,24.125,19.625,24.125z
		 M32,24.125c1.242,0,2.411,0.234,3.507,0.703s2.051,1.11,2.865,1.925s1.456,1.77,1.925,2.865S41,31.883,41,33.125
		s-0.234,2.411-0.703,3.507s-1.11,2.051-1.925,2.865s-1.77,1.456-2.865,1.925S33.242,42.125,32,42.125s-2.411-0.234-3.507-0.703
		s-2.051-1.11-2.865-1.925s-1.456-1.77-1.925-2.865S23,34.367,23,33.125s0.234-2.411,0.703-3.507s1.11-2.051,1.925-2.865
		s1.77-1.456,2.865-1.925S30.758,24.125,32,24.125z M32,39.875c0.926,0,1.799-0.179,2.619-0.536s1.535-0.841,2.145-1.45
		s1.093-1.324,1.45-2.145s0.536-1.693,0.536-2.619s-0.179-1.799-0.536-2.619s-0.841-1.535-1.45-2.145s-1.324-1.093-2.145-1.45
		S32.926,26.375,32,26.375s-1.799,0.179-2.619,0.536s-1.535,0.841-2.145,1.45s-1.093,1.324-1.45,2.145s-0.536,1.693-0.536,2.619
		s0.179,1.799,0.536,2.619s0.841,1.535,1.45,2.145s1.324,1.093,2.145,1.45S31.074,39.875,32,39.875z"/>
</g>
</svg>
