<?xml version="1.0" encoding="utf-8"?>
<!-- Generator: Adobe Illustrator 15.1.0, SVG Export Plug-In . SVG Version: 6.00 Build 0)  -->
<!DOCTYPE svg PUBLIC "-//W3C//DTD SVG 1.0//EN" "http://www.w3.org/TR/2001/REC-SVG-20010904/DTD/svg10.dtd">
<svg version="1.0" id="icon" xmlns="http://www.w3.org/2000/svg" xmlns:xlink="http://www.w3.org/1999/xlink" x="0px" y="0px"
	 width="64px" height="64px" viewBox="0 0 64 64" enable-background="new 0 0 64 64" xml:space="preserve">
<g>
	<path fill="#231F20" d="M25.25,34.812c0,0.598-0.129,1.14-0.387,1.626c-0.258,0.487-0.598,0.903-1.02,1.249
		s-0.902,0.609-1.441,0.791s-1.09,0.271-1.652,0.271s-1.113-0.09-1.652-0.271s-1.02-0.445-1.441-0.791s-0.762-0.762-1.02-1.249
		c-0.258-0.486-0.387-1.028-0.387-1.626s0.129-1.14,0.387-1.626s0.598-0.902,1.02-1.248s0.902-0.609,1.441-0.791
		s1.09-0.272,1.652-0.272c0.387,0,0.773,0.044,1.16,0.132s0.75,0.22,1.09,0.396V16.25h2.25c0,0.75,0.167,1.424,0.501,2.021
		s0.782,1.137,1.345,1.617c0.82,0.703,1.468,1.497,1.942,2.382s0.712,1.878,0.712,2.979H27.5c0-0.738-0.167-1.415-0.501-2.03
		s-0.782-1.151-1.345-1.608c-0.07-0.059-0.141-0.117-0.211-0.176s-0.135-0.117-0.193-0.176V34.812z M20.75,36.5
		c0.234,0,0.483-0.035,0.747-0.105s0.507-0.176,0.729-0.316s0.407-0.316,0.554-0.527S23,35.094,23,34.812s-0.073-0.527-0.22-0.738
		s-0.331-0.387-0.554-0.527s-0.466-0.246-0.729-0.316s-0.513-0.105-0.747-0.105s-0.483,0.035-0.747,0.105s-0.507,0.176-0.729,0.316
		s-0.407,0.316-0.554,0.527s-0.22,0.457-0.22,0.738s0.073,0.527,0.22,0.738s0.331,0.387,0.554,0.527s0.466,0.246,0.729,0.316
		S20.516,36.5,20.75,36.5z M47.75,41.562c0,0.598-0.129,1.141-0.387,1.627s-0.598,0.902-1.02,1.248s-0.902,0.609-1.441,0.791
		S43.812,45.5,43.25,45.5s-1.113-0.09-1.652-0.271s-1.02-0.445-1.441-0.791s-0.762-0.762-1.02-1.248s-0.387-1.029-0.387-1.627
		s0.129-1.139,0.387-1.625s0.598-0.902,1.02-1.248s0.902-0.609,1.441-0.791s1.09-0.273,1.652-0.273c0.387,0,0.773,0.045,1.16,0.133
		s0.75,0.219,1.09,0.395V26.41l-11.25,2.812v14.59c0,0.598-0.129,1.141-0.387,1.627s-0.598,0.902-1.02,1.248
		s-0.902,0.609-1.441,0.791s-1.09,0.271-1.652,0.271s-1.113-0.09-1.652-0.271s-1.02-0.445-1.441-0.791s-0.762-0.762-1.02-1.248
		s-0.387-1.029-0.387-1.627s0.129-1.139,0.387-1.625s0.598-0.902,1.02-1.248s0.902-0.609,1.441-0.791s1.09-0.273,1.652-0.273
		c0.387,0,0.773,0.045,1.16,0.133s0.75,0.219,1.09,0.395V27.465l15.75-3.938V41.562z M29.75,45.5c0.234,0,0.483-0.035,0.747-0.105
		s0.507-0.176,0.729-0.316s0.407-0.316,0.554-0.527S32,44.094,32,43.812s-0.073-0.527-0.22-0.738s-0.331-0.387-0.554-0.527
		s-0.466-0.246-0.729-0.316s-0.513-0.105-0.747-0.105s-0.483,0.035-0.747,0.105s-0.507,0.176-0.729,0.316s-0.407,0.316-0.554,0.527
		s-0.22,0.457-0.22,0.738s0.073,0.527,0.22,0.738s0.331,0.387,0.554,0.527s0.466,0.246,0.729,0.316S29.516,45.5,29.75,45.5z
		 M43.25,43.25c0.234,0,0.483-0.035,0.747-0.105s0.507-0.176,0.729-0.316s0.407-0.316,0.554-0.527s0.22-0.457,0.22-0.738
		s-0.073-0.527-0.22-0.738s-0.331-0.387-0.554-0.527s-0.466-0.246-0.729-0.316s-0.513-0.105-0.747-0.105s-0.483,0.035-0.747,0.105
		s-0.507,0.176-0.729,0.316s-0.407,0.316-0.554,0.527S41,41.281,41,41.562s0.073,0.527,0.22,0.738s0.331,0.387,0.554,0.527
		s0.466,0.246,0.729,0.316S43.016,43.25,43.25,43.25z"/>
</g>
</svg>
