<?xml version="1.0" encoding="utf-8"?>
<!-- Generator: Adobe Illustrator 15.1.0, SVG Export Plug-In . SVG Version: 6.00 Build 0)  -->
<!DOCTYPE svg PUBLIC "-//W3C//DTD SVG 1.0//EN" "http://www.w3.org/TR/2001/REC-SVG-20010904/DTD/svg10.dtd">
<svg version="1.0" id="icon" xmlns="http://www.w3.org/2000/svg" xmlns:xlink="http://www.w3.org/1999/xlink" x="0px" y="0px"
	 width="64px" height="64px" viewBox="0 0 64 64" enable-background="new 0 0 64 64" xml:space="preserve">
<g>
	<path fill="#231F20" d="M32,14c1.652,0,3.246,0.214,4.781,0.642s2.971,1.031,4.307,1.811s2.552,1.717,3.647,2.812
		s2.033,2.312,2.812,3.647s1.383,2.771,1.811,4.307S50,30.348,50,32s-0.214,3.246-0.642,4.781s-1.031,2.971-1.811,4.307
		s-1.717,2.551-2.812,3.646s-2.312,2.033-3.647,2.812s-2.771,1.383-4.307,1.811S33.652,50,32,50s-3.246-0.215-4.781-0.643
		s-2.971-1.031-4.307-1.811s-2.552-1.717-3.647-2.812s-2.033-2.311-2.812-3.646s-1.383-2.77-1.811-4.299
		C14.214,35.261,14,33.664,14,32c0-1.652,0.214-3.246,0.642-4.781s1.031-2.971,1.811-4.307s1.717-2.552,2.812-3.647
		s2.312-2.033,3.647-2.812s2.769-1.383,4.298-1.811S30.336,14,32,14z M32,47.75c1.441,0,2.833-0.188,4.175-0.562
		s2.596-0.906,3.762-1.592s2.229-1.508,3.19-2.469s1.784-2.025,2.47-3.191s1.216-2.42,1.591-3.761
		c0.375-1.342,0.562-2.733,0.562-4.175s-0.188-2.833-0.562-4.175s-0.905-2.596-1.591-3.762s-1.509-2.229-2.47-3.19
		s-2.024-1.784-3.19-2.47s-2.42-1.216-3.762-1.591S33.441,16.25,32,16.25s-2.833,0.188-4.175,0.562s-2.596,0.905-3.762,1.591
		s-2.229,1.509-3.19,2.47s-1.784,2.024-2.47,3.19s-1.216,2.42-1.591,3.762S16.25,30.559,16.25,32s0.188,2.833,0.562,4.175
		c0.375,1.341,0.905,2.595,1.591,3.761s1.509,2.23,2.47,3.191s2.024,1.783,3.19,2.469s2.42,1.217,3.762,1.592S30.559,47.75,32,47.75
		z M39.875,27.5c0.469,0,0.908,0.088,1.318,0.264s0.768,0.416,1.072,0.721s0.545,0.662,0.721,1.072s0.264,0.85,0.264,1.318V32
		c0,1.559-0.293,3.021-0.879,4.386c-0.586,1.364-1.389,2.558-2.408,3.577s-2.212,1.822-3.577,2.408S33.559,43.25,32,43.25
		s-3.021-0.293-4.386-0.879s-2.558-1.389-3.577-2.408s-1.822-2.213-2.408-3.577C21.043,35.021,20.75,33.559,20.75,32
		c0-0.562,0.047-1.113,0.141-1.652s0.264-1.02,0.51-1.441s0.589-0.762,1.028-1.02s1.005-0.387,1.696-0.387
		c0.867,0,1.623,0.117,2.268,0.352s1.257,0.492,1.837,0.773s1.166,0.539,1.758,0.773S31.25,29.75,32,29.75s1.421-0.117,2.013-0.352
		s1.178-0.492,1.758-0.773s1.192-0.539,1.837-0.773S39.008,27.5,39.875,27.5z M25.25,23c0.316,0,0.609,0.059,0.879,0.176
		s0.507,0.278,0.712,0.483s0.366,0.442,0.483,0.712S27.5,24.934,27.5,25.25H23c0-0.316,0.059-0.609,0.176-0.879
		s0.278-0.507,0.483-0.712s0.442-0.366,0.712-0.483S24.934,23,25.25,23z M41,30.875c0-0.305-0.111-0.568-0.334-0.791
		s-0.486-0.334-0.791-0.334c-0.504,0-0.967,0.056-1.389,0.167s-0.829,0.249-1.222,0.413s-0.779,0.346-1.16,0.545
		s-0.779,0.381-1.195,0.545s-0.861,0.302-1.336,0.413S32.574,32,32,32s-1.099-0.056-1.573-0.167s-0.92-0.249-1.336-0.413
		s-0.814-0.346-1.195-0.545s-0.768-0.381-1.16-0.545s-0.8-0.302-1.222-0.413s-0.885-0.167-1.389-0.167
		c-0.305,0-0.568,0.111-0.791,0.334S23,30.57,23,30.875V32c0,1.242,0.237,2.408,0.712,3.498s1.119,2.041,1.934,2.855
		s1.767,1.459,2.856,1.934S30.758,41,32,41s2.408-0.238,3.498-0.713s2.042-1.119,2.856-1.934s1.459-1.766,1.934-2.855
		S41,33.242,41,32V30.875z M38.75,23c0.316,0,0.609,0.059,0.879,0.176s0.507,0.278,0.712,0.483s0.366,0.442,0.483,0.712
		S41,24.934,41,25.25h-4.5c0-0.316,0.059-0.609,0.176-0.879s0.278-0.507,0.483-0.712s0.442-0.366,0.712-0.483S38.434,23,38.75,23z"
		/>
</g>
</svg>
