<?xml version="1.0" encoding="utf-8"?>
<!-- Generator: Adobe Illustrator 15.1.0, SVG Export Plug-In . SVG Version: 6.00 Build 0)  -->
<!DOCTYPE svg PUBLIC "-//W3C//DTD SVG 1.0//EN" "http://www.w3.org/TR/2001/REC-SVG-20010904/DTD/svg10.dtd">
<svg version="1.0" id="icon" xmlns="http://www.w3.org/2000/svg" xmlns:xlink="http://www.w3.org/1999/xlink" x="0px" y="0px"
	 width="64px" height="64px" viewBox="0 0 64 64" enable-background="new 0 0 64 64" xml:space="preserve">
<g>
	<path fill="#231F20" d="M14.026,24.125v-6.75h6.75v6.75H14.026z M14.026,35.375v-6.75h6.75v6.75H14.026z M14.026,46.625v-6.75h6.75
		v6.75H14.026z M18.526,21.875v-2.25h-2.25v2.25H18.526z M18.526,33.125v-2.25h-2.25v2.25H18.526z M18.526,44.375v-2.25h-2.25v2.25
		H18.526z M25.259,21.893v-2.268h20.268v2.268H25.259z M25.259,44.393v-2.268h15.768v2.268H25.259z M25.276,33.125v-2.25h15.75
		l-2.25,2.25H25.276z M44.401,30.98l-5.572,5.572l1.582,1.582l2.848-2.865v10.248h2.268V35.27l2.865,2.865l1.582-1.582L44.401,30.98
		z"/>
</g>
</svg>
