<?xml version="1.0" encoding="utf-8"?>
<!-- Generator: Adobe Illustrator 15.1.0, SVG Export Plug-In . SVG Version: 6.00 Build 0)  -->
<!DOCTYPE svg PUBLIC "-//W3C//DTD SVG 1.0//EN" "http://www.w3.org/TR/2001/REC-SVG-20010904/DTD/svg10.dtd">
<svg version="1.0" id="icon" xmlns="http://www.w3.org/2000/svg" xmlns:xlink="http://www.w3.org/1999/xlink" x="0px" y="0px"
	 width="64px" height="64px" viewBox="0 0 64 64" enable-background="new 0 0 64 64" xml:space="preserve">
<g>
	<path fill="#231F20" d="M20.75,20.75v-4.5h4.5v4.5H20.75z M20.75,29.75v-4.5h4.5v4.5H20.75z M20.75,38.75v-4.5h4.5v4.5H20.75z
		 M29.75,20.75v-4.5h4.5v4.5H29.75z M29.75,29.75v-4.5h4.5v4.5H29.75z M29.75,38.75v-4.5h4.5v4.5H29.75z M29.75,47.75v-4.5h4.5v4.5
		H29.75z M38.75,20.75v-4.5h4.5v4.5H38.75z M38.75,29.75v-4.5h4.5v4.5H38.75z M38.75,38.75v-4.5h4.5v4.5H38.75z"/>
</g>
</svg>
