<?xml version="1.0" encoding="utf-8"?>
<!-- Generator: Adobe Illustrator 15.1.0, SVG Export Plug-In . SVG Version: 6.00 Build 0)  -->
<!DOCTYPE svg PUBLIC "-//W3C//DTD SVG 1.0//EN" "http://www.w3.org/TR/2001/REC-SVG-20010904/DTD/svg10.dtd">
<svg version="1.0" id="icon" xmlns="http://www.w3.org/2000/svg" xmlns:xlink="http://www.w3.org/1999/xlink" x="0px" y="0px"
	 width="64px" height="64px" viewBox="0 0 64 64" enable-background="new 0 0 64 64" xml:space="preserve">
<g>
	<path fill="#231F20" d="M32,47.75c-1.453,0-2.851-0.188-4.192-0.562s-2.596-0.905-3.762-1.591s-2.227-1.506-3.182-2.461
		s-1.775-2.016-2.461-3.182s-1.216-2.42-1.591-3.762S16.25,33.453,16.25,32s0.188-2.851,0.562-4.192s0.905-2.596,1.591-3.762
		s1.506-2.227,2.461-3.182s2.016-1.775,3.182-2.461s2.42-1.216,3.762-1.591S30.547,16.25,32,16.25s2.851,0.188,4.192,0.562
		s2.596,0.905,3.762,1.591s2.227,1.506,3.182,2.461s1.775,2.016,2.461,3.182s1.216,2.42,1.591,3.762S47.75,30.547,47.75,32
		s-0.188,2.851-0.562,4.192s-0.905,2.596-1.591,3.762s-1.506,2.227-2.461,3.182s-2.016,1.775-3.182,2.461s-2.42,1.216-3.762,1.591
		S33.453,47.75,32,47.75z M32,18.5c-1.863,0-3.612,0.354-5.247,1.063s-3.064,1.676-4.289,2.9s-2.191,2.654-2.9,4.289
		S18.5,30.137,18.5,32s0.354,3.612,1.063,5.247s1.676,3.064,2.9,4.289s2.654,2.191,4.289,2.9S30.137,45.5,32,45.5
		s3.612-0.354,5.247-1.063s3.064-1.676,4.289-2.9s2.191-2.654,2.9-4.289S45.5,33.863,45.5,32s-0.354-3.612-1.063-5.247
		s-1.676-3.064-2.9-4.289s-2.654-2.191-4.289-2.9S33.863,18.5,32,18.5z M32,32v-9h-2.25v11.25h9V32H32z"/>
</g>
</svg>
