<?xml version="1.0" encoding="utf-8"?>
<!-- Generator: Adobe Illustrator 15.1.0, SVG Export Plug-In . SVG Version: 6.00 Build 0)  -->
<!DOCTYPE svg PUBLIC "-//W3C//DTD SVG 1.0//EN" "http://www.w3.org/TR/2001/REC-SVG-20010904/DTD/svg10.dtd">
<svg version="1.0" id="icon" xmlns="http://www.w3.org/2000/svg" xmlns:xlink="http://www.w3.org/1999/xlink" x="0px" y="0px"
	 width="64px" height="64px" viewBox="0 0 64 64" enable-background="new 0 0 64 64" xml:space="preserve">
<g>
	<path fill="#231F20" d="M34.347,22.903c1.816,0,3.542,0.34,5.177,1.02s3.091,1.658,4.368,2.936s2.256,2.733,2.936,4.368
		s1.02,3.36,1.02,5.177c0,1.242-0.161,2.438-0.483,3.586s-0.776,2.224-1.362,3.226s-1.289,1.913-2.109,2.733
		s-1.731,1.523-2.733,2.109s-2.077,1.04-3.226,1.362s-2.344,0.483-3.586,0.483h-15.75v-2.25h15.75c1.031,0,2.027-0.135,2.988-0.404
		s1.857-0.647,2.689-1.134s1.591-1.072,2.276-1.758s1.271-1.444,1.758-2.276s0.864-1.729,1.134-2.689s0.404-1.957,0.404-2.988
		s-0.135-2.027-0.404-2.988s-0.647-1.857-1.134-2.689s-1.072-1.591-1.758-2.276s-1.444-1.271-2.276-1.758s-1.729-0.864-2.689-1.134
		s-1.957-0.404-2.988-0.404H19.915l7.488,7.506l-1.301,1.301l-9.949-9.932l9.949-9.932l1.301,1.301l-7.488,7.506H34.347z"/>
</g>
</svg>
