<?xml version="1.0" encoding="utf-8"?>
<!-- Generator: Adobe Illustrator 15.1.0, SVG Export Plug-In . SVG Version: 6.00 Build 0)  -->
<!DOCTYPE svg PUBLIC "-//W3C//DTD SVG 1.0//EN" "http://www.w3.org/TR/2001/REC-SVG-20010904/DTD/svg10.dtd">
<svg version="1.0" id="icon" xmlns="http://www.w3.org/2000/svg" xmlns:xlink="http://www.w3.org/1999/xlink" x="0px" y="0px"
	 width="64px" height="64px" viewBox="0 0 64 64" enable-background="new 0 0 64 64" xml:space="preserve">
<g>
	<path fill="#231F20" d="M32,15.125c1.559,0,3.056,0.199,4.491,0.598s2.78,0.964,4.034,1.696s2.394,1.611,3.419,2.637
		s1.904,2.165,2.637,3.419s1.298,2.599,1.696,4.034s0.598,2.933,0.598,4.491s-0.199,3.056-0.598,4.491s-0.964,2.78-1.696,4.034
		s-1.611,2.394-2.637,3.419s-2.165,1.904-3.419,2.637s-2.599,1.298-4.034,1.696S33.559,48.875,32,48.875s-3.056-0.199-4.491-0.598
		s-2.78-0.964-4.034-1.696s-2.394-1.611-3.419-2.637s-1.904-2.165-2.637-3.419s-1.298-2.599-1.696-4.034S15.125,33.559,15.125,32
		s0.199-3.056,0.598-4.491s0.964-2.78,1.696-4.034s1.611-2.394,2.637-3.419s2.165-1.904,3.419-2.637s2.599-1.298,4.034-1.696
		S30.441,15.125,32,15.125z M32,46.625c1.336,0,2.628-0.176,3.876-0.527s2.414-0.844,3.498-1.477s2.071-1.395,2.962-2.285
		s1.652-1.878,2.285-2.962s1.125-2.247,1.477-3.489s0.527-2.537,0.527-3.885c0-1.336-0.176-2.628-0.527-3.876
		s-0.844-2.414-1.477-3.498s-1.395-2.071-2.285-2.962s-1.878-1.652-2.962-2.285s-2.25-1.125-3.498-1.477s-2.54-0.527-3.876-0.527
		c-1.348,0-2.643,0.176-3.885,0.527s-2.405,0.844-3.489,1.477s-2.071,1.395-2.962,2.285s-1.652,1.878-2.285,2.962
		s-1.125,2.25-1.477,3.498s-0.527,2.54-0.527,3.876s0.176,2.628,0.527,3.876s0.844,2.414,1.477,3.498s1.395,2.071,2.285,2.962
		s1.878,1.652,2.962,2.285s2.247,1.125,3.489,1.477S30.652,46.625,32,46.625z M39.646,25.021l1.582,1.582L29.188,38.662
		l-6.416-6.434l1.582-1.582l4.834,4.834L39.646,25.021z"/>
</g>
</svg>
