<?xml version="1.0" encoding="utf-8"?>
<!-- Generator: Adobe Illustrator 15.1.0, SVG Export Plug-In . SVG Version: 6.00 Build 0)  -->
<!DOCTYPE svg PUBLIC "-//W3C//DTD SVG 1.0//EN" "http://www.w3.org/TR/2001/REC-SVG-20010904/DTD/svg10.dtd">
<svg version="1.0" id="icon" xmlns="http://www.w3.org/2000/svg" xmlns:xlink="http://www.w3.org/1999/xlink" x="0px" y="0px"
	 width="64px" height="64px" viewBox="0 0 64 64" enable-background="new 0 0 64 64" xml:space="preserve">
<g>
	<path fill="#231F20" d="M32,47.75c1.805,0,3.536-0.278,5.194-0.835s3.17-1.342,4.535-2.355s2.555-2.232,3.568-3.656
		s1.784-3.003,2.312-4.737l2.145,0.668c-0.586,1.957-1.459,3.741-2.619,5.353s-2.522,2.997-4.087,4.157s-3.287,2.06-5.168,2.698
		S34.039,50,32,50c-1.605,0-3.17-0.199-4.693-0.598s-2.962-0.976-4.315-1.731s-2.604-1.676-3.753-2.76s-2.145-2.312-2.988-3.683
		V45.5H14v-9h9v2.25h-5.555c0.691,1.371,1.55,2.61,2.575,3.718s2.171,2.051,3.437,2.83s2.622,1.383,4.069,1.811
		S30.465,47.75,32,47.75z M50,18.5v9h-9v-2.25h5.555c-0.691-1.371-1.55-2.61-2.575-3.718s-2.171-2.051-3.437-2.83
		s-2.622-1.383-4.069-1.811S33.535,16.25,32,16.25c-1.805,0-3.536,0.278-5.194,0.835s-3.17,1.342-4.535,2.355
		s-2.555,2.232-3.568,3.656s-1.784,3.003-2.312,4.737l-2.145-0.668c0.586-1.945,1.459-3.727,2.619-5.344s2.522-3.006,4.087-4.166
		s3.287-2.06,5.168-2.698S29.961,14,32,14c1.605,0,3.17,0.199,4.693,0.598s2.962,0.976,4.315,1.731s2.604,1.676,3.753,2.76
		s2.145,2.312,2.988,3.683V18.5H50z"/>
</g>
</svg>
