<?xml version="1.0" encoding="utf-8"?>
<!-- Generator: Adobe Illustrator 15.1.0, SVG Export Plug-In . SVG Version: 6.00 Build 0)  -->
<!DOCTYPE svg PUBLIC "-//W3C//DTD SVG 1.0//EN" "http://www.w3.org/TR/2001/REC-SVG-20010904/DTD/svg10.dtd">
<svg version="1.0" id="icon" xmlns="http://www.w3.org/2000/svg" xmlns:xlink="http://www.w3.org/1999/xlink" x="0px" y="0px"
	 width="64px" height="64px" viewBox="0 0 64 64" enable-background="new 0 0 64 64" xml:space="preserve">
<g>
	<path fill="#231F20" d="M47.416,37.396c0.398,0.258,0.758,0.559,1.08,0.904s0.596,0.725,0.818,1.135s0.393,0.844,0.51,1.301
		S50,41.656,50,42.125c0,0.773-0.15,1.5-0.449,2.18s-0.703,1.273-1.213,1.783s-1.104,0.914-1.783,1.213s-1.406,0.449-2.18,0.449
		c-1.078,0-2.074-0.287-2.988-0.861c-1.348,1.02-2.828,1.793-4.439,2.32S33.688,50,32,50s-3.338-0.264-4.949-0.791
		c-1.61-0.527-3.09-1.301-4.438-2.32c-0.914,0.574-1.91,0.861-2.988,0.861c-0.773,0-1.5-0.15-2.18-0.449s-1.274-0.703-1.784-1.213
		s-0.914-1.104-1.213-1.783S14,42.898,14,42.125c0-0.469,0.059-0.932,0.176-1.389s0.287-0.891,0.51-1.301s0.495-0.789,0.817-1.135
		s0.683-0.646,1.081-0.904c-0.117-0.527-0.202-1.053-0.255-1.574c-0.053-0.521-0.079-1.045-0.079-1.572
		c0-1.617,0.243-3.185,0.729-4.702s1.172-2.924,2.057-4.219s1.948-2.44,3.19-3.437s2.625-1.781,4.148-2.355
		c0.012-0.762,0.166-1.479,0.465-2.153s0.703-1.26,1.213-1.758s1.105-0.894,1.785-1.187S31.238,14,32,14s1.482,0.146,2.162,0.439
		s1.273,0.688,1.783,1.187s0.914,1.084,1.213,1.758s0.455,1.392,0.467,2.153c1.523,0.574,2.906,1.359,4.148,2.355
		s2.305,2.142,3.189,3.437s1.57,2.701,2.057,4.219s0.73,3.085,0.73,4.702c0,0.527-0.027,1.052-0.08,1.572
		C47.617,36.344,47.533,36.869,47.416,37.396z M16.25,42.125c0,0.469,0.088,0.908,0.264,1.318s0.416,0.768,0.721,1.072
		s0.662,0.545,1.072,0.721s0.85,0.264,1.318,0.264s0.908-0.088,1.318-0.264s0.768-0.416,1.072-0.721s0.545-0.662,0.721-1.072
		S23,42.594,23,42.125s-0.088-0.908-0.264-1.318s-0.416-0.768-0.721-1.072s-0.662-0.545-1.072-0.721s-0.85-0.264-1.318-0.264
		s-0.908,0.088-1.318,0.264s-0.768,0.416-1.072,0.721s-0.545,0.662-0.721,1.072S16.25,41.656,16.25,42.125z M32,47.75
		c1.383,0,2.732-0.209,4.051-0.625s2.547-1.021,3.684-1.818c-0.316-0.469-0.561-0.977-0.73-1.521s-0.254-1.098-0.254-1.66
		c0-0.773,0.148-1.5,0.447-2.18S39.9,38.67,40.41,38.16s1.105-0.914,1.785-1.213s1.406-0.447,2.18-0.447
		c0.152,0,0.305,0.006,0.457,0.018s0.305,0.029,0.457,0.053c0.141-0.773,0.211-1.547,0.211-2.32c0-1.371-0.197-2.692-0.59-3.964
		s-0.949-2.449-1.67-3.533s-1.594-2.051-2.619-2.9s-2.17-1.538-3.436-2.065c-0.211,0.516-0.496,0.987-0.854,1.415
		s-0.764,0.794-1.221,1.099s-0.949,0.539-1.477,0.703S32.562,25.25,32,25.25s-1.107-0.082-1.635-0.246s-1.02-0.398-1.477-0.703
		s-0.865-0.671-1.223-1.099s-0.641-0.899-0.852-1.415c-1.266,0.527-2.411,1.216-3.437,2.065s-1.898,1.816-2.619,2.9
		s-1.277,2.262-1.67,3.533S18.5,32.879,18.5,34.25c0,0.773,0.07,1.547,0.211,2.32c0.844-0.141,1.661-0.094,2.452,0.141
		s1.488,0.611,2.092,1.133s1.087,1.152,1.45,1.891s0.545,1.535,0.545,2.391c0,0.562-0.085,1.115-0.255,1.66
		s-0.413,1.053-0.729,1.521c1.137,0.797,2.363,1.402,3.682,1.818S30.617,47.75,32,47.75z M32,16.25
		c-0.469,0-0.908,0.088-1.318,0.264s-0.768,0.416-1.072,0.721s-0.545,0.662-0.721,1.072s-0.264,0.85-0.264,1.318
		s0.088,0.908,0.264,1.318s0.416,0.768,0.721,1.072s0.662,0.545,1.072,0.721S31.531,23,32,23s0.908-0.088,1.318-0.264
		s0.768-0.416,1.072-0.721s0.545-0.662,0.721-1.072s0.264-0.85,0.264-1.318s-0.088-0.908-0.264-1.318s-0.416-0.768-0.721-1.072
		s-0.662-0.545-1.072-0.721S32.469,16.25,32,16.25z M44.375,45.5c0.469,0,0.908-0.088,1.318-0.264s0.768-0.416,1.072-0.721
		s0.545-0.662,0.721-1.072s0.264-0.85,0.264-1.318s-0.088-0.908-0.264-1.318s-0.416-0.768-0.721-1.072s-0.662-0.545-1.072-0.721
		s-0.85-0.264-1.318-0.264s-0.908,0.088-1.318,0.264s-0.768,0.416-1.072,0.721s-0.545,0.662-0.721,1.072S41,41.656,41,42.125
		s0.088,0.908,0.264,1.318s0.416,0.768,0.721,1.072s0.662,0.545,1.072,0.721S43.906,45.5,44.375,45.5z"/>
</g>
</svg>
