<?xml version="1.0" encoding="utf-8"?>
<!-- Generator: Adobe Illustrator 15.1.0, SVG Export Plug-In . SVG Version: 6.00 Build 0)  -->
<!DOCTYPE svg PUBLIC "-//W3C//DTD SVG 1.0//EN" "http://www.w3.org/TR/2001/REC-SVG-20010904/DTD/svg10.dtd">
<svg version="1.0" id="icon" xmlns="http://www.w3.org/2000/svg" xmlns:xlink="http://www.w3.org/1999/xlink" x="0px" y="0px"
	 width="64px" height="64px" viewBox="0 0 64 64" enable-background="new 0 0 64 64" xml:space="preserve">
<g>
	<path fill="#231F20" d="M47.75,27.5c0.305,0,0.595,0.059,0.87,0.176s0.516,0.278,0.721,0.483s0.366,0.445,0.483,0.721
		S50,29.445,50,29.75V45.5h-9V50H23v-4.5h-9V29.75c0-0.305,0.059-0.595,0.176-0.87s0.278-0.516,0.483-0.721s0.445-0.366,0.721-0.483
		s0.565-0.176,0.87-0.176H23V14h18v13.5H47.75z M47.75,29.75h-31.5v13.5H23V36.5h18v6.75h6.75V29.75z M19.625,32
		c0.305,0,0.568,0.111,0.791,0.334s0.334,0.486,0.334,0.791s-0.111,0.568-0.334,0.791s-0.486,0.334-0.791,0.334
		s-0.568-0.111-0.791-0.334S18.5,33.43,18.5,33.125s0.111-0.568,0.334-0.791S19.32,32,19.625,32z M25.25,27.5h13.5V16.25h-13.5V27.5
		z M38.75,38.75h-13.5v9h13.5V38.75z"/>
</g>
</svg>
