<?xml version="1.0" encoding="utf-8"?>
<!-- Generator: Adobe Illustrator 15.1.0, SVG Export Plug-In . SVG Version: 6.00 Build 0)  -->
<!DOCTYPE svg PUBLIC "-//W3C//DTD SVG 1.0//EN" "http://www.w3.org/TR/2001/REC-SVG-20010904/DTD/svg10.dtd">
<svg version="1.0" id="icon" xmlns="http://www.w3.org/2000/svg" xmlns:xlink="http://www.w3.org/1999/xlink" x="0px" y="0px"
	 width="64px" height="64px" viewBox="0 0 64 64" enable-background="new 0 0 64 64" xml:space="preserve">
<g>
	<path fill="#231F20" d="M19.625,14h24.75v36h-24.75V14z M42.125,47.75v-31.5h-20.25v31.5H42.125z M39.875,18.5v6.75h-15.75V18.5
		H39.875z M26.375,29.75V32h-2.25v-2.25H26.375z M26.375,36.5v2.25h-2.25V36.5H26.375z M26.375,43.25v2.25h-2.25v-2.25H26.375z
		 M37.625,23v-2.25h-11.25V23H37.625z M30.875,32v-2.25h2.25V32H30.875z M30.875,38.75V36.5h2.25v2.25H30.875z M30.875,45.5v-2.25
		h2.25v2.25H30.875z M37.625,32v-2.25h2.25V32H37.625z M37.625,38.75V36.5h2.25v2.25H37.625z M37.625,45.5v-2.25h2.25v2.25H37.625z"
		/>
</g>
</svg>
