<?xml version="1.0" encoding="utf-8"?>
<!-- Generator: Adobe Illustrator 15.1.0, SVG Export Plug-In . SVG Version: 6.00 Build 0)  -->
<!DOCTYPE svg PUBLIC "-//W3C//DTD SVG 1.0//EN" "http://www.w3.org/TR/2001/REC-SVG-20010904/DTD/svg10.dtd">
<svg version="1.0" id="icon" xmlns="http://www.w3.org/2000/svg" xmlns:xlink="http://www.w3.org/1999/xlink" x="0px" y="0px"
	 width="64px" height="64px" viewBox="0 0 64 64" enable-background="new 0 0 64 64" xml:space="preserve">
<g>
	<path fill="#231F20" d="M42.257,35.322c0.516,0,1.012,0.097,1.486,0.29s0.893,0.472,1.256,0.835l3.867,3.867
		c0.363,0.363,0.643,0.781,0.836,1.256s0.289,0.971,0.289,1.486s-0.096,1.01-0.289,1.484s-0.473,0.895-0.836,1.258
		c-0.668,0.68-1.277,1.279-1.828,1.801s-1.119,0.961-1.705,1.318s-1.236,0.627-1.951,0.809S41.806,50,40.798,50
		c-1.465,0-2.971-0.229-4.518-0.686s-3.085-1.09-4.614-1.898s-3.029-1.77-4.5-2.883s-2.859-2.33-4.166-3.648
		s-2.511-2.713-3.612-4.184c-1.102-1.47-2.051-2.97-2.848-4.499s-1.418-3.056-1.863-4.579s-0.668-3-0.668-4.43
		c0-1.008,0.091-1.866,0.272-2.575s0.451-1.359,0.809-1.951s0.797-1.16,1.318-1.705s1.122-1.151,1.802-1.819
		c0.363-0.363,0.779-0.645,1.248-0.844S20.425,14,20.952,14c0.516,0,1.011,0.1,1.485,0.299s0.894,0.48,1.257,0.844l3.867,3.867
		c0.363,0.363,0.642,0.782,0.835,1.257s0.29,0.97,0.29,1.485s-0.088,0.976-0.264,1.38s-0.393,0.771-0.65,1.099
		s-0.542,0.627-0.853,0.896s-0.595,0.533-0.853,0.791s-0.475,0.519-0.65,0.782s-0.264,0.548-0.264,0.853
		c0,0.445,0.158,0.826,0.475,1.143l9.686,9.686c0.316,0.316,0.697,0.475,1.143,0.475c0.305,0,0.59-0.088,0.854-0.264
		s0.523-0.393,0.781-0.65s0.521-0.543,0.791-0.854s0.568-0.594,0.896-0.852s0.695-0.475,1.1-0.65S41.741,35.322,42.257,35.322z
		 M40.798,47.75c0.844,0,1.551-0.08,2.119-0.238s1.08-0.387,1.537-0.686s0.902-0.67,1.336-1.115s0.932-0.949,1.494-1.512
		c0.316-0.316,0.475-0.697,0.475-1.143c0-0.211-0.084-0.461-0.254-0.748s-0.391-0.588-0.66-0.904s-0.57-0.643-0.904-0.977
		s-0.662-0.65-0.984-0.949s-0.621-0.574-0.896-0.826s-0.49-0.453-0.643-0.605c-0.316-0.316-0.703-0.475-1.16-0.475
		c-0.305,0-0.586,0.088-0.844,0.264s-0.516,0.393-0.773,0.65s-0.523,0.541-0.799,0.852s-0.578,0.596-0.906,0.854
		s-0.693,0.475-1.098,0.65s-0.865,0.264-1.381,0.264s-1.01-0.098-1.484-0.291s-0.895-0.471-1.258-0.834l-9.686-9.686
		c-0.363-0.363-0.642-0.782-0.835-1.257s-0.29-0.97-0.29-1.485s0.088-0.976,0.264-1.38s0.393-0.771,0.65-1.099
		s0.542-0.63,0.853-0.905s0.595-0.542,0.853-0.8s0.475-0.516,0.65-0.773s0.264-0.539,0.264-0.844c0-0.457-0.158-0.844-0.475-1.16
		c-0.152-0.152-0.354-0.366-0.606-0.642s-0.527-0.574-0.826-0.896s-0.615-0.65-0.949-0.984s-0.659-0.636-0.976-0.905
		s-0.618-0.489-0.905-0.659s-0.536-0.255-0.747-0.255c-0.445,0-0.826,0.158-1.143,0.475c-0.562,0.562-1.063,1.061-1.503,1.494
		s-0.814,0.879-1.125,1.336s-0.545,0.97-0.703,1.538s-0.237,1.269-0.237,2.101c0,1.312,0.214,2.666,0.642,4.061
		s1.02,2.789,1.775,4.184s1.649,2.769,2.681,4.122c1.031,1.353,2.156,2.634,3.375,3.841s2.505,2.32,3.858,3.34
		s2.725,1.9,4.113,2.645c1.39,0.744,2.772,1.324,4.149,1.74S39.532,47.75,40.798,47.75z"/>
</g>
</svg>
