<?xml version="1.0" encoding="utf-8"?>
<!-- Generator: Adobe Illustrator 15.1.0, SVG Export Plug-In . SVG Version: 6.00 Build 0)  -->
<!DOCTYPE svg PUBLIC "-//W3C//DTD SVG 1.0//EN" "http://www.w3.org/TR/2001/REC-SVG-20010904/DTD/svg10.dtd">
<svg version="1.0" id="icon" xmlns="http://www.w3.org/2000/svg" xmlns:xlink="http://www.w3.org/1999/xlink" x="0px" y="0px"
	 width="64px" height="64px" viewBox="0 0 64 64" enable-background="new 0 0 64 64" xml:space="preserve">
<g>
	<path fill="#231F20" d="M37.379,35.146c1.594,0.551,3.032,1.321,4.315,2.311c1.283,0.99,2.373,2.137,3.27,3.438
		s1.585,2.725,2.065,4.271S47.75,48.324,47.75,50H45.5c0-1.922-0.343-3.707-1.028-5.354s-1.632-3.072-2.839-4.279
		s-2.634-2.154-4.28-2.84C35.706,36.843,33.922,36.5,32,36.5c-1.254,0-2.461,0.158-3.621,0.475s-2.241,0.764-3.243,1.344
		s-1.91,1.277-2.725,2.092s-1.512,1.723-2.092,2.725s-1.028,2.084-1.345,3.244S18.5,48.746,18.5,50h-2.25
		c0-1.688,0.246-3.303,0.738-4.844s1.189-2.955,2.092-4.244s1.995-2.426,3.278-3.41s2.716-1.764,4.298-2.338
		c-0.914-0.492-1.734-1.09-2.461-1.793s-1.345-1.485-1.854-2.347s-0.902-1.781-1.178-2.76s-0.413-1.983-0.413-3.015
		c0-1.559,0.293-3.021,0.879-4.386s1.389-2.558,2.408-3.577s2.212-1.822,3.577-2.408S30.441,14,32,14s3.021,0.293,4.386,0.879
		s2.558,1.389,3.577,2.408s1.822,2.212,2.408,3.577s0.879,2.827,0.879,4.386c0,1.031-0.138,2.033-0.413,3.006
		s-0.668,1.887-1.178,2.742s-1.125,1.638-1.846,2.347S38.281,34.654,37.379,35.146z M23,25.25c0,1.242,0.237,2.408,0.712,3.498
		s1.119,2.042,1.934,2.856s1.767,1.459,2.856,1.934S30.758,34.25,32,34.25s2.408-0.237,3.498-0.712s2.042-1.119,2.856-1.934
		s1.459-1.767,1.934-2.856S41,26.492,41,25.25s-0.237-2.408-0.712-3.498s-1.119-2.042-1.934-2.856s-1.767-1.459-2.856-1.934
		S33.242,16.25,32,16.25s-2.408,0.237-3.498,0.712s-2.042,1.119-2.856,1.934s-1.459,1.767-1.934,2.856S23,24.008,23,25.25z"/>
</g>
</svg>
