<?xml version="1.0" encoding="utf-8"?>
<!-- Generator: Adobe Illustrator 15.1.0, SVG Export Plug-In . SVG Version: 6.00 Build 0)  -->
<!DOCTYPE svg PUBLIC "-//W3C//DTD SVG 1.0//EN" "http://www.w3.org/TR/2001/REC-SVG-20010904/DTD/svg10.dtd">
<svg version="1.0" id="icon" xmlns="http://www.w3.org/2000/svg" xmlns:xlink="http://www.w3.org/1999/xlink" x="0px" y="0px"
	 width="64px" height="64px" viewBox="0 0 64 64" enable-background="new 0 0 64 64" xml:space="preserve">
<g>
	<path fill="#231F20" d="M32,17.375c1.242,0,2.438,0.161,3.586,0.483s2.224,0.776,3.226,1.362s1.913,1.289,2.733,2.109
		s1.523,1.731,2.109,2.733s1.04,2.077,1.362,3.226s0.483,2.344,0.483,3.586V43.25c0,0.469-0.088,0.908-0.264,1.318
		s-0.416,0.768-0.721,1.072s-0.662,0.545-1.072,0.721s-0.85,0.264-1.318,0.264H38.75v-13.5h3.375c0.387,0,0.762,0.064,1.125,0.193
		v-2.443c0-1.547-0.296-3.003-0.888-4.368s-1.397-2.558-2.417-3.577s-2.212-1.825-3.577-2.417S33.547,19.625,32,19.625
		s-3.003,0.296-4.368,0.888s-2.558,1.397-3.577,2.417s-1.825,2.212-2.417,3.577s-0.888,2.821-0.888,4.368v2.443
		c0.363-0.129,0.738-0.193,1.125-0.193h3.375v13.5h-3.375c-0.469,0-0.908-0.088-1.318-0.264s-0.768-0.416-1.072-0.721
		s-0.545-0.662-0.721-1.072S18.5,43.719,18.5,43.25V30.875c0-1.242,0.161-2.438,0.483-3.586s0.776-2.224,1.362-3.226
		s1.289-1.913,2.109-2.733s1.731-1.523,2.733-2.109s2.077-1.04,3.226-1.362S30.758,17.375,32,17.375z M21.875,35.375
		c-0.305,0-0.568,0.111-0.791,0.334S20.75,36.195,20.75,36.5v6.75c0,0.305,0.111,0.568,0.334,0.791s0.486,0.334,0.791,0.334H23v-9
		H21.875z M42.125,44.375c0.305,0,0.568-0.111,0.791-0.334s0.334-0.486,0.334-0.791V36.5c0-0.305-0.111-0.568-0.334-0.791
		s-0.486-0.334-0.791-0.334H41v9H42.125z"/>
</g>
</svg>
