<?xml version="1.0" encoding="utf-8"?>
<!-- Generator: Adobe Illustrator 15.1.0, SVG Export Plug-In . SVG Version: 6.00 Build 0)  -->
<!DOCTYPE svg PUBLIC "-//W3C//DTD SVG 1.0//EN" "http://www.w3.org/TR/2001/REC-SVG-20010904/DTD/svg10.dtd">
<svg version="1.0" id="icon" xmlns="http://www.w3.org/2000/svg" xmlns:xlink="http://www.w3.org/1999/xlink" x="0px" y="0px"
	 width="64px" height="64px" viewBox="0 0 64 64" enable-background="new 0 0 64 64" xml:space="preserve">
<g>
	<path fill="#231F20" d="M25.303,29.75l5.994,18h-2.443l-1.494-4.5h-6.75l-1.494,4.5h-2.443l5.994-18H25.303z M26.604,41
		l-2.619-7.875L21.365,41H26.604z M47.293,28.098c0.023,0.094,0.035,0.17,0.035,0.229v1.688c0,0.047-0.012,0.117-0.035,0.211
		c-0.094,0.023-0.17,0.035-0.229,0.035c-0.469-0.012-0.932-0.023-1.389-0.035s-0.92-0.018-1.389-0.018h-5.643
		c-0.012,0.703-0.009,1.409,0.009,2.118s0.038,1.415,0.062,2.118c0.012,0.293-0.035,0.586-0.141,0.879s-0.281,0.527-0.527,0.703
		c-0.164,0.117-0.396,0.208-0.694,0.272s-0.618,0.111-0.958,0.141s-0.671,0.047-0.993,0.053S34.824,36.5,34.637,36.5
		c-0.07,0-0.182-0.003-0.334-0.009s-0.258-0.038-0.316-0.097c-0.035-0.035-0.076-0.129-0.123-0.281s-0.082-0.258-0.105-0.316
		c-0.082-0.305-0.179-0.589-0.29-0.853s-0.249-0.53-0.413-0.8c0.398,0.047,0.797,0.079,1.195,0.097s0.797,0.026,1.195,0.026
		c0.281,0,0.495-0.044,0.642-0.132s0.22-0.284,0.22-0.589v-3.34h-5.607c-0.469,0-0.938,0.006-1.406,0.018s-0.938,0.023-1.406,0.035
		c-0.094,0-0.164-0.018-0.211-0.053c-0.023-0.07-0.035-0.135-0.035-0.193v-1.688c0-0.035,0.003-0.079,0.009-0.132
		s0.021-0.091,0.044-0.114c0.07-0.023,0.135-0.035,0.193-0.035c0.469,0.012,0.938,0.023,1.406,0.035s0.938,0.018,1.406,0.018h5.607
		c-0.023-0.305-0.038-0.612-0.044-0.923s-0.038-0.618-0.097-0.923c0.258,0.023,0.51,0.047,0.756,0.07s0.498,0.047,0.756,0.07
		c0.41-0.293,0.803-0.604,1.178-0.932s0.75-0.662,1.125-1.002h-5.414c-0.492,0-0.981,0.006-1.468,0.018s-0.976,0.023-1.468,0.035
		c-0.094,0-0.164-0.018-0.211-0.053c-0.023-0.07-0.035-0.135-0.035-0.193v-1.67c0-0.047,0.012-0.117,0.035-0.211
		c0.094-0.023,0.164-0.035,0.211-0.035c0.492,0.012,0.981,0.023,1.468,0.035s0.976,0.018,1.468,0.018h6.557
		c0.188,0,0.363-0.026,0.527-0.079s0.311-0.079,0.439-0.079c0.094,0,0.229,0.07,0.404,0.211s0.352,0.305,0.527,0.492
		s0.331,0.378,0.466,0.571s0.202,0.337,0.202,0.431c0,0.117-0.038,0.208-0.114,0.272s-0.161,0.12-0.255,0.167
		c-0.164,0.082-0.322,0.188-0.475,0.316s-0.299,0.252-0.439,0.369c-0.609,0.504-1.222,0.993-1.837,1.468s-1.257,0.929-1.925,1.362
		v0.193h5.643c0.469,0,0.932-0.006,1.389-0.018s0.92-0.023,1.389-0.035C47.146,28.045,47.223,28.062,47.293,28.098z M28.027,23.562
		c0.012-0.809,0.021-1.611,0.026-2.408s-0.003-1.6-0.026-2.408c0-0.059,0.012-0.123,0.035-0.193c0.094-0.023,0.17-0.035,0.229-0.035
		c0.492,0.012,0.981,0.023,1.468,0.035s0.976,0.018,1.468,0.018h4.834c0-0.375-0.003-0.762-0.009-1.16s-0.056-0.785-0.149-1.16
		c0.809,0,1.611,0.035,2.408,0.105c0.07,0.012,0.144,0.029,0.22,0.053s0.114,0.082,0.114,0.176c0,0.07-0.018,0.141-0.053,0.211
		s-0.064,0.141-0.088,0.211c-0.023,0.059-0.044,0.149-0.062,0.272s-0.029,0.252-0.035,0.387s-0.009,0.264-0.009,0.387s0,0.22,0,0.29
		v0.229h5.203c0.492,0,0.981-0.006,1.468-0.018s0.976-0.023,1.468-0.035c0.082,0,0.158,0.018,0.229,0.053
		c0.035,0.059,0.053,0.117,0.053,0.176c-0.012,0.199-0.023,0.407-0.035,0.624s-0.018,0.425-0.018,0.624v1.02
		c0,0.422,0.006,0.847,0.018,1.274s0.023,0.853,0.035,1.274c0,0.035-0.003,0.076-0.009,0.123s-0.021,0.082-0.044,0.105
		c-0.094,0.023-0.17,0.035-0.229,0.035s-0.193,0.003-0.404,0.009s-0.434,0.009-0.668,0.009s-0.448-0.003-0.642-0.009
		s-0.308-0.026-0.343-0.062c-0.023-0.129-0.038-0.337-0.044-0.624s-0.006-0.592,0-0.914s0.012-0.633,0.018-0.932
		s0.009-0.53,0.009-0.694H30.365c0,0.059,0.003,0.176,0.009,0.352s0.009,0.378,0.009,0.606s0,0.472,0,0.729s0,0.495,0,0.712
		s-0.006,0.398-0.018,0.545s-0.029,0.231-0.053,0.255c-0.094,0.023-0.17,0.035-0.229,0.035h-1.793c-0.129,0-0.205-0.018-0.229-0.053
		S28.027,23.68,28.027,23.562z"/>
</g>
</svg>
