<?xml version="1.0" encoding="utf-8"?>
<!-- Generator: Adobe Illustrator 15.1.0, SVG Export Plug-In . SVG Version: 6.00 Build 0)  -->
<!DOCTYPE svg PUBLIC "-//W3C//DTD SVG 1.0//EN" "http://www.w3.org/TR/2001/REC-SVG-20010904/DTD/svg10.dtd">
<svg version="1.0" id="icon" xmlns="http://www.w3.org/2000/svg" xmlns:xlink="http://www.w3.org/1999/xlink" x="0px" y="0px"
	 width="64px" height="64px" viewBox="0 0 64 64" enable-background="new 0 0 64 64" xml:space="preserve">
<g>
	<path fill="#231F20" d="M41,14.325c0.316,0,0.609,0.059,0.879,0.176s0.506,0.278,0.711,0.483s0.367,0.442,0.484,0.712
		s0.176,0.562,0.176,0.879v20.25h-19.6l-2.9-2.9v-17.35c0-0.316,0.059-0.609,0.176-0.879s0.278-0.507,0.483-0.712
		s0.442-0.366,0.712-0.483s0.562-0.176,0.879-0.176H41z M41,16.575h-2.25v9h-13.5v-9H23v16.4l1.6,1.6h0.65v-6.75h13.5v6.75H41
		V16.575z M27.5,23.325h9v-6.75h-9V23.325z M36.5,30.075h-9v4.5h2.25v-2.25H32v2.25h4.5V30.075z M36.834,42.784l1.582,1.582
		l-5.291,5.309l-5.291-5.309l1.582-1.582L32,45.368v-6.293h2.25v6.293L36.834,42.784z"/>
</g>
</svg>
