<?xml version="1.0" encoding="utf-8"?>
<!-- Generator: Adobe Illustrator 15.1.0, SVG Export Plug-In . SVG Version: 6.00 Build 0)  -->
<!DOCTYPE svg PUBLIC "-//W3C//DTD SVG 1.0//EN" "http://www.w3.org/TR/2001/REC-SVG-20010904/DTD/svg10.dtd">
<svg version="1.0" id="icon" xmlns="http://www.w3.org/2000/svg" xmlns:xlink="http://www.w3.org/1999/xlink" x="0px" y="0px"
	 width="64px" height="64px" viewBox="0 0 64 64" enable-background="new 0 0 64 64" xml:space="preserve">
<g>
	<path fill="#231F20" d="M40.438,16.241c1.324,0,2.566,0.252,3.727,0.756s2.174,1.187,3.041,2.048s1.55,1.875,2.048,3.041
		S50,24.491,50,25.804c0,1.277-0.243,2.502-0.729,3.674s-1.175,2.203-2.065,3.094L32,47.759L16.795,32.571
		c-0.891-0.891-1.579-1.922-2.065-3.094S14,27.081,14,25.804c0-1.312,0.249-2.552,0.747-3.718s1.181-2.18,2.048-3.041
		s1.881-1.544,3.041-2.048s2.402-0.756,3.727-0.756c0.973,0,1.84,0.111,2.602,0.334s1.468,0.53,2.118,0.923s1.271,0.864,1.863,1.415
		s1.21,1.154,1.854,1.811c0.645-0.656,1.263-1.26,1.854-1.811s1.213-1.022,1.863-1.415s1.356-0.7,2.118-0.923
		S39.465,16.241,40.438,16.241z M45.605,30.972c0.691-0.691,1.219-1.482,1.582-2.373s0.545-1.822,0.545-2.795
		c0-1.02-0.188-1.972-0.562-2.856s-0.894-1.652-1.556-2.303s-1.436-1.16-2.32-1.529s-1.837-0.554-2.856-0.554
		c-0.984,0-1.857,0.155-2.619,0.466s-1.465,0.718-2.109,1.222s-1.263,1.075-1.854,1.714s-1.21,1.286-1.854,1.942
		c-0.633-0.633-1.248-1.271-1.846-1.916s-1.222-1.225-1.872-1.74s-1.359-0.938-2.127-1.266s-1.632-0.492-2.593-0.492
		c-1.008,0-1.957,0.19-2.848,0.571s-1.667,0.902-2.329,1.564s-1.184,1.438-1.564,2.329s-0.571,1.84-0.571,2.848
		c0,0.973,0.185,1.904,0.554,2.795s0.899,1.682,1.591,2.373L32,44.577L45.605,30.972z"/>
</g>
</svg>
