<?xml version="1.0" encoding="utf-8"?>
<!-- Generator: Adobe Illustrator 15.1.0, SVG Export Plug-In . SVG Version: 6.00 Build 0)  -->
<!DOCTYPE svg PUBLIC "-//W3C//DTD SVG 1.0//EN" "http://www.w3.org/TR/2001/REC-SVG-20010904/DTD/svg10.dtd">
<svg version="1.0" id="icon" xmlns="http://www.w3.org/2000/svg" xmlns:xlink="http://www.w3.org/1999/xlink" x="0px" y="0px"
	 width="64px" height="64px" viewBox="0 0 64 64" enable-background="new 0 0 64 64" xml:space="preserve">
<g>
	<path fill="#231F20" d="M21.664,16.944c-0.68,0.68-1.286,1.421-1.819,2.224s-0.981,1.644-1.345,2.522s-0.642,1.79-0.835,2.733
		s-0.29,1.896-0.29,2.856s0.097,1.913,0.29,2.856s0.472,1.854,0.835,2.733s0.812,1.72,1.345,2.522s1.14,1.544,1.819,2.224l-1.6,1.6
		c-1.594-1.605-2.815-3.431-3.665-5.476s-1.274-4.198-1.274-6.46s0.425-4.415,1.274-6.46s2.071-3.87,3.665-5.476L21.664,16.944z
		 M26.428,21.708c-0.738,0.738-1.307,1.591-1.705,2.558s-0.598,1.972-0.598,3.015s0.199,2.048,0.598,3.015s0.967,1.819,1.705,2.558
		l-1.582,1.582c-0.949-0.949-1.682-2.042-2.197-3.278s-0.773-2.528-0.773-3.876s0.258-2.64,0.773-3.876s1.248-2.329,2.197-3.278
		L26.428,21.708z M30.875,23.905h2.25v24.75h-2.25V23.905z M39.154,20.126c0.949,0.949,1.682,2.042,2.197,3.278
		s0.773,2.528,0.773,3.876s-0.258,2.64-0.773,3.876s-1.248,2.329-2.197,3.278l-1.582-1.582c0.738-0.738,1.304-1.591,1.696-2.558
		s0.589-1.972,0.589-3.015s-0.196-2.048-0.589-3.015s-0.958-1.819-1.696-2.558L39.154,20.126z M43.936,15.345
		c1.594,1.605,2.815,3.431,3.665,5.476s1.274,4.198,1.274,6.46s-0.425,4.415-1.274,6.46s-2.071,3.87-3.665,5.476l-1.6-1.6
		c0.68-0.68,1.286-1.421,1.819-2.224s0.981-1.644,1.345-2.522s0.642-1.79,0.835-2.733s0.29-1.896,0.29-2.856
		s-0.097-1.913-0.29-2.856s-0.472-1.854-0.835-2.733s-0.812-1.72-1.345-2.522s-1.14-1.544-1.819-2.224L43.936,15.345z"/>
</g>
</svg>
