<?xml version="1.0" encoding="utf-8"?>
<!-- Generator: Adobe Illustrator 15.1.0, SVG Export Plug-In . SVG Version: 6.00 Build 0)  -->
<!DOCTYPE svg PUBLIC "-//W3C//DTD SVG 1.0//EN" "http://www.w3.org/TR/2001/REC-SVG-20010904/DTD/svg10.dtd">
<svg version="1.0" id="icon" xmlns="http://www.w3.org/2000/svg" xmlns:xlink="http://www.w3.org/1999/xlink" x="0px" y="0px"
	 width="64px" height="64px" viewBox="0 0 64 64" enable-background="new 0 0 64 64" xml:space="preserve">
<g>
	<path fill="#231F20" d="M50,16.25v24.258c-0.328-0.305-0.683-0.565-1.063-0.782s-0.776-0.401-1.187-0.554V25.25h-31.5V45.5h19.688
		l2.25,2.25H14v-31.5h6.75V14H23v2.25h18V14h2.25v2.25H50z M47.75,23v-4.5h-4.5v2.25H41V18.5H23v2.25h-2.25V18.5h-4.5V23H47.75z
		 M23,34.25h-2.25V32H23V34.25z M23,38.75h-2.25V36.5H23V38.75z M20.75,41H23v2.25h-2.25V41z M29.75,29.75H27.5V27.5h2.25V29.75z
		 M29.75,34.25H27.5V32h2.25V34.25z M29.75,38.75H27.5V36.5h2.25V38.75z M27.5,41h2.25v2.25H27.5V41z M36.5,29.75h-2.25V27.5h2.25
		V29.75z M34.25,32h2.25v2.25h-2.25V32z M34.25,36.5h2.25v2.25h-2.25V36.5z M40.35,41c0.586,0,1.233-0.015,1.942-0.044
		s1.421-0.026,2.136,0.009s1.406,0.12,2.074,0.255s1.263,0.369,1.784,0.703s0.938,0.788,1.248,1.362S50,44.598,50,45.5
		c0,0.621-0.12,1.204-0.36,1.749s-0.562,1.02-0.967,1.424s-0.882,0.727-1.433,0.967S46.109,50,45.5,50v-2.25
		c0.316,0,0.609-0.059,0.879-0.176s0.507-0.278,0.712-0.483s0.366-0.442,0.483-0.712s0.176-0.562,0.176-0.879
		s-0.059-0.609-0.176-0.879s-0.278-0.507-0.483-0.712s-0.442-0.366-0.712-0.483S45.816,43.25,45.5,43.25h-5.15l2.848,2.865
		l-1.582,1.582l-5.572-5.572l5.572-5.572l1.582,1.582L40.35,41z M43.25,29.75H41V27.5h2.25V29.75z M41,32h2.25v2.25H41V32z"/>
</g>
</svg>
