<?xml version="1.0" encoding="utf-8"?>
<!-- Generator: Adobe Illustrator 15.1.0, SVG Export Plug-In . SVG Version: 6.00 Build 0)  -->
<!DOCTYPE svg PUBLIC "-//W3C//DTD SVG 1.0//EN" "http://www.w3.org/TR/2001/REC-SVG-20010904/DTD/svg10.dtd">
<svg version="1.0" id="icon" xmlns="http://www.w3.org/2000/svg" xmlns:xlink="http://www.w3.org/1999/xlink" x="0px" y="0px"
	 width="64px" height="64px" viewBox="0 0 64 64" enable-background="new 0 0 64 64" xml:space="preserve">
<g>
	<path fill="#231F20" d="M47.205,19.036c0.621,0.621,1.14,1.301,1.556,2.039s0.727,1.506,0.932,2.303S50,24.986,50,25.812
		s-0.103,1.635-0.308,2.426s-0.516,1.556-0.932,2.294s-0.935,1.418-1.556,2.039L32,47.759L16.795,32.571
		c-0.621-0.621-1.14-1.301-1.556-2.039s-0.727-1.503-0.932-2.294S14,26.639,14,25.812s0.103-1.638,0.308-2.435
		s0.516-1.564,0.932-2.303s0.935-1.418,1.556-2.039c0.914-0.902,1.951-1.594,3.111-2.074s2.379-0.721,3.656-0.721
		s2.496,0.24,3.656,0.721s2.197,1.172,3.111,2.074L32,20.724l1.67-1.688c0.914-0.902,1.951-1.594,3.111-2.074
		s2.379-0.721,3.656-0.721s2.496,0.24,3.656,0.721S46.291,18.134,47.205,19.036z"/>
</g>
</svg>
