<?xml version="1.0" encoding="utf-8"?>
<!-- Generator: Adobe Illustrator 15.1.0, SVG Export Plug-In . SVG Version: 6.00 Build 0)  -->
<!DOCTYPE svg PUBLIC "-//W3C//DTD SVG 1.0//EN" "http://www.w3.org/TR/2001/REC-SVG-20010904/DTD/svg10.dtd">
<svg version="1.0" id="icon" xmlns="http://www.w3.org/2000/svg" xmlns:xlink="http://www.w3.org/1999/xlink" x="0px" y="0px"
	 width="64px" height="64px" viewBox="0 0 64 64" enable-background="new 0 0 64 64" xml:space="preserve">
<g>
	<path fill="#231F20" d="M47.75,14v36H19.625c-0.469,0-0.908-0.088-1.318-0.264s-0.768-0.416-1.072-0.721s-0.545-0.662-0.721-1.072
		s-0.264-0.85-0.264-1.318V18.5c0-0.586,0.126-1.148,0.378-1.688s0.586-1.017,1.002-1.433s0.894-0.75,1.433-1.002
		S20.164,14,20.75,14H47.75z M45.5,16.25H20.75c-0.27,0-0.539,0.067-0.809,0.202s-0.51,0.308-0.721,0.519s-0.384,0.451-0.519,0.721
		S18.5,18.23,18.5,18.5v24.943c0.387-0.129,0.762-0.193,1.125-0.193H45.5V16.25z M45.5,45.5H19.625
		c-0.305,0-0.568,0.111-0.791,0.334S18.5,46.32,18.5,46.625s0.111,0.568,0.334,0.791s0.486,0.334,0.791,0.334H45.5V45.5z M37.273,41
		c-1.207,0-2.455-0.243-3.744-0.729s-2.545-1.143-3.77-1.969s-2.383-1.787-3.473-2.883s-2.045-2.256-2.865-3.48
		s-1.471-2.473-1.951-3.744s-0.721-2.499-0.721-3.683c0-0.645,0.056-1.195,0.167-1.652s0.278-0.879,0.501-1.266
		s0.501-0.756,0.835-1.107s0.718-0.744,1.151-1.178c0.27-0.258,0.571-0.457,0.905-0.598s0.688-0.211,1.063-0.211
		s0.729,0.07,1.063,0.211s0.63,0.34,0.888,0.598c0.281,0.281,0.604,0.577,0.967,0.888s0.707,0.642,1.029,0.993
		s0.592,0.727,0.809,1.125s0.324,0.826,0.324,1.283c0,0.363-0.059,0.686-0.176,0.967s-0.27,0.542-0.457,0.782
		s-0.398,0.469-0.633,0.686s-0.469,0.442-0.703,0.677l-0.141,0.369c0,0.082,0.133,0.275,0.396,0.58s0.598,0.665,1.002,1.081
		s0.846,0.867,1.326,1.354s0.941,0.943,1.381,1.371s0.828,0.806,1.168,1.134s0.568,0.551,0.686,0.668
		c0.094,0.094,0.217,0.141,0.369,0.141c0.129,0,0.258-0.053,0.387-0.158s0.264-0.234,0.404-0.387s0.297-0.322,0.467-0.51
		s0.363-0.357,0.58-0.51s0.459-0.281,0.729-0.387s0.574-0.158,0.914-0.158c0.457,0,0.885,0.108,1.283,0.325s0.773,0.486,1.125,0.809
		s0.684,0.665,0.994,1.028s0.605,0.686,0.887,0.967c0.258,0.258,0.457,0.557,0.598,0.896s0.211,0.691,0.211,1.055
		c0,0.375-0.07,0.729-0.211,1.063s-0.34,0.636-0.598,0.905c-0.422,0.434-0.811,0.814-1.168,1.143s-0.725,0.604-1.1,0.826
		s-0.793,0.393-1.256,0.51S37.906,41,37.273,41z M25.373,20.75c-0.141,0-0.264,0.053-0.369,0.158
		c-0.316,0.316-0.601,0.595-0.853,0.835s-0.463,0.486-0.633,0.738s-0.299,0.533-0.387,0.844S23,24.025,23,24.494
		c0,1.008,0.217,2.057,0.65,3.146s1.02,2.162,1.758,3.217s1.591,2.06,2.559,3.015c0.967,0.955,1.977,1.793,3.031,2.514
		s2.121,1.295,3.199,1.723s2.104,0.642,3.076,0.642c0.469,0,0.859-0.044,1.17-0.132s0.592-0.22,0.844-0.396s0.494-0.387,0.729-0.633
		s0.51-0.527,0.826-0.844L41,36.395c0-0.059-0.061-0.173-0.184-0.343s-0.281-0.36-0.475-0.571s-0.404-0.431-0.633-0.659
		s-0.449-0.437-0.66-0.624s-0.398-0.343-0.562-0.466s-0.275-0.185-0.334-0.185c-0.188,0-0.381,0.111-0.58,0.334
		s-0.428,0.466-0.686,0.729s-0.564,0.504-0.922,0.721s-0.789,0.325-1.293,0.325c-0.375,0-0.729-0.067-1.062-0.202
		s-0.637-0.337-0.906-0.606l-5.801-5.801c-0.551-0.551-0.826-1.207-0.826-1.969c0-0.504,0.111-0.932,0.334-1.283
		s0.466-0.659,0.729-0.923c0.265-0.264,0.507-0.495,0.729-0.694s0.334-0.393,0.334-0.58c0-0.059-0.061-0.173-0.184-0.343
		s-0.281-0.36-0.475-0.571s-0.402-0.431-0.625-0.659s-0.439-0.437-0.65-0.624s-0.398-0.343-0.562-0.466S25.432,20.75,25.373,20.75z"
		/>
</g>
</svg>
