<?xml version="1.0" encoding="utf-8"?>
<!-- Generator: Adobe Illustrator 15.1.0, SVG Export Plug-In . SVG Version: 6.00 Build 0)  -->
<!DOCTYPE svg PUBLIC "-//W3C//DTD SVG 1.0//EN" "http://www.w3.org/TR/2001/REC-SVG-20010904/DTD/svg10.dtd">
<svg version="1.0" id="icon" xmlns="http://www.w3.org/2000/svg" xmlns:xlink="http://www.w3.org/1999/xlink" x="0px" y="0px"
	 width="64px" height="64px" viewBox="0 0 64 64" enable-background="new 0 0 64 64" xml:space="preserve">
<g>
	<path fill="#231F20" d="M48.875,39.875h-15.75v2.25h4.5v2.25h-11.25v-2.25h4.5v-2.25h-15.75v-20.25h33.75V39.875z M17.375,21.875
		v15.75h29.25v-15.75H17.375z M21.875,28.625v-2.25h2.25v2.25H21.875z M21.875,33.125v-2.25h2.25v2.25H21.875z M26.375,28.625v-2.25
		h2.25v2.25H26.375z M26.375,33.125v-2.25h2.25v2.25H26.375z M30.875,28.625v-2.25h2.25v2.25H30.875z M30.875,33.125v-2.25h2.25
		v2.25H30.875z M35.375,28.625v-2.25h2.25v2.25H35.375z M35.375,33.125v-2.25h2.25v2.25H35.375z M39.875,28.625v-2.25h2.25v2.25
		H39.875z M39.875,33.125v-2.25h2.25v2.25H39.875z"/>
</g>
</svg>
