<?xml version="1.0" encoding="utf-8"?>
<!-- Generator: Adobe Illustrator 15.1.0, SVG Export Plug-In . SVG Version: 6.00 Build 0)  -->
<!DOCTYPE svg PUBLIC "-//W3C//DTD SVG 1.0//EN" "http://www.w3.org/TR/2001/REC-SVG-20010904/DTD/svg10.dtd">
<svg version="1.0" id="icon" xmlns="http://www.w3.org/2000/svg" xmlns:xlink="http://www.w3.org/1999/xlink" x="0px" y="0px"
	 width="64px" height="64px" viewBox="0 0 64 64" enable-background="new 0 0 64 64" xml:space="preserve">
<g>
	<path fill="#231F20" d="M19.625,47.75h9V50h-11.25V19.15l5.15-5.15h21.85v15.117c-0.34-0.305-0.697-0.58-1.072-0.826
		s-0.768-0.463-1.178-0.65V16.25h-18.65l-3.85,3.85V47.75z M46.625,36.5V50h-15.75V36.5h2.25c0-0.891,0.104-1.743,0.309-2.558
		s0.533-1.532,0.984-2.153s1.031-1.116,1.74-1.485s1.572-0.554,2.592-0.554s1.885,0.185,2.594,0.554s1.289,0.864,1.74,1.485
		s0.779,1.339,0.984,2.153s0.307,1.667,0.307,2.558H46.625z M44.375,38.75h-11.25v9h11.25V38.75z M35.375,36.5h6.75v-1.125
		c0-0.469-0.088-0.908-0.264-1.318s-0.416-0.768-0.721-1.072s-0.662-0.545-1.072-0.721S39.219,32,38.75,32s-0.908,0.088-1.318,0.264
		s-0.768,0.416-1.072,0.721s-0.545,0.662-0.721,1.072s-0.264,0.85-0.264,1.318V36.5z"/>
</g>
</svg>
