<?xml version="1.0" encoding="utf-8"?>
<!-- Generator: Adobe Illustrator 15.1.0, SVG Export Plug-In . SVG Version: 6.00 Build 0)  -->
<!DOCTYPE svg PUBLIC "-//W3C//DTD SVG 1.0//EN" "http://www.w3.org/TR/2001/REC-SVG-20010904/DTD/svg10.dtd">
<svg version="1.0" id="icon" xmlns="http://www.w3.org/2000/svg" xmlns:xlink="http://www.w3.org/1999/xlink" x="0px" y="0px"
	 width="64px" height="64px" viewBox="0 0 64 64" enable-background="new 0 0 64 64" xml:space="preserve">
<g>
	<path fill="#231F20" d="M42.125,16.25c0.363,0,0.712,0.056,1.046,0.167s0.642,0.27,0.923,0.475s0.527,0.448,0.738,0.729
		s0.375,0.592,0.492,0.932c0.094,0.281,0.231,0.683,0.413,1.204s0.39,1.119,0.624,1.793s0.489,1.397,0.765,2.171
		s0.548,1.556,0.817,2.347s0.527,1.564,0.773,2.32s0.466,1.453,0.659,2.092s0.346,1.189,0.457,1.652S50,32.926,50,33.125
		c0,0.469-0.088,0.908-0.264,1.318s-0.419,0.768-0.729,1.072s-0.671,0.545-1.081,0.721S47.082,36.5,46.625,36.5H38.82
		c0.059,0.504,0.152,0.959,0.281,1.363s0.275,0.797,0.439,1.178s0.331,0.756,0.501,1.125s0.325,0.762,0.466,1.178
		s0.258,0.869,0.352,1.361S41,43.754,41,44.375c0,0.445-0.053,0.871-0.158,1.275s-0.27,0.762-0.492,1.072s-0.513,0.559-0.87,0.746
		s-0.788,0.281-1.292,0.281c-0.422,0-0.779-0.082-1.072-0.246s-0.586-0.393-0.879-0.686l-10.002-9.984
		c-0.094-0.094-0.316-0.17-0.668-0.229s-0.791-0.103-1.318-0.132s-1.119-0.05-1.775-0.062s-1.33-0.018-2.021-0.018
		s-1.377,0.006-2.057,0.018s-1.312,0.023-1.898,0.035s-1.099,0.023-1.538,0.035S14.199,36.5,14,36.5V16.25H42.125z M16.25,34.25H23
		V18.5h-6.75V34.25z M46.625,34.25c0.305,0,0.568-0.111,0.791-0.334s0.334-0.486,0.334-0.791c0-0.059-0.059-0.284-0.176-0.677
		s-0.275-0.896-0.475-1.512s-0.425-1.307-0.677-2.074s-0.513-1.556-0.782-2.364s-0.539-1.608-0.809-2.399s-0.516-1.518-0.738-2.18
		s-0.413-1.228-0.571-1.696s-0.267-0.785-0.325-0.949c-0.082-0.234-0.223-0.422-0.422-0.562s-0.416-0.211-0.65-0.211H25.25v15.75
		c0.504,0,0.97,0.073,1.397,0.22s0.823,0.401,1.187,0.765c0.199,0.199,0.48,0.486,0.844,0.861s0.779,0.806,1.248,1.293
		c0.469,0.486,0.979,1.01,1.529,1.572s1.104,1.129,1.661,1.697s1.102,1.121,1.635,1.66s1.028,1.029,1.485,1.469
		s0.855,0.811,1.195,1.115s0.592,0.504,0.756,0.598c0.164,0,0.299-0.053,0.404-0.158s0.158-0.24,0.158-0.404
		c0-0.68-0.056-1.295-0.167-1.846s-0.249-1.068-0.413-1.555s-0.346-0.959-0.545-1.416s-0.381-0.926-0.545-1.406
		s-0.302-0.99-0.413-1.529S36.5,36.043,36.5,35.375V34.25H46.625z"/>
</g>
</svg>
