<?xml version="1.0" encoding="utf-8"?>
<!-- Generator: Adobe Illustrator 15.1.0, SVG Export Plug-In . SVG Version: 6.00 Build 0)  -->
<!DOCTYPE svg PUBLIC "-//W3C//DTD SVG 1.0//EN" "http://www.w3.org/TR/2001/REC-SVG-20010904/DTD/svg10.dtd">
<svg version="1.0" id="icon" xmlns="http://www.w3.org/2000/svg" xmlns:xlink="http://www.w3.org/1999/xlink" x="0px" y="0px"
	 width="64px" height="64px" viewBox="0 0 64 64" enable-background="new 0 0 64 64" xml:space="preserve">
<g>
	<path fill="#231F20" d="M33.16,14.237c1.125,0,2.209,0.146,3.252,0.439s2.021,0.709,2.936,1.248s1.746,1.184,2.496,1.934
		s1.395,1.582,1.934,2.496s0.955,1.893,1.248,2.936s0.439,2.127,0.439,3.252c0,1.605-0.309,3.155-0.924,4.649
		s-1.49,2.81-2.627,3.946L27.201,49.833l-1.582-1.582l14.695-14.713c0.926-0.926,1.641-1.995,2.145-3.208s0.756-2.476,0.756-3.788
		c0-1.371-0.268-2.666-0.801-3.885s-1.256-2.285-2.17-3.199s-1.98-1.638-3.199-2.171s-2.514-0.8-3.885-0.8
		c-1.266,0-2.382,0.19-3.349,0.571s-1.86,0.885-2.681,1.512s-1.608,1.339-2.364,2.136s-1.55,1.617-2.382,2.461h7.4v2.25h-11.25
		v-11.25h2.25v7.4c0.645-0.656,1.263-1.292,1.854-1.907s1.184-1.195,1.775-1.74s1.195-1.043,1.811-1.494s1.271-0.838,1.969-1.16
		s1.453-0.574,2.268-0.756S32.176,14.237,33.16,14.237z"/>
</g>
</svg>
