<?xml version="1.0" encoding="utf-8"?>
<!-- Generator: Adobe Illustrator 15.1.0, SVG Export Plug-In . SVG Version: 6.00 Build 0)  -->
<!DOCTYPE svg PUBLIC "-//W3C//DTD SVG 1.0//EN" "http://www.w3.org/TR/2001/REC-SVG-20010904/DTD/svg10.dtd">
<svg version="1.0" id="icon" xmlns="http://www.w3.org/2000/svg" xmlns:xlink="http://www.w3.org/1999/xlink" x="0px" y="0px"
	 width="64px" height="64px" viewBox="0 0 64 64" enable-background="new 0 0 64 64" xml:space="preserve">
<g>
	<path fill="#231F20" d="M38.891,40.675c0.598,0.023,1.163,0.154,1.696,0.395s0.996,0.566,1.389,0.977s0.703,0.885,0.932,1.424
		s0.343,1.107,0.343,1.705c0,0.621-0.12,1.203-0.36,1.748s-0.562,1.02-0.967,1.424s-0.882,0.727-1.433,0.967
		s-1.131,0.361-1.74,0.361c-0.621,0-1.204-0.121-1.749-0.361s-1.02-0.562-1.424-0.967s-0.727-0.879-0.967-1.424
		s-0.36-1.127-0.36-1.748c0-0.832,0.214-1.605,0.642-2.32s1.011-1.266,1.749-1.652l-4.676-9.334l-4.658,9.299
		c0.375,0.199,0.712,0.439,1.011,0.721s0.554,0.598,0.765,0.949s0.375,0.723,0.492,1.115s0.176,0.801,0.176,1.223
		c0,0.621-0.12,1.203-0.36,1.748s-0.562,1.02-0.967,1.424s-0.882,0.727-1.433,0.967s-1.131,0.361-1.74,0.361
		c-0.621,0-1.204-0.121-1.749-0.361s-1.02-0.562-1.424-0.967s-0.727-0.879-0.967-1.424s-0.36-1.127-0.36-1.748
		c0-0.598,0.111-1.164,0.334-1.697s0.527-1.002,0.914-1.406s0.841-0.729,1.362-0.975s1.081-0.387,1.679-0.422l5.66-11.355
		L24.74,17.401l1.02-3.076l6.205,12.445l6.205-12.445l1.02,3.076L33.23,29.319L38.891,40.675z M25.25,47.425
		c0.316,0,0.609-0.059,0.879-0.176s0.507-0.279,0.712-0.484s0.366-0.441,0.483-0.711s0.176-0.562,0.176-0.879
		s-0.059-0.609-0.176-0.879s-0.278-0.508-0.483-0.713s-0.442-0.365-0.712-0.482s-0.562-0.176-0.879-0.176s-0.609,0.059-0.879,0.176
		s-0.507,0.277-0.712,0.482s-0.366,0.443-0.483,0.713S23,44.858,23,45.175s0.059,0.609,0.176,0.879s0.278,0.506,0.483,0.711
		s0.442,0.367,0.712,0.484S24.934,47.425,25.25,47.425z M38.75,47.425c0.316,0,0.609-0.059,0.879-0.176s0.507-0.279,0.712-0.484
		s0.366-0.441,0.483-0.711S41,45.491,41,45.175s-0.059-0.609-0.176-0.879s-0.278-0.508-0.483-0.713s-0.442-0.365-0.712-0.482
		s-0.562-0.176-0.879-0.176s-0.609,0.059-0.879,0.176s-0.507,0.277-0.712,0.482s-0.366,0.443-0.483,0.713S36.5,44.858,36.5,45.175
		s0.059,0.609,0.176,0.879s0.278,0.506,0.483,0.711s0.442,0.367,0.712,0.484S38.434,47.425,38.75,47.425z"/>
</g>
</svg>
