<?xml version="1.0" encoding="utf-8"?>
<!-- Generator: Adobe Illustrator 15.1.0, SVG Export Plug-In . SVG Version: 6.00 Build 0)  -->
<!DOCTYPE svg PUBLIC "-//W3C//DTD SVG 1.0//EN" "http://www.w3.org/TR/2001/REC-SVG-20010904/DTD/svg10.dtd">
<svg version="1.0" id="icon" xmlns="http://www.w3.org/2000/svg" xmlns:xlink="http://www.w3.org/1999/xlink" x="0px" y="0px"
	 width="64px" height="64px" viewBox="0 0 64 64" enable-background="new 0 0 64 64" xml:space="preserve">
<g>
	<path fill="#231F20" d="M42.125,16.25h6.75v31.5h-13.5V45.5h11.25V25.25h-29.25V45.5h11.25v2.25h-13.5v-31.5h6.75V14h2.25v2.25
		h15.75V14h2.25V16.25z M17.375,23h29.25v-4.5h-4.5v2.25h-2.25V18.5h-15.75v2.25h-2.25V18.5h-4.5V23z M35.99,43.197l-2.865-2.848V50
		h-2.25v-9.65l-2.865,2.848l-1.582-1.582L32,36.043l5.572,5.572L35.99,43.197z M35.375,27.5v6.75h-6.75V27.5H35.375z M33.125,32
		v-2.25h-2.25V32H33.125z"/>
</g>
</svg>
