<?xml version="1.0" encoding="utf-8"?>
<!-- Generator: Adobe Illustrator 15.1.0, SVG Export Plug-In . SVG Version: 6.00 Build 0)  -->
<!DOCTYPE svg PUBLIC "-//W3C//DTD SVG 1.0//EN" "http://www.w3.org/TR/2001/REC-SVG-20010904/DTD/svg10.dtd">
<svg version="1.0" id="icon" xmlns="http://www.w3.org/2000/svg" xmlns:xlink="http://www.w3.org/1999/xlink" x="0px" y="0px"
	 width="64px" height="64px" viewBox="0 0 64 64" enable-background="new 0 0 64 64" xml:space="preserve">
<g>
	<path fill="#231F20" d="M36.518,38.768H13.982V25.232h22.535v2.285h-20.25v8.965h20.25V38.768z M18.482,34.197v-4.465h13.535v4.465
		H18.482z M41.018,41.545c1.301,1.125,2.795,1.688,4.482,1.688h0.018v2.285H45.5c-2.062,0-3.926-0.645-5.59-1.934
		c-0.82,0.633-1.708,1.113-2.663,1.441s-1.954,0.492-2.997,0.492h-0.018v-2.285h0.018c1.699,0,3.193-0.545,4.482-1.635V22.332
		c-0.609-0.516-1.292-0.905-2.048-1.169s-1.567-0.396-2.435-0.396h-0.018v-2.285h0.018c1.066,0,2.077,0.158,3.032,0.475
		s1.831,0.779,2.628,1.389c1.617-1.242,3.48-1.863,5.59-1.863h0.018v2.285H45.5c-1.734,0-3.229,0.539-4.482,1.617V41.545z
		 M50.018,25.232v13.535h-6.785v-2.285h4.5v-8.965h-4.5v-2.285H50.018z"/>
</g>
</svg>
