<?xml version="1.0" encoding="utf-8"?>
<!-- Generator: Adobe Illustrator 15.1.0, SVG Export Plug-In . SVG Version: 6.00 Build 0)  -->
<!DOCTYPE svg PUBLIC "-//W3C//DTD SVG 1.0//EN" "http://www.w3.org/TR/2001/REC-SVG-20010904/DTD/svg10.dtd">
<svg version="1.0" id="icon" xmlns="http://www.w3.org/2000/svg" xmlns:xlink="http://www.w3.org/1999/xlink" x="0px" y="0px"
	 width="64px" height="64px" viewBox="0 0 64 64" enable-background="new 0 0 64 64" xml:space="preserve">
<g>
	<path fill="#231F20" d="M18.5,38.803v-4.5H14v-20.25h27v4.5h4.5v13.5h-2.25v-11.25H41v13.5H20.75v2.25H36.5v2.25H18.5z
		 M38.75,32.053v-15.75h-22.5v15.75H38.75z M18.5,18.553h18v11.25h-18V18.553z M20.75,27.553h13.5v-6.75h-13.5V27.553z
		 M44.375,34.303c0.773,0,1.5,0.149,2.18,0.448s1.274,0.703,1.784,1.213s0.914,1.104,1.213,1.784S50,39.154,50,39.928
		s-0.149,1.5-0.448,2.18s-0.703,1.274-1.213,1.784s-1.104,0.914-1.784,1.213s-1.406,0.448-2.18,0.448
		c-0.551,0-1.09-0.079-1.617-0.237s-1.02-0.39-1.477-0.694l-5.344,5.326l-1.582-1.582l5.326-5.344
		c-0.305-0.457-0.536-0.949-0.694-1.477s-0.237-1.066-0.237-1.617c0-0.773,0.149-1.5,0.448-2.18s0.703-1.274,1.213-1.784
		s1.104-0.914,1.784-1.213S43.602,34.303,44.375,34.303z M44.375,43.303c0.469,0,0.908-0.088,1.318-0.264s0.768-0.416,1.072-0.721
		s0.545-0.662,0.721-1.072s0.264-0.85,0.264-1.318s-0.088-0.908-0.264-1.318s-0.416-0.768-0.721-1.072s-0.662-0.545-1.072-0.721
		s-0.85-0.264-1.318-0.264s-0.908,0.088-1.318,0.264s-0.768,0.416-1.072,0.721s-0.545,0.662-0.721,1.072S41,39.459,41,39.928
		s0.088,0.908,0.264,1.318s0.416,0.768,0.721,1.072s0.662,0.545,1.072,0.721S43.906,43.303,44.375,43.303z"/>
</g>
</svg>
