<?xml version="1.0" encoding="utf-8"?>
<!-- Generator: Adobe Illustrator 15.1.0, SVG Export Plug-In . SVG Version: 6.00 Build 0)  -->
<!DOCTYPE svg PUBLIC "-//W3C//DTD SVG 1.0//EN" "http://www.w3.org/TR/2001/REC-SVG-20010904/DTD/svg10.dtd">
<svg version="1.0" id="icon" xmlns="http://www.w3.org/2000/svg" xmlns:xlink="http://www.w3.org/1999/xlink" x="0px" y="0px"
	 width="64px" height="64px" viewBox="0 0 64 64" enable-background="new 0 0 64 64" xml:space="preserve">
<g>
	<path fill="#231F20" d="M29.75,30.26c0,0.973-0.17,1.901-0.51,2.786s-0.809,1.676-1.406,2.373s-1.31,1.277-2.136,1.74
		S23.973,37.918,23,38.047v6.838h-2.25v-6.838c-0.973-0.129-1.872-0.425-2.698-0.888s-1.538-1.043-2.136-1.74
		s-1.066-1.488-1.406-2.373S14,31.232,14,30.26c0-1.055,0.199-2.062,0.598-3.023s0.967-1.811,1.705-2.549
		c0.926-0.938,1.852-1.866,2.777-2.786s1.857-1.849,2.795-2.786c0.938,0.938,1.869,1.866,2.795,2.786s1.852,1.849,2.777,2.786
		c0.738,0.738,1.307,1.588,1.705,2.549S29.75,29.205,29.75,30.26z M16.25,30.26c0,0.668,0.111,1.307,0.334,1.916
		s0.533,1.157,0.932,1.644s0.873,0.899,1.424,1.239s1.154,0.58,1.811,0.721v-8.895H23v8.895c0.656-0.141,1.26-0.381,1.811-0.721
		s1.025-0.753,1.424-1.239s0.709-1.034,0.932-1.644S27.5,30.928,27.5,30.26c0-0.762-0.144-1.479-0.431-2.153
		s-0.694-1.28-1.222-1.819c-0.668-0.668-1.33-1.333-1.986-1.995s-1.318-1.327-1.986-1.995c-0.668,0.668-1.33,1.333-1.986,1.995
		s-1.318,1.327-1.986,1.995c-0.527,0.539-0.935,1.146-1.222,1.819S16.25,29.498,16.25,30.26z M50,31.385v6.75h-2.25v6.75h-22.5
		v-2.25H45.5v-15.75H31.385c-0.141-0.398-0.299-0.788-0.475-1.169s-0.381-0.741-0.615-1.081H47.75v6.75H50z M25.25,39.77
		c1.008-0.352,1.925-0.844,2.751-1.477s1.535-1.365,2.127-2.197s1.052-1.743,1.38-2.733S32,31.338,32,30.26v-1.125h9v11.25H25.25
		V39.77z"/>
</g>
</svg>
