<?xml version="1.0" encoding="utf-8"?>
<!-- Generator: Adobe Illustrator 15.1.0, SVG Export Plug-In . SVG Version: 6.00 Build 0)  -->
<!DOCTYPE svg PUBLIC "-//W3C//DTD SVG 1.0//EN" "http://www.w3.org/TR/2001/REC-SVG-20010904/DTD/svg10.dtd">
<svg version="1.0" id="icon" xmlns="http://www.w3.org/2000/svg" xmlns:xlink="http://www.w3.org/1999/xlink" x="0px" y="0px"
	 width="64px" height="64px" viewBox="0 0 64 64" enable-background="new 0 0 64 64" xml:space="preserve">
<g>
	<path fill="#231F20" d="M15.125,17.375v-2.25h2.25v2.25H15.125z M15.125,21.875v-2.25h2.25v2.25H15.125z M15.125,26.375v-2.25h2.25
		v2.25H15.125z M15.125,30.875v-2.25h2.25v2.25H15.125z M15.125,35.375v-2.25h2.25v2.25H15.125z M15.125,39.875v-2.25h2.25v2.25
		H15.125z M15.125,44.375v-2.25h2.25v2.25H15.125z M15.125,48.875v-2.25h2.25v2.25H15.125z M21.875,15.125v2.25h-2.25v-2.25H21.875z
		 M19.625,48.875v-2.25h2.25v2.25H19.625z M42.125,21.875v20.25h-20.25v-20.25H42.125z M26.375,15.125v2.25h-2.25v-2.25H26.375z
		 M30.875,24.125h-6.75v6.75h6.75V24.125z M24.125,33.125v6.75h6.75v-6.75H24.125z M24.125,48.875v-2.25h2.25v2.25H24.125z
		 M30.875,15.125v2.25h-2.25v-2.25H30.875z M28.625,48.875v-2.25h2.25v2.25H28.625z M35.375,15.125v2.25h-2.25v-2.25H35.375z
		 M39.875,30.875v-6.75h-6.75v6.75H39.875z M33.125,39.875h6.75v-6.75h-6.75V39.875z M33.125,48.875v-2.25h2.25v2.25H33.125z
		 M39.875,15.125v2.25h-2.25v-2.25H39.875z M37.625,48.875v-2.25h2.25v2.25H37.625z M42.125,17.375v-2.25h2.25v2.25H42.125z
		 M42.125,48.875v-2.25h2.25v2.25H42.125z M46.625,15.125h2.25v2.25h-2.25V15.125z M46.625,21.875v-2.25h2.25v2.25H46.625z
		 M46.625,26.375v-2.25h2.25v2.25H46.625z M46.625,30.875v-2.25h2.25v2.25H46.625z M46.625,35.375v-2.25h2.25v2.25H46.625z
		 M46.625,39.875v-2.25h2.25v2.25H46.625z M46.625,44.375v-2.25h2.25v2.25H46.625z M46.625,48.875v-2.25h2.25v2.25H46.625z"/>
</g>
</svg>
