<?xml version="1.0" encoding="utf-8"?>
<!-- Generator: Adobe Illustrator 15.1.0, SVG Export Plug-In . SVG Version: 6.00 Build 0)  -->
<!DOCTYPE svg PUBLIC "-//W3C//DTD SVG 1.0//EN" "http://www.w3.org/TR/2001/REC-SVG-20010904/DTD/svg10.dtd">
<svg version="1.0" id="icon" xmlns="http://www.w3.org/2000/svg" xmlns:xlink="http://www.w3.org/1999/xlink" x="0px" y="0px"
	 width="64px" height="64px" viewBox="0 0 64 64" enable-background="new 0 0 64 64" xml:space="preserve">
<g id="Layer_1_1_">
	<path d="M45.709,22.392c-0.04-0.057-0.08-0.114-0.123-0.17c-3.054-4.156-7.927-6.847-13.418-6.847
		c-8.88,0-16.146,7.037-16.709,15.931c1.353-2.497,7.532-9.09,15.738-9.09c8.206,0,7.441,7.736,7.441,7.736H25.782
		c0.238-3.047,2.436-5.652,2.436-5.652c-9.084,3.692-8.676,13.002-8.676,13.002c0.221,4.352,1.647,7.359,3.542,9.438
		c4.489,4.922,11.612,4.631,11.612,4.631c6.414,0,10.738-2.584,10.738-2.584v-5.966v-1.575c0,0-3.715,2.615-9.82,2.717
		c-10.177-0.204-9.686-7.68-9.686-7.68H48.48c0.001,0,0.001-0.001,0.001-0.002v-4.003C48.481,32.277,48.683,26.59,45.709,22.392z"/>
</g>
</svg>
