<?xml version="1.0" encoding="utf-8"?>
<!-- Generator: Adobe Illustrator 15.1.0, SVG Export Plug-In . SVG Version: 6.00 Build 0)  -->
<!DOCTYPE svg PUBLIC "-//W3C//DTD SVG 1.1//EN" "http://www.w3.org/Graphics/SVG/1.1/DTD/svg11.dtd">
<svg version="1.1" id="icon" xmlns="http://www.w3.org/2000/svg" xmlns:xlink="http://www.w3.org/1999/xlink" x="0px" y="0px"
	 width="64px" height="64px" viewBox="0 0 64 64" enable-background="new 0 0 64 64" xml:space="preserve">
<g>
	<g>
		<path fill="#1A1A18" d="M34.785,25.274c-0.891-0.369-1.826-0.557-2.784-0.557c-2.956,0-5.598,1.765-6.729,4.495
			c-1.536,3.709,0.231,7.978,3.941,9.515c0.891,0.368,1.827,0.556,2.784,0.556c2.956,0,5.598-1.766,6.729-4.497
			C40.262,31.077,38.494,26.81,34.785,25.274z M36.693,33.944c-0.789,1.906-2.633,3.139-4.696,3.139
			c-0.667,0-1.32-0.131-1.942-0.389c-2.589-1.072-3.822-4.051-2.75-6.64c0.789-1.905,2.633-3.137,4.696-3.137
			c0.667,0,1.321,0.131,1.942,0.389C36.531,28.378,37.766,31.356,36.693,33.944z M46.299,31.267l4.66-3.407l-2.627-6.337
			l-5.703,0.886c-0.326-0.364-0.674-0.711-1.037-1.04l0.885-5.703l-6.334-2.623l-3.41,4.657c-0.491-0.024-0.98-0.024-1.467,0.001
			l-3.405-4.658l-6.337,2.625l0.882,5.703c-0.363,0.327-0.71,0.674-1.037,1.036l-5.702-0.885l-2.624,6.338l4.656,3.406
			c-0.025,0.487-0.025,0.979,0,1.468l-4.656,3.406l2.624,6.338l5.703-0.884c0.33,0.366,0.677,0.713,1.036,1.038l-0.882,5.702
			l6.334,2.624l3.408-4.656c0.487,0.025,0.977,0.024,1.467-0.001l3.406,4.657l6.338-2.625l-0.885-5.702
			c0.363-0.327,0.711-0.674,1.039-1.037l5.703,0.884l2.623-6.337l-4.656-3.406C46.326,32.242,46.324,31.751,46.299,31.267z
			 M46.963,40.038l-5.217-0.808l-0.398,0.482c-0.492,0.598-1.041,1.146-1.633,1.632l-0.486,0.398l0.809,5.219l-3.143,1.303
			l-3.119-4.263l-0.625,0.062c-0.76,0.076-1.534,0.078-2.306,0.002l-0.624-0.061l-3.117,4.26l-3.143-1.302l0.808-5.218l-0.484-0.397
			c-0.584-0.48-1.134-1.03-1.634-1.635l-0.398-0.482l-5.215,0.808l-1.302-3.143l4.26-3.117l-0.061-0.623
			c-0.074-0.77-0.074-1.548,0-2.311l0.061-0.624l-4.26-3.116l1.302-3.144l5.217,0.81l0.398-0.484
			c0.487-0.593,1.036-1.142,1.632-1.631l0.484-0.398l-0.808-5.219l3.144-1.302l3.116,4.262l0.624-0.061
			c0.762-0.073,1.536-0.077,2.312-0.002l0.623,0.059l3.117-4.259l3.141,1.301l-0.809,5.216l0.482,0.398
			c0.596,0.491,1.145,1.042,1.635,1.637l0.398,0.484l5.217-0.81l1.303,3.143l-4.266,3.12l0.062,0.626
			c0.076,0.752,0.078,1.528,0.004,2.309l-0.059,0.622l4.258,3.115L46.963,40.038z"/>
	</g>
</g>
</svg>
