<?xml version="1.0" encoding="utf-8"?>
<!-- Generator: Adobe Illustrator 15.1.0, SVG Export Plug-In . SVG Version: 6.00 Build 0)  -->
<!DOCTYPE svg PUBLIC "-//W3C//DTD SVG 1.0//EN" "http://www.w3.org/TR/2001/REC-SVG-20010904/DTD/svg10.dtd">
<svg version="1.0" id="icon" xmlns="http://www.w3.org/2000/svg" xmlns:xlink="http://www.w3.org/1999/xlink" x="0px" y="0px"
	 width="64px" height="64px" viewBox="0 0 64 64" enable-background="new 0 0 64 64" xml:space="preserve">
<g>
	<path fill="#231F20" d="M50,15.45V40.2H26.85l-8.35,8.35V40.2H14V15.45H50z M47.75,17.7h-31.5v20.25h4.5v5.15l5.15-5.15h21.85V17.7
		z M27.5,28.95h-2.25v-4.5h4.5v4.5c0,0.316-0.059,0.609-0.176,0.879s-0.278,0.507-0.483,0.712s-0.442,0.366-0.712,0.483
		S27.816,31.2,27.5,31.2V28.95z M36.5,28.95h-2.25v-4.5h4.5v4.5c0,0.316-0.059,0.609-0.176,0.879s-0.278,0.507-0.483,0.712
		s-0.442,0.366-0.712,0.483S36.816,31.2,36.5,31.2V28.95z"/>
</g>
</svg>
