<?xml version="1.0" encoding="utf-8"?>
<!-- Generator: Adobe Illustrator 15.1.0, SVG Export Plug-In . SVG Version: 6.00 Build 0)  -->
<!DOCTYPE svg PUBLIC "-//W3C//DTD SVG 1.1//EN" "http://www.w3.org/Graphics/SVG/1.1/DTD/svg11.dtd">
<svg version="1.1" id="icon" xmlns="http://www.w3.org/2000/svg" xmlns:xlink="http://www.w3.org/1999/xlink" x="0px" y="0px"
	 width="64px" height="64px" viewBox="0 0 64 64" enable-background="new 0 0 64 64" xml:space="preserve">
<g>
	<g>
		<path fill="#1A1A18" d="M45.71,17.875v-1.469l-0.008-1.012l-1.009-0.085l-8.072-0.004c-1.891,0-3.566,0.917-4.621,2.325
			c-1.055-1.408-2.73-2.325-4.621-2.325l-9.089,0.001v2.568H13.9v30.819H50.1V17.875H45.71z M30.845,46.495H16.1V20.074h2.19v23.675
			l0.017,1.099h9.072c2.427,0,3.217,0.556,3.466,1.267V46.495z M30.845,21.083V43.24c-0.898-0.391-2.05-0.592-3.466-0.592h-6.89
			V17.506h6.89c1.741,0,3.191,1.252,3.509,2.901C30.861,20.629,30.845,20.854,30.845,21.083z M36.621,17.506l6.89-0.003v25.146
			h-6.89c-1.416,0-2.567,0.201-3.466,0.592V21.083c0-0.229-0.017-0.454-0.043-0.676C33.43,18.758,34.88,17.506,36.621,17.506z
			 M47.9,46.495H33.155v-0.381c0.249-0.711,1.039-1.267,3.466-1.267l9.089,0.001V20.074h2.19V46.495z"/>
	</g>
</g>
</svg>
