<?xml version="1.0" encoding="utf-8"?>
<!-- Generator: Adobe Illustrator 15.1.0, SVG Export Plug-In . SVG Version: 6.00 Build 0)  -->
<!DOCTYPE svg PUBLIC "-//W3C//DTD SVG 1.0//EN" "http://www.w3.org/TR/2001/REC-SVG-20010904/DTD/svg10.dtd">
<svg version="1.0" id="icon" xmlns="http://www.w3.org/2000/svg" xmlns:xlink="http://www.w3.org/1999/xlink" x="0px" y="0px"
	 width="64px" height="64px" viewBox="0 0 64 64" enable-background="new 0 0 64 64" xml:space="preserve">
<g>
	<path fill="#231F20" d="M50,24.125v15.75h-1.125c-0.914,0-1.752-0.196-2.514-0.589s-1.418-0.946-1.969-1.661h-8.684
		c-0.328,0.691-0.738,1.315-1.23,1.872s-1.047,1.028-1.662,1.415s-1.277,0.686-1.986,0.896s-1.443,0.316-2.205,0.316H27.5v-9H16.25
		L14,32l2.25-1.125H27.5v-9h1.125c0.762,0,1.496,0.105,2.205,0.316s1.371,0.51,1.986,0.896s1.17,0.858,1.662,1.415
		s0.902,1.181,1.23,1.872h8.684c0.551-0.715,1.207-1.269,1.969-1.661s1.6-0.589,2.514-0.589H50z M47.75,26.568
		c-0.281,0.094-0.521,0.211-0.721,0.352s-0.379,0.296-0.537,0.466s-0.305,0.36-0.439,0.571s-0.271,0.434-0.412,0.668H34.162
		l-0.264-0.756c-0.328-0.926-0.861-1.711-1.6-2.355s-1.588-1.066-2.549-1.266v15.504c0.961-0.199,1.811-0.621,2.549-1.266
		s1.271-1.43,1.6-2.355l0.264-0.756h11.479c0.141,0.234,0.277,0.457,0.412,0.668s0.281,0.401,0.439,0.571s0.338,0.325,0.537,0.466
		s0.439,0.258,0.721,0.352V26.568z"/>
</g>
</svg>
