<?xml version="1.0" encoding="utf-8"?>
<!-- Generator: Adobe Illustrator 15.1.0, SVG Export Plug-In . SVG Version: 6.00 Build 0)  -->
<!DOCTYPE svg PUBLIC "-//W3C//DTD SVG 1.0//EN" "http://www.w3.org/TR/2001/REC-SVG-20010904/DTD/svg10.dtd">
<svg version="1.0" id="icon" xmlns="http://www.w3.org/2000/svg" xmlns:xlink="http://www.w3.org/1999/xlink" x="0px" y="0px"
	 width="64px" height="64px" viewBox="0 0 64 64" enable-background="new 0 0 64 64" xml:space="preserve">
<g>
	<path fill="#231F20" d="M49.49,26.639c-0.387,0.387-0.765,0.741-1.134,1.063s-0.75,0.595-1.143,0.817s-0.82,0.396-1.283,0.519
		s-0.987,0.185-1.573,0.185c-0.398,0-0.779-0.035-1.143-0.105l-6.662,6.662c0.152,0.445,0.264,0.902,0.334,1.371
		s0.105,0.938,0.105,1.406c0,0.762-0.076,1.453-0.229,2.074s-0.372,1.207-0.659,1.758s-0.636,1.075-1.046,1.573
		s-0.873,1.005-1.389,1.521l-6.785-6.785L16.9,48.699L14.51,49.49l0.791-2.391l10.002-9.984l-6.785-6.785l0.791-0.791
		c0.82-0.82,1.761-1.447,2.821-1.881s2.171-0.65,3.331-0.65c0.961,0,1.881,0.146,2.76,0.439l6.662-6.662
		c-0.07-0.363-0.105-0.744-0.105-1.143c0-0.574,0.062-1.093,0.185-1.556s0.296-0.894,0.519-1.292s0.495-0.782,0.817-1.151
		s0.677-0.747,1.063-1.134L49.49,26.639z M44.357,26.973c0.645,0,1.254-0.152,1.828-0.457l-8.701-8.701
		c-0.305,0.574-0.457,1.184-0.457,1.828c0,0.328,0.038,0.636,0.114,0.923s0.161,0.583,0.255,0.888l-8.648,8.631
		c-0.293-0.117-0.568-0.229-0.826-0.334s-0.516-0.193-0.773-0.264s-0.524-0.126-0.8-0.167s-0.571-0.062-0.888-0.062
		c-0.668,0-1.315,0.097-1.942,0.29s-1.21,0.478-1.749,0.853L33.6,42.23c0.375-0.539,0.662-1.122,0.861-1.749
		s0.299-1.269,0.299-1.925c0-0.316-0.021-0.612-0.062-0.888s-0.1-0.545-0.176-0.809s-0.167-0.524-0.272-0.782
		s-0.217-0.533-0.334-0.826l8.631-8.648c0.305,0.094,0.601,0.179,0.888,0.255S44.029,26.973,44.357,26.973z"/>
</g>
</svg>
