<?xml version="1.0" encoding="utf-8"?>
<!-- Generator: Adobe Illustrator 15.1.0, SVG Export Plug-In . SVG Version: 6.00 Build 0)  -->
<!DOCTYPE svg PUBLIC "-//W3C//DTD SVG 1.0//EN" "http://www.w3.org/TR/2001/REC-SVG-20010904/DTD/svg10.dtd">
<svg version="1.0" id="icon" xmlns="http://www.w3.org/2000/svg" xmlns:xlink="http://www.w3.org/1999/xlink" x="0px" y="0px"
	 width="64px" height="64px" viewBox="0 0 64 64" enable-background="new 0 0 64 64" xml:space="preserve">
<g>
	<path fill="#231F20" d="M28.08,45.5c0.363,0.422,0.747,0.823,1.151,1.204s0.835,0.729,1.292,1.046H18.5
		c-0.316,0-0.609-0.059-0.879-0.176s-0.507-0.278-0.712-0.483s-0.366-0.442-0.483-0.712S16.25,45.816,16.25,45.5v-27
		c0-0.316,0.059-0.609,0.176-0.879s0.278-0.507,0.483-0.712s0.442-0.366,0.712-0.483s0.562-0.176,0.879-0.176h18L43.25,23v3.604
		c-0.738-0.375-1.488-0.668-2.25-0.879v-1.793L35.568,18.5H18.5v27H28.08z M37.625,27.5c1.395,0,2.707,0.267,3.938,0.8
		s2.303,1.257,3.217,2.171s1.638,1.986,2.171,3.217s0.8,2.543,0.8,3.938s-0.267,2.707-0.8,3.938s-1.257,2.303-2.171,3.217
		s-1.986,1.638-3.217,2.171s-2.543,0.8-3.938,0.8s-2.707-0.267-3.938-0.8s-2.303-1.257-3.217-2.171s-1.638-1.986-2.171-3.217
		s-0.8-2.543-0.8-3.938s0.267-2.707,0.8-3.938s1.257-2.303,2.171-3.217s1.986-1.638,3.217-2.171S36.23,27.5,37.625,27.5z
		 M29.75,37.625c0,1.09,0.208,2.112,0.624,3.067s0.979,1.787,1.688,2.496s1.541,1.271,2.496,1.688s1.978,0.624,3.067,0.624
		c0.844,0,1.67-0.132,2.479-0.396s1.553-0.653,2.232-1.169L31.314,32.914c-0.516,0.68-0.905,1.424-1.169,2.232
		S29.75,36.781,29.75,37.625z M45.5,37.625c0-1.09-0.208-2.112-0.624-3.067s-0.979-1.787-1.688-2.496s-1.541-1.271-2.496-1.688
		s-1.978-0.624-3.067-0.624c-0.844,0-1.67,0.132-2.479,0.396s-1.553,0.653-2.232,1.169l11.021,11.021
		c0.516-0.68,0.905-1.424,1.169-2.232S45.5,38.469,45.5,37.625z"/>
</g>
</svg>
