<?xml version="1.0" encoding="utf-8"?>
<!-- Generator: Adobe Illustrator 15.1.0, SVG Export Plug-In . SVG Version: 6.00 Build 0)  -->
<!DOCTYPE svg PUBLIC "-//W3C//DTD SVG 1.0//EN" "http://www.w3.org/TR/2001/REC-SVG-20010904/DTD/svg10.dtd">
<svg version="1.0" id="icon" xmlns="http://www.w3.org/2000/svg" xmlns:xlink="http://www.w3.org/1999/xlink" x="0px" y="0px"
	 width="64px" height="64px" viewBox="0 0 64 64" enable-background="new 0 0 64 64" xml:space="preserve">
<g>
	<path fill="#231F20" d="M44.375,32v6.363c0,0.984-0.188,1.91-0.562,2.777s-0.885,1.623-1.529,2.268s-1.401,1.154-2.268,1.529
		c-0.867,0.375-1.793,0.562-2.777,0.562h-4.113v2.25h4.5V50h-11.25v-2.25h4.5V45.5h-4.113c-0.984,0-1.91-0.188-2.777-0.562
		s-1.623-0.885-2.268-1.529s-1.154-1.4-1.529-2.268s-0.562-1.793-0.562-2.777V32h2.25c0,0.645-0.021,1.371-0.062,2.18
		s-0.05,1.632-0.026,2.47s0.103,1.652,0.237,2.443s0.384,1.494,0.747,2.109s0.864,1.11,1.503,1.485s1.468,0.562,2.487,0.562h10.477
		c1.02,0,1.849-0.188,2.487-0.562s1.139-0.87,1.503-1.485c0.363-0.615,0.613-1.318,0.748-2.109s0.213-1.605,0.236-2.443
		s0.016-1.658-0.025-2.461S42.125,32.656,42.125,32H44.375z M27.5,41c-0.469,0-0.908-0.088-1.318-0.264s-0.768-0.416-1.072-0.721
		s-0.545-0.662-0.721-1.072s-0.264-0.85-0.264-1.318v-20.25c0-0.469,0.088-0.908,0.264-1.318s0.416-0.768,0.721-1.072
		s0.662-0.545,1.072-0.721S27.031,14,27.5,14h9c0.469,0,0.908,0.088,1.318,0.264s0.768,0.416,1.072,0.721s0.545,0.662,0.721,1.072
		s0.264,0.85,0.264,1.318v20.25c0,0.469-0.088,0.908-0.264,1.318s-0.416,0.768-0.721,1.072s-0.662,0.545-1.072,0.721
		S36.969,41,36.5,41H27.5z M26.375,37.625c0,0.305,0.111,0.568,0.334,0.791s0.486,0.334,0.791,0.334h9
		c0.305,0,0.568-0.111,0.791-0.334s0.334-0.486,0.334-0.791v-20.25c0-0.305-0.111-0.568-0.334-0.791S36.805,16.25,36.5,16.25h-9
		c-0.305,0-0.568,0.111-0.791,0.334s-0.334,0.486-0.334,0.791V37.625z"/>
</g>
</svg>
