<?xml version="1.0" encoding="utf-8"?>
<!-- Generator: Adobe Illustrator 15.1.0, SVG Export Plug-In . SVG Version: 6.00 Build 0)  -->
<!DOCTYPE svg PUBLIC "-//W3C//DTD SVG 1.0//EN" "http://www.w3.org/TR/2001/REC-SVG-20010904/DTD/svg10.dtd">
<svg version="1.0" id="icon" xmlns="http://www.w3.org/2000/svg" xmlns:xlink="http://www.w3.org/1999/xlink" x="0px" y="0px"
	 width="64px" height="64px" viewBox="0 0 64 64" enable-background="new 0 0 64 64" xml:space="preserve">
<g>
	<path fill="#231F20" d="M50,17.375v19.02c-0.34-0.27-0.697-0.501-1.072-0.694s-0.768-0.36-1.178-0.501V20.873L32,28.766
		l-15.75-7.893v16.752h18v2.25H14v-22.5H50z M32,26.234l13.236-6.609H18.764L32,26.234z M40.35,37.625
		c0.586,0,1.233-0.015,1.942-0.044s1.421-0.026,2.136,0.009s1.406,0.12,2.074,0.255s1.263,0.369,1.784,0.703
		s0.938,0.788,1.248,1.362S50,41.223,50,42.125c0,0.621-0.12,1.204-0.36,1.749s-0.562,1.02-0.967,1.424s-0.882,0.727-1.433,0.967
		s-1.131,0.36-1.74,0.36v-2.25c0.316,0,0.609-0.059,0.879-0.176s0.507-0.278,0.712-0.483s0.366-0.442,0.483-0.712
		s0.176-0.562,0.176-0.879s-0.059-0.609-0.176-0.879s-0.278-0.507-0.483-0.712s-0.442-0.366-0.712-0.483s-0.562-0.176-0.879-0.176
		h-5.15l2.848,2.865l-1.582,1.582l-5.572-5.572l5.572-5.572l1.582,1.582L40.35,37.625z"/>
</g>
</svg>
