<?xml version="1.0" encoding="utf-8"?>
<!-- Generator: Adobe Illustrator 15.1.0, SVG Export Plug-In . SVG Version: 6.00 Build 0)  -->
<!DOCTYPE svg PUBLIC "-//W3C//DTD SVG 1.0//EN" "http://www.w3.org/TR/2001/REC-SVG-20010904/DTD/svg10.dtd">
<svg version="1.0" id="icon" xmlns="http://www.w3.org/2000/svg" xmlns:xlink="http://www.w3.org/1999/xlink" x="0px" y="0px"
	 width="64px" height="64px" viewBox="0 0 64 64" enable-background="new 0 0 64 64" xml:space="preserve">
<g>
	<path fill="#231F20" d="M17.375,47.75h13.5V50h-15.75V14h31.5v15.1l-3.375,3.357L39.875,29.1V16.25h-22.5V47.75z M48.875,34.25V41
		h-6.75v-2.25h2.689c-0.48-0.727-1.116-1.283-1.907-1.67s-1.614-0.58-2.47-0.58c-0.633,0-1.254,0.108-1.863,0.325
		s-1.151,0.521-1.626,0.914s-0.855,0.864-1.143,1.415S35.375,40.32,35.375,41h-2.25c0-0.996,0.202-1.907,0.606-2.733
		s0.946-1.538,1.626-2.136s1.459-1.061,2.338-1.389s1.793-0.492,2.742-0.492c0.609,0,1.21,0.07,1.802,0.211s1.154,0.343,1.688,0.606
		s1.031,0.592,1.494,0.984s0.864,0.841,1.204,1.345V34.25H48.875z M41.562,47.75c0.633,0,1.251-0.108,1.854-0.325
		s1.143-0.521,1.617-0.914s0.858-0.864,1.151-1.415s0.439-1.166,0.439-1.846h2.25c0,0.996-0.202,1.907-0.606,2.733
		s-0.946,1.538-1.626,2.136s-1.459,1.061-2.338,1.389S42.512,50,41.562,50c-0.609,0-1.21-0.07-1.802-0.211s-1.154-0.343-1.688-0.606
		s-1.031-0.592-1.494-0.984s-0.864-0.841-1.204-1.345V50h-2.25v-6.75h6.75v2.25h-2.689c0.48,0.727,1.116,1.283,1.907,1.67
		S40.707,47.75,41.562,47.75z M42.125,16.25v11.9l1.125,1.143l1.125-1.143v-11.9H42.125z"/>
</g>
</svg>
