<?xml version="1.0" encoding="utf-8"?>
<!-- Generator: Adobe Illustrator 15.1.0, SVG Export Plug-In . SVG Version: 6.00 Build 0)  -->
<!DOCTYPE svg PUBLIC "-//W3C//DTD SVG 1.0//EN" "http://www.w3.org/TR/2001/REC-SVG-20010904/DTD/svg10.dtd">
<svg version="1.0" id="icon" xmlns="http://www.w3.org/2000/svg" xmlns:xlink="http://www.w3.org/1999/xlink" x="0px" y="0px"
	 width="64px" height="64px" viewBox="0 0 64 64" enable-background="new 0 0 64 64" xml:space="preserve">
<g>
	<path fill="#231F20" d="M16.25,16.25H14V14h2.25V16.25z M16.25,20.75H14V18.5h2.25V20.75z M16.25,25.25H14V23h2.25V25.25z
		 M38.75,43.25H14V27.5h24.75V43.25z M36.5,29.75H16.25V41H36.5V29.75z M20.75,16.25H18.5V14h2.25V16.25z M25.25,16.25H23V14h2.25
		V16.25z M29.75,16.25H27.5V14h2.25V16.25z M29.75,20.75H27.5V18.5h2.25V20.75z M29.75,25.25H27.5V23h2.25V25.25z M42.6,16.25
		c1.195,1.195,2.252,2.353,3.172,3.472s1.693,2.291,2.32,3.516s1.102,2.546,1.424,3.964S50,30.219,50,32
		c0,1.652-0.215,3.246-0.643,4.781s-1.031,2.971-1.811,4.307s-1.717,2.553-2.812,3.648s-2.311,2.033-3.646,2.812
		s-2.771,1.383-4.307,1.811S33.652,50,32,50v-2.25c1.441,0,2.833-0.188,4.175-0.562s2.596-0.904,3.762-1.59
		c1.165-0.686,2.229-1.51,3.19-2.471s1.783-2.023,2.469-3.189s1.217-2.42,1.592-3.762c0.375-1.343,0.562-2.734,0.562-4.176
		c0-1.559-0.15-2.977-0.449-4.254S46.568,25.273,46,24.16s-1.271-2.18-2.109-3.199S42.09,18.904,41,17.85V23h-2.25v-9h9v2.25H42.6z"
		/>
</g>
</svg>
