<?xml version="1.0" encoding="utf-8"?>
<!-- Generator: Adobe Illustrator 15.1.0, SVG Export Plug-In . SVG Version: 6.00 Build 0)  -->
<!DOCTYPE svg PUBLIC "-//W3C//DTD SVG 1.0//EN" "http://www.w3.org/TR/2001/REC-SVG-20010904/DTD/svg10.dtd">
<svg version="1.0" id="icon" xmlns="http://www.w3.org/2000/svg" xmlns:xlink="http://www.w3.org/1999/xlink" x="0px" y="0px"
	 width="64px" height="64px" viewBox="0 0 64 64" enable-background="new 0 0 64 64" xml:space="preserve">
<g>
	<path fill="#231F20" d="M32,14c1.652,0,3.243,0.217,4.772,0.65s2.959,1.04,4.289,1.819s2.546,1.72,3.647,2.821
		s2.042,2.317,2.821,3.647s1.386,2.76,1.819,4.289S50,30.348,50,32s-0.217,3.243-0.65,4.772s-1.04,2.959-1.819,4.289
		s-1.72,2.546-2.821,3.647s-2.317,2.042-3.647,2.821s-2.76,1.386-4.289,1.819S33.652,50,32,50s-3.243-0.217-4.772-0.65
		s-2.959-1.04-4.289-1.819s-2.546-1.72-3.647-2.821s-2.042-2.317-2.821-3.647s-1.386-2.76-1.819-4.289S14,33.652,14,32
		s0.217-3.243,0.65-4.772s1.04-2.959,1.819-4.289s1.72-2.546,2.821-3.647s2.317-2.042,3.647-2.821s2.76-1.386,4.289-1.819
		S30.348,14,32,14z M32,47.75c1.336,0,2.643-0.17,3.92-0.51s2.487-0.823,3.63-1.45s2.197-1.389,3.164-2.285s1.813-1.901,2.54-3.015
		c-0.152-0.352-0.299-0.709-0.439-1.072s-0.211-0.738-0.211-1.125c0-0.422,0.021-0.765,0.062-1.028s0.079-0.489,0.114-0.677
		s0.062-0.36,0.079-0.519s-0.003-0.337-0.062-0.536s-0.161-0.439-0.308-0.721s-0.36-0.645-0.642-1.09
		c0.012-0.082,0.032-0.193,0.062-0.334s0.05-0.287,0.062-0.439s0.015-0.296,0.009-0.431s-0.032-0.243-0.079-0.325
		c-0.305-0.035-0.624-0.1-0.958-0.193s-0.624-0.234-0.87-0.422l0.105-0.088c-0.152,0.035-0.305,0.085-0.457,0.149
		s-0.302,0.126-0.448,0.185s-0.296,0.108-0.448,0.149s-0.311,0.062-0.475,0.062L40.068,32l0.053-0.123
		c-0.164,0.047-0.343,0.105-0.536,0.176s-0.372,0.105-0.536,0.105c-0.117,0-0.287-0.041-0.51-0.123s-0.448-0.182-0.677-0.299
		s-0.428-0.246-0.598-0.387s-0.255-0.275-0.255-0.404l0.035-0.053c-0.059-0.07-0.135-0.135-0.229-0.193s-0.185-0.117-0.272-0.176
		s-0.161-0.123-0.22-0.193s-0.088-0.152-0.088-0.246l0.193-0.158l-0.404-0.053l-0.141-0.527c0.023,0.059,0.079,0.082,0.167,0.07
		s0.149-0.035,0.185-0.07l-0.633-0.334l0.439-1.125c-0.164-0.609-0.202-1.078-0.114-1.406s0.243-0.601,0.466-0.817
		s0.483-0.428,0.782-0.633s0.583-0.489,0.853-0.853l-0.053-0.211l1.16-1.406l0.264-0.035c0.328,0,0.697-0.015,1.107-0.044
		s0.826-0.07,1.248-0.123s0.838-0.111,1.248-0.176s0.785-0.138,1.125-0.22c-0.375-0.445-0.771-0.867-1.187-1.266
		s-0.853-0.779-1.31-1.143c-0.129,0.047-0.29,0.114-0.483,0.202s-0.378,0.193-0.554,0.316s-0.325,0.261-0.448,0.413
		s-0.185,0.311-0.185,0.475l0.105,0.334c-0.211,0.34-0.445,0.554-0.703,0.642s-0.524,0.135-0.8,0.141s-0.557,0.003-0.844-0.009
		s-0.565,0.041-0.835,0.158l-0.281-0.598l0.264-1.02L36.57,20.17l3.041-0.949c-0.129-0.328-0.343-0.574-0.642-0.738
		s-0.618-0.246-0.958-0.246v-0.176l0.984-0.158c-1.09-0.539-2.224-0.949-3.401-1.23S33.219,16.25,32,16.25
		c-1.02,0-2.027,0.1-3.023,0.299s-1.96,0.489-2.892,0.87s-1.825,0.847-2.681,1.397S21.758,20,21.031,20.715
		c0.305,0,0.542,0.079,0.712,0.237s0.322,0.328,0.457,0.51s0.278,0.352,0.431,0.51s0.357,0.237,0.615,0.237l0.281-0.211
		l-0.035-0.387l0.58-0.826l-0.457-1.301c0.059-0.035,0.149-0.094,0.272-0.176s0.22-0.123,0.29-0.123
		c0.352,0,0.624,0.018,0.817,0.053s0.354,0.103,0.483,0.202s0.252,0.234,0.369,0.404s0.281,0.39,0.492,0.659l0.633-0.492
		c0.117,0.047,0.308,0.126,0.571,0.237s0.524,0.24,0.782,0.387s0.486,0.302,0.686,0.466s0.299,0.316,0.299,0.457
		c0,0.176-0.067,0.316-0.202,0.422s-0.302,0.193-0.501,0.264s-0.419,0.126-0.659,0.167s-0.46,0.085-0.659,0.132
		s-0.369,0.108-0.51,0.185s-0.211,0.173-0.211,0.29l1.02,0.334c-0.234,0.199-0.489,0.384-0.765,0.554s-0.554,0.319-0.835,0.448
		l0.07,0.299l-1.617,0.633v0.492l-0.123,0.053l0.088-0.615l-0.07-0.018c-0.082,0-0.132,0.018-0.149,0.053s-0.021,0.076-0.009,0.123
		s0.026,0.094,0.044,0.141s0.021,0.082,0.009,0.105l-0.229-0.123l0.035,0.07c0,0.035,0.021,0.088,0.062,0.158
		s0.088,0.138,0.141,0.202s0.12,0.149,0.202,0.255c0,0.035-0.026,0.07-0.079,0.105s-0.108,0.062-0.167,0.079
		s-0.105,0.032-0.141,0.044s-0.035,0.018,0,0.018c0.164,0,0.196,0.012,0.097,0.035s-0.243,0.082-0.431,0.176
		s-0.372,0.231-0.554,0.413s-0.272,0.437-0.272,0.765c0,0.199,0.009,0.393,0.026,0.58s0.009,0.381-0.026,0.58
		c-0.164-0.445-0.41-0.785-0.738-1.02s-0.727-0.352-1.195-0.352l-0.756,0.07l0.369,0.246c-0.199-0.023-0.407-0.047-0.624-0.07
		s-0.431-0.026-0.642-0.009s-0.413,0.064-0.606,0.141s-0.366,0.196-0.519,0.36l-0.105,0.791c0,0.375,0.085,0.683,0.255,0.923
		s0.454,0.36,0.853,0.36c0.352,0,0.697-0.056,1.037-0.167s0.674-0.231,1.002-0.36c-0.105,0.258-0.223,0.507-0.352,0.747
		s-0.223,0.495-0.281,0.765l0.229,0.105c0.281-0.188,0.539-0.217,0.773-0.088s0.463,0.316,0.686,0.562s0.451,0.501,0.686,0.765
		s0.486,0.448,0.756,0.554l-0.598,0.316l-1.406-0.791c0.012,0.023,0.026,0.076,0.044,0.158s0.009,0.1-0.026,0.053l-0.633-1.072
		c-0.375-0.012-0.776-0.073-1.204-0.185s-0.853-0.252-1.274-0.422s-0.829-0.363-1.222-0.58s-0.735-0.437-1.028-0.659L16.25,32
		c0,1.43,0.193,2.824,0.58,4.184s0.935,2.637,1.644,3.832s1.567,2.288,2.575,3.278s2.139,1.825,3.393,2.505
		c-0.059-0.246-0.064-0.492-0.018-0.738s0.108-0.492,0.185-0.738s0.152-0.495,0.229-0.747s0.114-0.501,0.114-0.747
		c0-0.375-0.059-0.771-0.176-1.187s-0.261-0.832-0.431-1.248s-0.349-0.829-0.536-1.239s-0.349-0.8-0.483-1.169
		s-0.226-0.709-0.272-1.02s-0.012-0.583,0.105-0.817l-0.264-0.123c0.07-0.164,0.167-0.322,0.29-0.475s0.243-0.308,0.36-0.466
		s0.217-0.319,0.299-0.483s0.123-0.34,0.123-0.527c0-0.117-0.026-0.243-0.079-0.378s-0.091-0.255-0.114-0.36l0.369,0.088
		c0.199-0.457,0.472-0.771,0.817-0.94s0.771-0.255,1.274-0.255c0.059,0,0.182,0.026,0.369,0.079s0.387,0.114,0.598,0.185
		s0.413,0.138,0.606,0.202s0.331,0.108,0.413,0.132c0,0.082,0.05,0.138,0.149,0.167s0.149,0.067,0.149,0.114l-0.035,0.141
		c0.035,0.012,0.12,0.056,0.255,0.132s0.275,0.161,0.422,0.255s0.281,0.188,0.404,0.281s0.202,0.158,0.237,0.193
		c0.211,0,0.501,0.07,0.87,0.211s0.765,0.319,1.187,0.536s0.853,0.469,1.292,0.756s0.835,0.58,1.187,0.879s0.642,0.592,0.87,0.879
		s0.343,0.542,0.343,0.765l-0.598,0.633c0.047,0.598,0.003,1.058-0.132,1.38s-0.334,0.583-0.598,0.782s-0.574,0.375-0.932,0.527
		s-0.735,0.352-1.134,0.598c0,0.234-0.059,0.489-0.176,0.765s-0.267,0.533-0.448,0.773s-0.393,0.442-0.633,0.606
		s-0.483,0.246-0.729,0.246l-0.738-0.562c0.023,0.023,0.021,0.067-0.009,0.132s-0.056,0.073-0.079,0.026
		c0.117,0.223,0.146,0.48,0.088,0.773s-0.158,0.592-0.299,0.896s-0.299,0.595-0.475,0.87s-0.334,0.501-0.475,0.677
		c0.633,0.164,1.266,0.287,1.898,0.369S31.355,47.75,32,47.75z M22.719,29.521c0.152,0,0.322,0.026,0.51,0.079
		s0.378,0.114,0.571,0.185s0.381,0.146,0.562,0.229s0.349,0.152,0.501,0.211c-0.094,0.012-0.19,0.023-0.29,0.035
		s-0.196,0.018-0.29,0.018c-0.199,0-0.381-0.032-0.545-0.097s-0.319-0.138-0.466-0.22s-0.287-0.155-0.422-0.22
		s-0.261-0.097-0.378-0.097s-0.223,0.023-0.316,0.07s-0.188,0.1-0.281,0.158c0-0.047-0.041-0.07-0.123-0.07
		c0.082-0.082,0.234-0.149,0.457-0.202S22.602,29.521,22.719,29.521z M25.092,30.312c0.48,0,0.92,0.082,1.318,0.246
		c-0.164,0.059-0.328,0.108-0.492,0.149s-0.334,0.062-0.51,0.062c-0.234,0-0.445-0.023-0.633-0.07
		c0.059-0.094,0.117-0.155,0.176-0.185S25.057,30.418,25.092,30.312z M44.182,22.033c0,0.094-0.018,0.158-0.053,0.193h0.105
		c0.047,0,0.082,0.006,0.105,0.018L44.182,22.033z M45.395,23.756c-0.164-0.258-0.328-0.507-0.492-0.747s-0.334-0.478-0.51-0.712
		c-0.023,0.105-0.056,0.182-0.097,0.229s-0.062,0.152-0.062,0.316c0,0.105,0.044,0.208,0.132,0.308s0.193,0.19,0.316,0.272
		s0.249,0.152,0.378,0.211S45.301,23.732,45.395,23.756z"/>
</g>
</svg>
