<?xml version="1.0" encoding="utf-8"?>
<!-- Generator: Adobe Illustrator 15.1.0, SVG Export Plug-In . SVG Version: 6.00 Build 0)  -->
<!DOCTYPE svg PUBLIC "-//W3C//DTD SVG 1.0//EN" "http://www.w3.org/TR/2001/REC-SVG-20010904/DTD/svg10.dtd">
<svg version="1.0" id="icon" xmlns="http://www.w3.org/2000/svg" xmlns:xlink="http://www.w3.org/1999/xlink" x="0px" y="0px"
	 width="64px" height="64px" viewBox="0 0 64 64" enable-background="new 0 0 64 64" xml:space="preserve">
<g>
	<path fill="#231F20" d="M16.25,23H14v-9h9v2.25h-6.75V23z M16.25,47.75H23V50h-9v-9h2.25V47.75z M36.025,32.914
		c0.785,0.375,1.485,0.847,2.101,1.415s1.137,1.204,1.564,1.907s0.753,1.459,0.976,2.268S41,40.145,41,41h-2.25
		c0-0.961-0.173-1.852-0.519-2.672s-0.82-1.533-1.424-2.137s-1.315-1.077-2.136-1.423S32.961,34.25,32,34.25
		c-0.949,0-1.834,0.176-2.654,0.527s-1.532,0.828-2.136,1.432s-1.081,1.316-1.433,2.137S25.25,40.051,25.25,41H23
		c0-0.855,0.114-1.688,0.343-2.496s0.56-1.562,0.993-2.26s0.958-1.329,1.573-1.897s1.31-1.04,2.083-1.415
		c-0.855-0.633-1.526-1.43-2.013-2.391S25.25,28.566,25.25,27.5c0-0.926,0.179-1.799,0.536-2.619s0.841-1.535,1.45-2.145
		s1.324-1.093,2.145-1.45S31.074,20.75,32,20.75s1.799,0.179,2.619,0.536s1.535,0.841,2.145,1.45s1.093,1.324,1.45,2.145
		s0.536,1.693,0.536,2.619c0,1.066-0.24,2.077-0.721,3.032S36.881,32.281,36.025,32.914z M27.5,27.5c0,0.621,0.12,1.204,0.36,1.749
		s0.562,1.02,0.967,1.424s0.879,0.727,1.424,0.967S31.379,32,32,32c0.609,0,1.189-0.12,1.74-0.36s1.028-0.562,1.433-0.967
		s0.727-0.879,0.967-1.424s0.36-1.128,0.36-1.749c0-0.609-0.12-1.189-0.36-1.74s-0.562-1.028-0.967-1.433s-0.882-0.727-1.433-0.967
		S32.609,23,32,23c-0.621,0-1.204,0.12-1.749,0.36s-1.02,0.562-1.424,0.967s-0.727,0.882-0.967,1.433S27.5,26.891,27.5,27.5z M50,14
		v9h-2.25v-6.75H41V14H50z M47.75,41H50v9h-9v-2.25h6.75V41z"/>
</g>
</svg>
