<?xml version="1.0" encoding="utf-8"?>
<!-- Generator: Adobe Illustrator 15.1.0, SVG Export Plug-In . SVG Version: 6.00 Build 0)  -->
<!DOCTYPE svg PUBLIC "-//W3C//DTD SVG 1.0//EN" "http://www.w3.org/TR/2001/REC-SVG-20010904/DTD/svg10.dtd">
<svg version="1.0" id="icon" xmlns="http://www.w3.org/2000/svg" xmlns:xlink="http://www.w3.org/1999/xlink" x="0px" y="0px"
	 width="64px" height="64px" viewBox="0 0 64 64" enable-background="new 0 0 64 64" xml:space="preserve">
<g>
	<path fill="#231F20" d="M25.909,18.5h1.6v27h-1.6l-6.75-6.75h-5.15v-13.5h5.15L25.909,18.5z M25.259,22.35l-5.15,5.15h-3.85v9h3.85
		l5.15,5.15V22.35z M33.872,25.637c0.844,0.844,1.494,1.816,1.951,2.918s0.686,2.25,0.686,3.445s-0.229,2.344-0.686,3.445
		s-1.107,2.074-1.951,2.918l-1.582-1.582c0.633-0.633,1.119-1.362,1.459-2.188s0.51-1.69,0.51-2.593s-0.17-1.767-0.51-2.593
		s-0.826-1.556-1.459-2.188L33.872,25.637z M38.653,20.855c0.738,0.738,1.392,1.538,1.96,2.399s1.049,1.767,1.441,2.716
		s0.691,1.934,0.896,2.953s0.308,2.045,0.308,3.076c0,1.043-0.103,2.071-0.308,3.085s-0.504,1.995-0.896,2.944
		s-0.873,1.854-1.441,2.716s-1.222,1.661-1.96,2.399l-1.6-1.6c1.266-1.266,2.241-2.725,2.927-4.377s1.028-3.375,1.028-5.168
		s-0.343-3.516-1.028-5.168s-1.661-3.111-2.927-4.377L38.653,20.855z M43.417,16.092c1.055,1.055,1.989,2.197,2.804,3.428
		s1.503,2.522,2.065,3.876s0.987,2.754,1.274,4.201s0.431,2.915,0.431,4.403s-0.144,2.956-0.431,4.403s-0.712,2.848-1.274,4.201
		s-1.251,2.646-2.065,3.876s-1.749,2.373-2.804,3.428l-1.582-1.582c0.949-0.949,1.79-1.978,2.522-3.085s1.351-2.271,1.854-3.489
		s0.888-2.481,1.151-3.788s0.396-2.628,0.396-3.964s-0.132-2.657-0.396-3.964s-0.647-2.569-1.151-3.788s-1.122-2.382-1.854-3.489
		s-1.573-2.136-2.522-3.085L43.417,16.092z"/>
</g>
</svg>
