<?xml version="1.0" encoding="utf-8"?>
<!-- Generator: Adobe Illustrator 15.1.0, SVG Export Plug-In . SVG Version: 6.00 Build 0)  -->
<!DOCTYPE svg PUBLIC "-//W3C//DTD SVG 1.0//EN" "http://www.w3.org/TR/2001/REC-SVG-20010904/DTD/svg10.dtd">
<svg version="1.0" id="icon" xmlns="http://www.w3.org/2000/svg" xmlns:xlink="http://www.w3.org/1999/xlink" x="0px" y="0px"
	 width="64px" height="64px" viewBox="0 0 64 64" enable-background="new 0 0 64 64" xml:space="preserve">
<g>
	<path fill="#231F20" d="M45.351,25.25c-1.488,0.047-2.897,0.255-4.228,0.624s-2.59,0.879-3.779,1.529s-2.317,1.427-3.384,2.329
		s-2.074,1.898-3.023,2.988c-0.398,0.457-0.797,0.902-1.195,1.336s-0.82,0.855-1.266,1.266c-1.969,1.793-4.148,3.188-6.539,4.184
		S17.009,41,14.325,41v-2.25c1.535,0,2.991-0.179,4.368-0.536s2.681-0.861,3.911-1.512s2.394-1.436,3.489-2.355
		s2.136-1.942,3.12-3.067c0.41-0.48,0.823-0.943,1.239-1.389s0.858-0.879,1.327-1.301c0.949-0.844,1.948-1.605,2.997-2.285
		s2.145-1.26,3.287-1.74s2.326-0.853,3.551-1.116s2.476-0.413,3.753-0.448l-2.584-2.584l1.582-1.582l5.309,5.291l-5.309,5.291
		l-1.582-1.582L45.351,25.25z M28.476,28.695c-0.258,0.281-0.507,0.565-0.747,0.853s-0.495,0.571-0.765,0.853
		c-0.867-0.797-1.79-1.515-2.769-2.153s-2.001-1.181-3.067-1.626s-2.168-0.785-3.305-1.02s-2.303-0.352-3.498-0.352V23
		c2.684,0,5.221,0.501,7.611,1.503S26.507,26.902,28.476,28.695z M44.366,34.584l5.309,5.291l-5.309,5.291l-1.582-1.582L45.368,41
		c-1.289-0.035-2.552-0.188-3.788-0.457s-2.429-0.647-3.577-1.134s-2.253-1.075-3.313-1.767s-2.065-1.471-3.015-2.338
		c0.258-0.281,0.507-0.565,0.747-0.853s0.495-0.571,0.765-0.853c0.844,0.773,1.734,1.471,2.672,2.092s1.919,1.154,2.944,1.6
		s2.086,0.791,3.182,1.037s2.218,0.387,3.366,0.422l-2.566-2.584L44.366,34.584z"/>
</g>
</svg>
