<?xml version="1.0" encoding="utf-8"?>
<!-- Generator: Adobe Illustrator 15.1.0, SVG Export Plug-In . SVG Version: 6.00 Build 0)  -->
<!DOCTYPE svg PUBLIC "-//W3C//DTD SVG 1.0//EN" "http://www.w3.org/TR/2001/REC-SVG-20010904/DTD/svg10.dtd">
<svg version="1.0" id="icon" xmlns="http://www.w3.org/2000/svg" xmlns:xlink="http://www.w3.org/1999/xlink" x="0px" y="0px"
	 width="64px" height="64px" viewBox="0 0 64 64" enable-background="new 0 0 64 64" xml:space="preserve">
<g>
	<path fill="#231F20" d="M17.375,47.75h13.5V50h-15.75V14h31.5v15.1l-3.375,3.357L39.875,29.1V16.25h-22.5V47.75z M48.875,34.25V41
		h-6.75v-2.25h2.689c-0.48-0.727-1.117-1.283-1.908-1.67s-1.613-0.58-2.469-0.58c-0.48,0-0.955,0.062-1.424,0.185
		s-0.908,0.302-1.318,0.536l8.262,8.262c0.211-0.34,0.375-0.697,0.492-1.072s0.176-0.762,0.176-1.16h2.25
		c0,0.703-0.115,1.38-0.344,2.03s-0.547,1.257-0.957,1.819l0.967,0.984l-1.582,1.582l-1.02-1.002
		c-0.645,0.445-1.342,0.779-2.092,1.002S42.336,50,41.562,50c-0.609,0-1.21-0.07-1.802-0.211s-1.154-0.343-1.688-0.606
		s-1.031-0.592-1.494-0.984s-0.864-0.841-1.204-1.345V50h-2.25v-6.75h6.75v2.25h-2.689c0.48,0.727,1.116,1.283,1.907,1.67
		s1.614,0.58,2.47,0.58c0.48,0,0.955-0.062,1.424-0.185s0.908-0.302,1.318-0.536l-8.262-8.262c-0.211,0.34-0.375,0.697-0.492,1.072
		s-0.176,0.762-0.176,1.16h-2.25c0-0.703,0.114-1.38,0.343-2.03s0.548-1.257,0.958-1.819l-0.967-0.984l1.582-1.582l1.02,1.002
		c0.645-0.445,1.342-0.779,2.092-1.002s1.512-0.334,2.285-0.334c0.609,0,1.209,0.07,1.801,0.211s1.154,0.343,1.688,0.606
		s1.031,0.592,1.494,0.984s0.865,0.841,1.205,1.345V34.25H48.875z M42.125,16.25v11.9l1.125,1.143l1.125-1.143v-11.9H42.125z"/>
</g>
</svg>
