<?xml version="1.0" encoding="utf-8"?>
<!-- Generator: Adobe Illustrator 15.1.0, SVG Export Plug-In . SVG Version: 6.00 Build 0)  -->
<!DOCTYPE svg PUBLIC "-//W3C//DTD SVG 1.0//EN" "http://www.w3.org/TR/2001/REC-SVG-20010904/DTD/svg10.dtd">
<svg version="1.0" id="icon" xmlns="http://www.w3.org/2000/svg" xmlns:xlink="http://www.w3.org/1999/xlink" x="0px" y="0px"
	 width="64px" height="64px" viewBox="0 0 64 64" enable-background="new 0 0 64 64" xml:space="preserve">
<g>
	<path fill="#231F20" d="M43.25,26.691c0.996,0.258,1.907,0.665,2.733,1.222s1.538,1.219,2.136,1.986s1.061,1.62,1.389,2.558
		S50,34.379,50,35.41c0,1.242-0.234,2.411-0.703,3.507s-1.11,2.051-1.925,2.865s-1.77,1.456-2.865,1.925S42.242,44.41,41,44.41
		v-2.25c0.926,0,1.799-0.176,2.619-0.527s1.538-0.835,2.153-1.45s1.099-1.33,1.45-2.145s0.527-1.69,0.527-2.628
		c0-0.715-0.108-1.403-0.325-2.065s-0.521-1.271-0.914-1.828s-0.867-1.049-1.424-1.477s-1.169-0.759-1.837-0.993v6.363h-22.5v-6.381
		c-0.668,0.234-1.28,0.565-1.837,0.993s-1.031,0.92-1.424,1.477s-0.697,1.166-0.914,1.828s-0.325,1.351-0.325,2.065
		c0,0.938,0.176,1.813,0.527,2.628s0.835,1.529,1.45,2.145s1.33,1.099,2.145,1.45s1.69,0.527,2.628,0.527h5.15l-2.848-2.865
		l1.582-1.582l5.572,5.572l-5.572,5.572l-1.582-1.582l2.848-2.865H23c-1.242,0-2.411-0.234-3.507-0.703s-2.051-1.11-2.865-1.925
		s-1.456-1.77-1.925-2.865S14,36.635,14,35.393c0-1.02,0.164-2.001,0.492-2.944s0.791-1.802,1.389-2.575s1.31-1.438,2.136-1.995
		s1.737-0.958,2.733-1.204V17.41h5.15l2.25-2.25h7.699l2.25,2.25h5.15V26.691z M41,19.66h-3.85l-2.25-2.25H29.1l-2.25,2.25H23v13.5
		h18V19.66z M32,21.91c0.621,0,1.204,0.117,1.749,0.352s1.022,0.557,1.433,0.967s0.732,0.888,0.967,1.433S36.5,25.789,36.5,26.41
		s-0.117,1.204-0.352,1.749s-0.557,1.022-0.967,1.433s-0.888,0.732-1.433,0.967S32.621,30.91,32,30.91s-1.204-0.117-1.749-0.352
		s-1.022-0.557-1.433-0.967s-0.732-0.888-0.967-1.433S27.5,27.031,27.5,26.41s0.117-1.204,0.352-1.749s0.557-1.022,0.967-1.433
		s0.888-0.732,1.433-0.967S31.379,21.91,32,21.91z M32,28.66c0.316,0,0.609-0.059,0.879-0.176s0.507-0.278,0.712-0.483
		s0.366-0.442,0.483-0.712s0.176-0.562,0.176-0.879s-0.059-0.609-0.176-0.879s-0.278-0.507-0.483-0.712s-0.442-0.366-0.712-0.483
		S32.316,24.16,32,24.16s-0.609,0.059-0.879,0.176s-0.507,0.278-0.712,0.483s-0.366,0.442-0.483,0.712s-0.176,0.562-0.176,0.879
		s0.059,0.609,0.176,0.879s0.278,0.507,0.483,0.712s0.442,0.366,0.712,0.483S31.684,28.66,32,28.66z"/>
</g>
</svg>
