<?xml version="1.0" encoding="utf-8"?>
<!-- Generator: Adobe Illustrator 15.1.0, SVG Export Plug-In . SVG Version: 6.00 Build 0)  -->
<!DOCTYPE svg PUBLIC "-//W3C//DTD SVG 1.0//EN" "http://www.w3.org/TR/2001/REC-SVG-20010904/DTD/svg10.dtd">
<svg version="1.0" id="icon" xmlns="http://www.w3.org/2000/svg" xmlns:xlink="http://www.w3.org/1999/xlink" x="0px" y="0px"
	 width="64px" height="64px" viewBox="0 0 64 64" enable-background="new 0 0 64 64" xml:space="preserve">
<g>
	<path fill="#231F20" d="M16.25,18.5V32h9v2.25H14v-18h31.5v9h-2.25V18.5H16.25z M45.5,32H50v15.75H27.5V32H32v-4.5h13.5V32z
		 M47.75,34.25h-18v4.5H32V36.5h2.25v2.25h9V36.5h2.25v2.25h2.25V34.25z M29.75,45.5h18V41H45.5v2.25h-2.25V41h-9v2.25H32V41h-2.25
		V45.5z M34.25,29.75V32h9v-2.25H34.25z"/>
</g>
</svg>
