<?xml version="1.0" encoding="utf-8"?>
<!-- Generator: Adobe Illustrator 15.1.0, SVG Export Plug-In . SVG Version: 6.00 Build 0)  -->
<!DOCTYPE svg PUBLIC "-//W3C//DTD SVG 1.0//EN" "http://www.w3.org/TR/2001/REC-SVG-20010904/DTD/svg10.dtd">
<svg version="1.0" id="icon" xmlns="http://www.w3.org/2000/svg" xmlns:xlink="http://www.w3.org/1999/xlink" x="0px" y="0px"
	 width="64px" height="64px" viewBox="0 0 64 64" enable-background="new 0 0 64 64" xml:space="preserve">
<g>
	<path fill="#231F20" d="M40.455,16.25c0.879,0,1.726,0.114,2.54,0.343s1.573,0.548,2.276,0.958s1.348,0.908,1.934,1.494
		s1.084,1.23,1.494,1.934s0.729,1.462,0.958,2.276S50,24.916,50,25.795c0,1.266-0.243,2.484-0.729,3.656s-1.175,2.203-2.065,3.094
		L32,47.75L16.795,32.545c-0.891-0.891-1.579-1.922-2.065-3.094S14,27.061,14,25.795c0-0.879,0.114-1.726,0.343-2.54
		s0.548-1.573,0.958-2.276s0.908-1.348,1.494-1.934s1.23-1.084,1.934-1.494s1.462-0.729,2.276-0.958s1.661-0.343,2.54-0.343
		c1.277,0,2.517,0.252,3.718,0.756s2.247,1.219,3.138,2.145l-4.957,4.975L33.318,32l-5.168,5.15l1.6,1.6L36.5,32l-7.875-7.875
		c0.574-0.574,1.143-1.169,1.705-1.784s1.131-1.213,1.705-1.793s1.172-1.131,1.793-1.652s1.271-0.979,1.951-1.371
		s1.406-0.703,2.18-0.932S39.564,16.25,40.455,16.25z"/>
</g>
</svg>
