<?xml version="1.0" encoding="utf-8"?>
<!-- Generator: Adobe Illustrator 15.1.0, SVG Export Plug-In . SVG Version: 6.00 Build 0)  -->
<!DOCTYPE svg PUBLIC "-//W3C//DTD SVG 1.1//EN" "http://www.w3.org/Graphics/SVG/1.1/DTD/svg11.dtd">
<svg version="1.1" id="icon" xmlns="http://www.w3.org/2000/svg" xmlns:xlink="http://www.w3.org/1999/xlink" x="0px" y="0px"
	 width="64px" height="64px" viewBox="0 0 64 64" enable-background="new 0 0 64 64" xml:space="preserve">
<g enable-background="new    ">
	<path fill="#231F20" d="M18.5,45.5c0-2.484,0.322-4.875,0.967-7.172s1.553-4.447,2.725-6.451s2.578-3.826,4.219-5.467
		s3.463-3.047,5.467-4.219s4.154-2.08,6.451-2.725S43.016,18.5,45.5,18.5v2.25c-2.273,0-4.462,0.296-6.565,0.888
		s-4.072,1.424-5.906,2.496s-3.507,2.364-5.019,3.876s-2.804,3.185-3.876,5.019s-1.904,3.803-2.496,5.906S20.75,43.227,20.75,45.5
		H18.5z M25.25,45.5c0-1.863,0.24-3.659,0.721-5.388s1.16-3.343,2.039-4.843s1.934-2.865,3.164-4.096s2.596-2.285,4.096-3.164
		s3.114-1.559,4.843-2.039s3.524-0.721,5.388-0.721v2.25c-1.652,0-3.243,0.214-4.772,0.642s-2.962,1.034-4.298,1.819
		s-2.552,1.726-3.647,2.821s-2.036,2.312-2.821,3.647s-1.392,2.769-1.819,4.298S27.5,43.848,27.5,45.5H25.25z M32,45.5
		c0-1.242,0.161-2.438,0.483-3.586s0.776-2.224,1.362-3.226s1.289-1.913,2.109-2.733s1.731-1.523,2.733-2.109
		s2.077-1.04,3.226-1.362S44.258,32,45.5,32v2.25c-1.031,0-2.027,0.135-2.988,0.404s-1.857,0.647-2.689,1.134
		s-1.591,1.072-2.276,1.758s-1.271,1.444-1.758,2.276s-0.864,1.729-1.134,2.689S34.25,44.469,34.25,45.5H32z M42.125,38.75
		c0.469,0,0.908,0.088,1.318,0.264s0.768,0.416,1.072,0.721s0.545,0.662,0.721,1.072s0.264,0.85,0.264,1.318
		s-0.088,0.908-0.264,1.318s-0.416,0.768-0.721,1.072s-0.662,0.545-1.072,0.721s-0.85,0.264-1.318,0.264s-0.908-0.088-1.318-0.264
		s-0.768-0.416-1.072-0.721s-0.545-0.662-0.721-1.072s-0.264-0.85-0.264-1.318s0.088-0.908,0.264-1.318s0.416-0.768,0.721-1.072
		s0.662-0.545,1.072-0.721S41.656,38.75,42.125,38.75z"/>
</g>
</svg>
