<?xml version="1.0" encoding="utf-8"?>
<!-- Generator: Adobe Illustrator 15.1.0, SVG Export Plug-In . SVG Version: 6.00 Build 0)  -->
<!DOCTYPE svg PUBLIC "-//W3C//DTD SVG 1.0//EN" "http://www.w3.org/TR/2001/REC-SVG-20010904/DTD/svg10.dtd">
<svg version="1.0" id="icon" xmlns="http://www.w3.org/2000/svg" xmlns:xlink="http://www.w3.org/1999/xlink" x="0px" y="0px"
	 width="64px" height="64px" viewBox="0 0 64 64" enable-background="new 0 0 64 64" xml:space="preserve">
<g>
	<path fill="#231F20" d="M15.125,16.276h2.25v2.25h-2.25V16.276z M15.125,20.776h2.25v2.25h-2.25V20.776z M15.125,25.276h2.25v2.25
		h-2.25V25.276z M15.125,29.776h2.25v2.25h-2.25V29.776z M15.125,34.276h2.25v2.25h-2.25V34.276z M15.125,38.776h2.25v2.25h-2.25
		V38.776z M15.125,43.276h2.25v2.25h-2.25V43.276z M19.625,16.276h2.25v2.25h-2.25V16.276z M19.625,43.276h2.25v2.25h-2.25V43.276z
		 M24.125,16.276h2.25v2.25h-2.25V16.276z M24.125,43.276h2.25v2.25h-2.25V43.276z M28.625,16.276h2.25v2.25h-2.25V16.276z
		 M28.625,43.276h2.25v2.25h-2.25V43.276z M35.375,18.526h-2.25v-2.25h2.25V18.526z M42.986,29.776c0.809,0,1.57,0.155,2.285,0.466
		s1.338,0.732,1.871,1.266s0.955,1.16,1.266,1.881s0.467,1.485,0.467,2.294c0,0.773-0.146,1.521-0.439,2.241
		s-0.721,1.362-1.283,1.925l-7.893,7.875l-1.582-1.582l7.875-7.893c0.34-0.34,0.604-0.732,0.791-1.178s0.281-0.908,0.281-1.389
		c0-0.504-0.098-0.976-0.291-1.415s-0.457-0.826-0.791-1.16s-0.721-0.598-1.16-0.791s-0.91-0.29-1.414-0.29
		c-0.48,0-0.943,0.094-1.389,0.281s-0.838,0.451-1.178,0.791l-3.428,3.428h2.9v2.25h-6.75v-6.75h2.25v2.9
		c0.551-0.551,1.096-1.131,1.635-1.74s1.11-1.166,1.714-1.67s1.251-0.92,1.942-1.248S42.131,29.776,42.986,29.776z M33.125,43.276
		h2.25v2.25h-2.25V43.276z M39.875,18.526h-2.25v-2.25h2.25V18.526z M44.375,18.526h-2.25v-2.25h2.25V18.526z M44.375,23.026h-2.25
		v-2.25h2.25V23.026z M44.375,27.526h-2.25v-2.25h2.25V27.526z"/>
</g>
</svg>
