<?xml version="1.0" encoding="utf-8"?>
<!-- Generator: Adobe Illustrator 15.1.0, SVG Export Plug-In . SVG Version: 6.00 Build 0)  -->
<!DOCTYPE svg PUBLIC "-//W3C//DTD SVG 1.0//EN" "http://www.w3.org/TR/2001/REC-SVG-20010904/DTD/svg10.dtd">
<svg version="1.0" id="icon" xmlns="http://www.w3.org/2000/svg" xmlns:xlink="http://www.w3.org/1999/xlink" x="0px" y="0px"
	 width="64px" height="64px" viewBox="0 0 64 64" enable-background="new 0 0 64 64" xml:space="preserve">
<g>
	<path fill="#231F20" d="M45.5,29.75V50h-27V29.75H23v-6.574c0-1.266,0.229-2.455,0.686-3.568s1.09-2.086,1.898-2.918
		s1.761-1.488,2.856-1.969S30.723,14,32,14s2.464,0.24,3.56,0.721s2.048,1.137,2.856,1.969s1.441,1.805,1.898,2.918
		S41,21.91,41,23.176v6.574H45.5z M43.25,32h-22.5v15.75h22.5V32z M25.25,29.75h13.5v-6.574c0-0.949-0.17-1.843-0.51-2.681
		s-0.812-1.573-1.415-2.206s-1.318-1.131-2.145-1.494S32.961,16.25,32,16.25s-1.854,0.182-2.681,0.545s-1.541,0.861-2.145,1.494
		s-1.075,1.368-1.415,2.206s-0.51,1.731-0.51,2.681V29.75z"/>
</g>
</svg>
