<?xml version="1.0" encoding="utf-8"?>
<!-- Generator: Adobe Illustrator 15.1.0, SVG Export Plug-In . SVG Version: 6.00 Build 0)  -->
<!DOCTYPE svg PUBLIC "-//W3C//DTD SVG 1.0//EN" "http://www.w3.org/TR/2001/REC-SVG-20010904/DTD/svg10.dtd">
<svg version="1.0" id="icon" xmlns="http://www.w3.org/2000/svg" xmlns:xlink="http://www.w3.org/1999/xlink" x="0px" y="0px"
	 width="64px" height="64px" viewBox="0 0 64 64" enable-background="new 0 0 64 64" xml:space="preserve">
<g>
	<path fill="#231F20" d="M33.125,32v2.25h2.25v4.5h4.5V41h9v2.25h-9v2.25h-15.75v-2.25h-9V41h9v-2.25h4.5v-4.5h2.25V32h-15.75V20.75
		c0-0.316,0.059-0.609,0.176-0.879s0.278-0.507,0.483-0.712s0.442-0.366,0.712-0.483s0.562-0.176,0.879-0.176h29.25
		c0.316,0,0.609,0.059,0.879,0.176s0.508,0.278,0.713,0.483s0.365,0.442,0.482,0.712s0.176,0.562,0.176,0.879V32H33.125z
		 M17.375,29.75h29.25v-9h-29.25V29.75z M33.125,41v-4.5h-2.25V41h-4.5v2.25h11.25V41H33.125z M43.25,23
		c0.305,0,0.568,0.111,0.791,0.334s0.334,0.486,0.334,0.791s-0.111,0.568-0.334,0.791s-0.486,0.334-0.791,0.334
		s-0.568-0.111-0.791-0.334s-0.334-0.486-0.334-0.791s0.111-0.568,0.334-0.791S42.945,23,43.25,23z"/>
</g>
</svg>
