<?xml version="1.0" encoding="utf-8"?>
<!-- Generator: Adobe Illustrator 15.1.0, SVG Export Plug-In . SVG Version: 6.00 Build 0)  -->
<!DOCTYPE svg PUBLIC "-//W3C//DTD SVG 1.1//EN" "http://www.w3.org/Graphics/SVG/1.1/DTD/svg11.dtd">
<svg version="1.1" id="icon" xmlns="http://www.w3.org/2000/svg" xmlns:xlink="http://www.w3.org/1999/xlink" x="0px" y="0px"
	 width="64px" height="64px" viewBox="0 0 64 64" enable-background="new 0 0 64 64" xml:space="preserve">
<g>
	<g>
		<path fill="#231F20" d="M41,29.75v-6.574c0-1.266-0.229-2.455-0.686-3.568c-0.457-1.113-1.09-2.086-1.898-2.918
			s-1.76-1.488-2.855-1.969C34.464,14.24,33.277,14,32,14c-1.277,0-2.465,0.24-3.56,0.721c-1.095,0.481-2.048,1.137-2.856,1.969
			s-1.441,1.805-1.898,2.918C23.229,20.721,23,21.91,23,23.176v6.574h-4.5V50h27V29.75H41z M38.75,29.75H25.249v-6.574
			c0-0.95,0.17-1.843,0.51-2.681c0.34-0.838,0.811-1.573,1.415-2.206s1.318-1.131,2.145-1.494c0.827-0.363,1.72-0.545,2.681-0.545
			s1.854,0.182,2.68,0.545c0.827,0.363,1.543,0.861,2.146,1.494s1.075,1.368,1.415,2.206s0.51,1.732,0.51,2.681V29.75z"/>
	</g>
</g>
</svg>
