<?xml version="1.0" encoding="utf-8"?>
<!-- Generator: Adobe Illustrator 15.1.0, SVG Export Plug-In . SVG Version: 6.00 Build 0)  -->
<!DOCTYPE svg PUBLIC "-//W3C//DTD SVG 1.0//EN" "http://www.w3.org/TR/2001/REC-SVG-20010904/DTD/svg10.dtd">
<svg version="1.0" id="icon" xmlns="http://www.w3.org/2000/svg" xmlns:xlink="http://www.w3.org/1999/xlink" x="0px" y="0px"
	 width="64px" height="64px" viewBox="0 0 64 64" enable-background="new 0 0 64 64" xml:space="preserve">
<g>
	<path fill="#231F20" d="M45.5,27.5c0.609,0,1.189,0.12,1.74,0.36s1.029,0.562,1.434,0.967s0.727,0.882,0.967,1.433S50,31.391,50,32
		c0,0.621-0.119,1.204-0.359,1.749s-0.562,1.02-0.967,1.424s-0.883,0.727-1.434,0.967s-1.131,0.36-1.74,0.36h-7.875L30.875,50H23
		l4.5-13.5H23l-1.125,2.25H14L16.25,32L14,25.25h7.875L23,27.5h4.5L23,14h7.875l6.75,13.5H45.5z M45.5,34.25
		c0.316,0,0.609-0.059,0.879-0.176s0.508-0.278,0.713-0.483s0.365-0.442,0.482-0.712S47.75,32.316,47.75,32
		s-0.059-0.609-0.176-0.879s-0.277-0.507-0.482-0.712s-0.443-0.366-0.713-0.483S45.816,29.75,45.5,29.75h-9.264
		c-1.16-2.25-2.291-4.497-3.393-6.741s-2.221-4.497-3.357-6.759h-3.357c0.75,2.262,1.494,4.515,2.232,6.759s1.494,4.491,2.268,6.741
		h-9.018l-1.125-2.25h-3.357c0.246,0.75,0.489,1.5,0.729,2.25s0.495,1.5,0.765,2.25c-0.27,0.75-0.524,1.5-0.765,2.25
		s-0.483,1.5-0.729,2.25h3.357l1.125-2.25h9.018c-0.773,2.25-1.529,4.497-2.268,6.741s-1.482,4.497-2.232,6.759h3.357
		c1.137-2.262,2.256-4.515,3.357-6.759s2.232-4.491,3.393-6.741H45.5z"/>
</g>
</svg>
