<?xml version="1.0" encoding="utf-8"?>
<!-- Generator: Adobe Illustrator 15.1.0, SVG Export Plug-In . SVG Version: 6.00 Build 0)  -->
<!DOCTYPE svg PUBLIC "-//W3C//DTD SVG 1.0//EN" "http://www.w3.org/TR/2001/REC-SVG-20010904/DTD/svg10.dtd">
<svg version="1.0" id="icon" xmlns="http://www.w3.org/2000/svg" xmlns:xlink="http://www.w3.org/1999/xlink" x="0px" y="0px"
	 width="64px" height="64px" viewBox="0 0 64 64" enable-background="new 0 0 64 64" xml:space="preserve">
<g>
	<path fill="#231F20" d="M43.25,22.807c1.031,0.457,1.963,1.04,2.795,1.749s1.541,1.512,2.127,2.408s1.037,1.866,1.354,2.909
		S50,32,50,33.125c0,1.559-0.293,3.021-0.879,4.386s-1.389,2.558-2.408,3.577s-2.212,1.822-3.577,2.408s-2.827,0.879-4.386,0.879
		c-1.219,0-2.405-0.19-3.56-0.571s-2.218-0.94-3.19-1.679l-4.5,4.5L14,33.125l15.75-15.75h13.5V22.807z M27.5,43.443l13.5-13.5
		v-5.537c-0.211-0.047-0.469-0.079-0.773-0.097s-0.624-0.035-0.958-0.053s-0.665-0.044-0.993-0.079s-0.624-0.097-0.888-0.185
		s-0.478-0.208-0.642-0.36S36.5,23.27,36.5,23c0-0.305,0.111-0.568,0.334-0.791s0.486-0.334,0.791-0.334
		c0.574,0,1.14,0.006,1.696,0.018s1.116,0.082,1.679,0.211v-2.479H30.682l-13.5,13.5L27.5,43.443z M38.75,42.125
		c1.242,0,2.408-0.237,3.498-0.712s2.042-1.119,2.856-1.934s1.459-1.767,1.934-2.856s0.712-2.256,0.712-3.498
		c0-0.797-0.105-1.576-0.316-2.338s-0.51-1.479-0.896-2.153s-0.858-1.292-1.415-1.854s-1.181-1.043-1.872-1.441v5.537l-9.633,9.633
		c0.75,0.527,1.564,0.929,2.443,1.204S37.836,42.125,38.75,42.125z"/>
</g>
</svg>
