<?xml version="1.0" encoding="utf-8"?>
<!-- Generator: Adobe Illustrator 15.1.0, SVG Export Plug-In . SVG Version: 6.00 Build 0)  -->
<!DOCTYPE svg PUBLIC "-//W3C//DTD SVG 1.0//EN" "http://www.w3.org/TR/2001/REC-SVG-20010904/DTD/svg10.dtd">
<svg version="1.0" id="icon" xmlns="http://www.w3.org/2000/svg" xmlns:xlink="http://www.w3.org/1999/xlink" x="0px" y="0px"
	 width="64px" height="64px" viewBox="0 0 64 64" enable-background="new 0 0 64 64" xml:space="preserve">
<g>
	<path fill="#231F20" d="M50,16.575v22.5H26.85l-8.35,8.35v-8.35H14v-22.5H50z M47.75,18.825h-31.5v18h4.5v5.15l5.15-5.15h21.85
		V18.825z M23,30.075c-0.316,0-0.609-0.059-0.879-0.176s-0.507-0.278-0.712-0.483s-0.366-0.442-0.483-0.712
		s-0.176-0.562-0.176-0.879s0.059-0.609,0.176-0.879s0.278-0.507,0.483-0.712s0.442-0.366,0.712-0.483s0.562-0.176,0.879-0.176
		s0.609,0.059,0.879,0.176s0.507,0.278,0.712,0.483s0.366,0.442,0.483,0.712s0.176,0.562,0.176,0.879s-0.059,0.609-0.176,0.879
		s-0.278,0.507-0.483,0.712s-0.442,0.366-0.712,0.483S23.316,30.075,23,30.075z M32,30.075c-0.316,0-0.609-0.059-0.879-0.176
		s-0.507-0.278-0.712-0.483s-0.366-0.442-0.483-0.712s-0.176-0.562-0.176-0.879s0.059-0.609,0.176-0.879s0.278-0.507,0.483-0.712
		s0.442-0.366,0.712-0.483s0.562-0.176,0.879-0.176s0.609,0.059,0.879,0.176s0.507,0.278,0.712,0.483s0.366,0.442,0.483,0.712
		s0.176,0.562,0.176,0.879s-0.059,0.609-0.176,0.879s-0.278,0.507-0.483,0.712s-0.442,0.366-0.712,0.483S32.316,30.075,32,30.075z
		 M41,30.075c-0.316,0-0.609-0.059-0.879-0.176s-0.507-0.278-0.712-0.483s-0.366-0.442-0.483-0.712s-0.176-0.562-0.176-0.879
		s0.059-0.609,0.176-0.879s0.278-0.507,0.483-0.712s0.442-0.366,0.712-0.483s0.562-0.176,0.879-0.176s0.609,0.059,0.879,0.176
		s0.507,0.278,0.712,0.483s0.366,0.442,0.483,0.712s0.176,0.562,0.176,0.879s-0.059,0.609-0.176,0.879s-0.278,0.507-0.483,0.712
		s-0.442,0.366-0.712,0.483S41.316,30.075,41,30.075z"/>
</g>
</svg>
