<?xml version="1.0" encoding="utf-8"?>
<!-- Generator: Adobe Illustrator 15.1.0, SVG Export Plug-In . SVG Version: 6.00 Build 0)  -->
<!DOCTYPE svg PUBLIC "-//W3C//DTD SVG 1.0//EN" "http://www.w3.org/TR/2001/REC-SVG-20010904/DTD/svg10.dtd">
<svg version="1.0" id="icon" xmlns="http://www.w3.org/2000/svg" xmlns:xlink="http://www.w3.org/1999/xlink" x="0px" y="0px"
	 width="64px" height="64px" viewBox="0 0 64 64" enable-background="new 0 0 64 64" xml:space="preserve">
<g>
	<path fill="#231F20" d="M42.758,27.307c0.762,0.387,1.45,0.864,2.065,1.433s1.14,1.201,1.573,1.898s0.768,1.447,1.002,2.25
		s0.352,1.632,0.352,2.487H45.5c0-0.926-0.179-1.799-0.536-2.619s-0.841-1.535-1.45-2.145s-1.324-1.093-2.145-1.45
		s-1.693-0.536-2.619-0.536s-1.799,0.179-2.619,0.536s-1.535,0.841-2.145,1.45s-1.093,1.324-1.45,2.145S32,34.449,32,35.375
		c0,1.066-0.243,2.08-0.729,3.041s-1.157,1.758-2.013,2.391c0.762,0.387,1.45,0.866,2.065,1.434s1.14,1.201,1.573,1.898
		s0.768,1.447,1.002,2.25s0.352,1.631,0.352,2.486H32c0-0.926-0.179-1.799-0.536-2.619s-0.841-1.535-1.45-2.145
		s-1.324-1.092-2.145-1.449s-1.693-0.537-2.619-0.537s-1.799,0.18-2.619,0.537s-1.535,0.84-2.145,1.449s-1.093,1.324-1.45,2.145
		S18.5,47.949,18.5,48.875h-2.25c0-0.855,0.117-1.684,0.352-2.486s0.568-1.553,1.002-2.25s0.958-1.33,1.573-1.898
		s1.304-1.047,2.065-1.434c-0.855-0.633-1.526-1.43-2.013-2.391S18.5,36.441,18.5,35.375c0-0.926,0.179-1.799,0.536-2.619
		s0.841-1.535,1.45-2.145s1.324-1.093,2.145-1.45s1.693-0.536,2.619-0.536c1.066,0,2.08,0.243,3.041,0.729s1.758,1.157,2.391,2.013
		c0.445-0.879,1.014-1.664,1.705-2.355s1.477-1.26,2.355-1.705c-0.855-0.633-1.526-1.43-2.013-2.391S32,22.941,32,21.875
		c0-0.926,0.179-1.799,0.536-2.619s0.841-1.535,1.45-2.145s1.324-1.093,2.145-1.45s1.693-0.536,2.619-0.536s1.799,0.179,2.619,0.536
		s1.535,0.841,2.145,1.45s1.093,1.324,1.45,2.145s0.536,1.693,0.536,2.619c0,1.066-0.243,2.08-0.729,3.041
		S43.613,26.674,42.758,27.307z M25.25,39.875c0.609,0,1.189-0.119,1.74-0.359s1.028-0.562,1.433-0.967s0.727-0.879,0.967-1.424
		s0.36-1.129,0.36-1.75c0-0.609-0.12-1.189-0.36-1.74s-0.562-1.028-0.967-1.433s-0.882-0.727-1.433-0.967s-1.131-0.36-1.74-0.36
		c-0.621,0-1.204,0.12-1.749,0.36s-1.02,0.562-1.424,0.967s-0.727,0.882-0.967,1.433s-0.36,1.131-0.36,1.74
		c0,0.621,0.12,1.205,0.36,1.75s0.562,1.02,0.967,1.424s0.879,0.727,1.424,0.967S24.629,39.875,25.25,39.875z M34.25,21.875
		c0,0.621,0.12,1.204,0.36,1.749s0.562,1.02,0.967,1.424s0.879,0.727,1.424,0.967s1.128,0.36,1.749,0.36
		c0.609,0,1.189-0.12,1.74-0.36s1.028-0.562,1.433-0.967s0.727-0.879,0.967-1.424s0.36-1.128,0.36-1.749
		c0-0.609-0.12-1.189-0.36-1.74s-0.562-1.028-0.967-1.433s-0.882-0.727-1.433-0.967s-1.131-0.36-1.74-0.36
		c-0.621,0-1.204,0.12-1.749,0.36s-1.02,0.562-1.424,0.967s-0.727,0.882-0.967,1.433S34.25,21.266,34.25,21.875z"/>
</g>
</svg>
