<?xml version="1.0" encoding="utf-8"?>
<!-- Generator: Adobe Illustrator 15.1.0, SVG Export Plug-In . SVG Version: 6.00 Build 0)  -->
<!DOCTYPE svg PUBLIC "-//W3C//DTD SVG 1.0//EN" "http://www.w3.org/TR/2001/REC-SVG-20010904/DTD/svg10.dtd">
<svg version="1.0" id="icon" xmlns="http://www.w3.org/2000/svg" xmlns:xlink="http://www.w3.org/1999/xlink" x="0px" y="0px"
	 width="64px" height="64px" viewBox="0 0 64 64" enable-background="new 0 0 64 64" xml:space="preserve">
<g>
	<path fill="#231F20" d="M32,17.146c0.727,0,1.526,0.041,2.399,0.123s1.772,0.214,2.698,0.396s1.86,0.416,2.804,0.703
		s1.852,0.63,2.724,1.028c0.873,0.398,1.688,0.855,2.443,1.371s1.418,1.099,1.986,1.749s1.014,1.371,1.336,2.162
		s0.484,1.655,0.484,2.593v2.25c0,0.469-0.088,0.908-0.264,1.318s-0.416,0.768-0.721,1.072s-0.662,0.545-1.072,0.721
		s-0.85,0.264-1.318,0.264H41c-0.656,0-1.189-0.097-1.6-0.29s-0.732-0.448-0.967-0.765s-0.401-0.677-0.501-1.081
		s-0.17-0.817-0.211-1.239s-0.07-0.835-0.088-1.239s-0.059-0.765-0.123-1.081s-0.173-0.571-0.325-0.765s-0.381-0.29-0.686-0.29h-9
		c-0.305,0-0.533,0.097-0.686,0.29s-0.261,0.448-0.325,0.765s-0.105,0.677-0.123,1.081s-0.047,0.817-0.088,1.239
		s-0.111,0.835-0.211,1.239s-0.267,0.765-0.501,1.081s-0.557,0.571-0.967,0.765s-0.943,0.29-1.6,0.29h-4.5
		c-0.469,0-0.908-0.088-1.318-0.264s-0.768-0.416-1.072-0.721s-0.545-0.662-0.721-1.072s-0.264-0.85-0.264-1.318v-2.25
		c0-0.938,0.161-1.802,0.483-2.593s0.768-1.512,1.336-2.162s1.23-1.233,1.986-1.749s1.57-0.973,2.443-1.371s1.781-0.741,2.725-1.028
		s1.878-0.521,2.804-0.703s1.825-0.313,2.698-0.396S31.273,17.146,32,17.146z M46.625,27.271c0-0.984-0.258-1.86-0.773-2.628
		s-1.193-1.444-2.031-2.03s-1.783-1.081-2.838-1.485s-2.124-0.735-3.208-0.993s-2.133-0.445-3.146-0.562s-1.89-0.176-2.628-0.176
		s-1.614,0.059-2.628,0.176s-2.062,0.305-3.146,0.562s-2.153,0.589-3.208,0.993s-2.001,0.899-2.839,1.485s-1.515,1.263-2.03,2.03
		s-0.773,1.644-0.773,2.628v2.25c0,0.305,0.111,0.568,0.334,0.791s0.486,0.334,0.791,0.334H23c0.387,0,0.665-0.132,0.835-0.396
		s0.275-0.574,0.316-0.932s0.047-0.727,0.018-1.107s-0.044-0.694-0.044-0.94c0-0.469,0.088-0.908,0.264-1.318
		s0.416-0.768,0.721-1.072s0.662-0.545,1.072-0.721s0.85-0.264,1.318-0.264h9c0.469,0,0.908,0.088,1.318,0.264
		s0.768,0.416,1.072,0.721s0.545,0.662,0.721,1.072s0.264,0.85,0.264,1.318c0,0.246-0.015,0.56-0.044,0.94s-0.023,0.75,0.018,1.107
		s0.146,0.668,0.316,0.932s0.448,0.396,0.835,0.396h4.5c0.305,0,0.568-0.111,0.791-0.334s0.334-0.486,0.334-0.791V27.271z
		 M36.834,38.855l1.582,1.582L32,46.854l-6.416-6.416l1.582-1.582l3.709,3.691v-11.9h2.25v11.9L36.834,38.855z"/>
</g>
</svg>
