<?xml version="1.0" encoding="utf-8"?>
<!-- Generator: Adobe Illustrator 15.1.0, SVG Export Plug-In . SVG Version: 6.00 Build 0)  -->
<!DOCTYPE svg PUBLIC "-//W3C//DTD SVG 1.0//EN" "http://www.w3.org/TR/2001/REC-SVG-20010904/DTD/svg10.dtd">
<svg version="1.0" id="icon" xmlns="http://www.w3.org/2000/svg" xmlns:xlink="http://www.w3.org/1999/xlink" x="0px" y="0px"
	 width="64px" height="64px" viewBox="0 0 64 64" enable-background="new 0 0 64 64" xml:space="preserve">
<g>
	<path fill="#231F20" d="M32,20.75c1.676,0,3.34,0.208,4.992,0.624s3.211,1.028,4.676,1.837s2.792,1.808,3.981,2.997
		s2.159,2.558,2.909,4.104c0.469,0.973,0.826,1.978,1.072,3.015S50,35.422,50,36.5h-2.25c0-1.383-0.211-2.678-0.633-3.885
		s-1.005-2.309-1.749-3.305s-1.62-1.887-2.628-2.672s-2.095-1.447-3.261-1.986s-2.388-0.949-3.665-1.23S33.266,23,32,23
		s-2.537,0.141-3.814,0.422s-2.499,0.691-3.665,1.23s-2.253,1.201-3.261,1.986s-1.884,1.676-2.628,2.672s-1.327,2.098-1.749,3.305
		S16.25,35.117,16.25,36.5H14c0-1.079,0.123-2.136,0.369-3.173s0.604-2.042,1.072-3.015c0.75-1.547,1.72-2.915,2.909-4.104
		s2.517-2.188,3.981-2.997s3.023-1.421,4.676-1.837S30.324,20.75,32,20.75z M32,29.75c0.926,0,1.799,0.176,2.619,0.527
		s1.538,0.835,2.153,1.45s1.099,1.333,1.45,2.153s0.527,1.693,0.527,2.62c0,0.938-0.176,1.812-0.527,2.627s-0.835,1.529-1.45,2.144
		c-0.615,0.615-1.333,1.1-2.153,1.451S32.926,43.25,32,43.25c-0.938,0-1.813-0.176-2.628-0.527s-1.529-0.836-2.145-1.451
		c-0.615-0.615-1.099-1.33-1.45-2.144S25.25,37.438,25.25,36.5c0-0.926,0.176-1.799,0.527-2.62s0.835-1.538,1.45-2.153
		s1.33-1.099,2.145-1.45S31.062,29.75,32,29.75z M32,41c0.621,0,1.204-0.117,1.749-0.351s1.022-0.557,1.433-0.967
		s0.732-0.889,0.967-1.434S36.5,37.122,36.5,36.5s-0.117-1.205-0.352-1.75s-0.557-1.022-0.967-1.433s-0.888-0.732-1.433-0.967
		S32.621,32,32,32s-1.204,0.117-1.749,0.352s-1.022,0.557-1.433,0.967s-0.732,0.888-0.967,1.433S27.5,35.879,27.5,36.5
		s0.117,1.203,0.352,1.748s0.557,1.023,0.967,1.434s0.888,0.732,1.433,0.967S31.379,41,32,41z"/>
</g>
</svg>
