<?xml version="1.0" encoding="utf-8"?>
<!-- Generator: Adobe Illustrator 15.1.0, SVG Export Plug-In . SVG Version: 6.00 Build 0)  -->
<!DOCTYPE svg PUBLIC "-//W3C//DTD SVG 1.1//EN" "http://www.w3.org/Graphics/SVG/1.1/DTD/svg11.dtd">
<svg version="1.1" id="icon" xmlns="http://www.w3.org/2000/svg" xmlns:xlink="http://www.w3.org/1999/xlink" x="0px" y="0px"
	 width="64px" height="64px" viewBox="0 0 64 64" enable-background="new 0 0 64 64" xml:space="preserve">
<g>
	<path fill="#231F20" d="M49.35,26.375l-1.16,1.143L50,32.949v11.426c0,0.316-0.059,0.609-0.176,0.879s-0.279,0.507-0.484,0.712
		s-0.441,0.366-0.711,0.483s-0.562,0.176-0.879,0.176H45.5c-0.316,0-0.609-0.059-0.879-0.176s-0.508-0.278-0.713-0.483
		s-0.365-0.442-0.482-0.712s-0.176-0.562-0.176-0.879h-22.5c0,0.316-0.059,0.609-0.176,0.879s-0.278,0.507-0.483,0.712
		s-0.442,0.366-0.712,0.483s-0.562,0.176-0.879,0.176h-2.25c-0.316,0-0.609-0.059-0.879-0.176s-0.507-0.278-0.712-0.483
		s-0.366-0.442-0.483-0.712S14,44.691,14,44.375V32.949l1.811-5.432l-1.16-1.143H14v-2.25h1.6l1.002,1.02l1.301-3.92
		c0.188-0.574,0.46-1.099,0.817-1.573s0.771-0.879,1.239-1.213s0.981-0.595,1.538-0.782s1.14-0.281,1.749-0.281h17.508
		c0.609,0,1.191,0.094,1.748,0.281s1.07,0.448,1.539,0.782s0.879,0.738,1.23,1.213s0.627,0.999,0.826,1.573l1.301,3.92l1.002-1.02
		H50v2.25H49.35z M47.75,42.125v-8.824l-1.564-4.676H17.814l-1.564,4.676v8.824H23v-1.389l2.672-5.361h12.656L41,40.736v1.389H47.75
		z M20.75,30.875c0.316,0,0.609,0.059,0.879,0.176s0.507,0.278,0.712,0.483s0.366,0.442,0.483,0.712S23,32.809,23,33.125
		s-0.059,0.609-0.176,0.879s-0.278,0.507-0.483,0.712s-0.442,0.366-0.712,0.483s-0.562,0.176-0.879,0.176s-0.609-0.059-0.879-0.176
		s-0.507-0.278-0.712-0.483s-0.366-0.442-0.483-0.712S18.5,33.441,18.5,33.125s0.059-0.609,0.176-0.879s0.278-0.507,0.483-0.712
		s0.442-0.366,0.712-0.483S20.434,30.875,20.75,30.875z M19.625,37.625c0.305,0,0.568,0.111,0.791,0.334s0.334,0.486,0.334,0.791
		s-0.111,0.568-0.334,0.791s-0.486,0.334-0.791,0.334s-0.568-0.111-0.791-0.334S18.5,39.055,18.5,38.75s0.111-0.568,0.334-0.791
		S19.32,37.625,19.625,37.625z M18.553,26.375h26.895l-1.494-4.447c-0.234-0.691-0.643-1.248-1.223-1.67s-1.238-0.633-1.977-0.633
		H23.246c-0.738,0-1.397,0.211-1.978,0.633s-0.987,0.979-1.222,1.67L18.553,26.375z M38.75,41.264l-1.828-3.639h-9.844l-1.828,3.639
		v0.861h13.5V41.264z M43.25,30.875c0.316,0,0.609,0.059,0.879,0.176s0.506,0.278,0.711,0.483s0.367,0.442,0.484,0.712
		s0.176,0.562,0.176,0.879s-0.059,0.609-0.176,0.879s-0.279,0.507-0.484,0.712s-0.441,0.366-0.711,0.483s-0.562,0.176-0.879,0.176
		s-0.609-0.059-0.879-0.176s-0.508-0.278-0.713-0.483s-0.365-0.442-0.482-0.712S41,33.441,41,33.125s0.059-0.609,0.176-0.879
		s0.277-0.507,0.482-0.712s0.443-0.366,0.713-0.483S42.934,30.875,43.25,30.875z M44.375,37.625c0.305,0,0.568,0.111,0.791,0.334
		S45.5,38.445,45.5,38.75s-0.111,0.568-0.334,0.791s-0.486,0.334-0.791,0.334s-0.568-0.111-0.791-0.334s-0.334-0.486-0.334-0.791
		s0.111-0.568,0.334-0.791S44.07,37.625,44.375,37.625z"/>
</g>
</svg>
