<?xml version="1.0" encoding="utf-8"?>
<!-- Generator: Adobe Illustrator 15.1.0, SVG Export Plug-In . SVG Version: 6.00 Build 0)  -->
<!DOCTYPE svg PUBLIC "-//W3C//DTD SVG 1.0//EN" "http://www.w3.org/TR/2001/REC-SVG-20010904/DTD/svg10.dtd">
<svg version="1.0" id="icon" xmlns="http://www.w3.org/2000/svg" xmlns:xlink="http://www.w3.org/1999/xlink" x="0px" y="0px"
	 width="64px" height="64px" viewBox="0 0 64 64" enable-background="new 0 0 64 64" xml:space="preserve">
<g>
	<path fill="#231F20" d="M48.594,24.986C49.531,27.236,50,29.574,50,32s-0.469,4.764-1.406,7.014
		c-0.914,2.145-2.203,4.049-3.867,5.713s-3.568,2.953-5.713,3.867C36.764,49.531,34.426,50,32,50c-2.039,0-4.008-0.334-5.906-1.002
		c-1.852-0.645-3.545-1.559-5.08-2.742c-1.523-1.184-2.83-2.578-3.92-4.184c-0.551-0.809-1.028-1.652-1.433-2.531
		s-0.735-1.793-0.993-2.742l2.162-0.598c0.469,1.699,1.192,3.258,2.171,4.676s2.136,2.637,3.472,3.656s2.818,1.811,4.447,2.373
		S30.242,47.75,32,47.75c1.441,0,2.833-0.188,4.175-0.562s2.596-0.905,3.762-1.591s2.229-1.509,3.19-2.47s1.784-2.024,2.47-3.19
		s1.216-2.417,1.591-3.753S47.75,33.453,47.75,32c0-1.441-0.188-2.833-0.562-4.175s-0.905-2.596-1.591-3.762s-1.509-2.229-2.47-3.19
		s-2.024-1.784-3.19-2.47s-2.42-1.216-3.762-1.591S33.441,16.25,32,16.25c-1.523,0-3,0.214-4.43,0.642s-2.763,1.034-3.999,1.819
		s-2.35,1.731-3.34,2.839s-1.808,2.341-2.452,3.7H23v2.25h-9v-9h2.25v4.816c0.199-0.375,0.416-0.741,0.65-1.099
		s0.48-0.706,0.738-1.046c1.102-1.465,2.391-2.73,3.867-3.797c1.547-1.102,3.205-1.939,4.975-2.514S30.09,14,32,14
		c2.426,0,4.764,0.469,7.014,1.406c2.145,0.914,4.049,2.203,5.713,3.867S47.68,22.842,48.594,24.986z M32,23v9.65l6.416,6.434
		l-1.582,1.582L29.75,33.6V23H32z"/>
</g>
</svg>
