<?xml version="1.0" encoding="utf-8"?>
<!-- Generator: Adobe Illustrator 15.1.0, SVG Export Plug-In . SVG Version: 6.00 Build 0)  -->
<!DOCTYPE svg PUBLIC "-//W3C//DTD SVG 1.0//EN" "http://www.w3.org/TR/2001/REC-SVG-20010904/DTD/svg10.dtd">
<svg version="1.0" id="icon" xmlns="http://www.w3.org/2000/svg" xmlns:xlink="http://www.w3.org/1999/xlink" x="0px" y="0px"
	 width="64px" height="64px" viewBox="0 0 64 64" enable-background="new 0 0 64 64" xml:space="preserve">
<g>
	<path fill="#231F20" d="M19.625,17.375v-2.25h2.25v2.25H19.625z M19.625,21.875v-2.25h2.25v2.25H19.625z M19.625,26.375v-2.25h2.25
		v2.25H19.625z M19.625,30.875v-2.25h2.25v2.25H19.625z M19.625,35.375v-2.25h2.25v2.25H19.625z M19.625,39.875v-2.25h2.25v2.25
		H19.625z M19.625,44.375v-2.25h2.25v2.25H19.625z M19.625,48.875v-2.25h2.25v2.25H19.625z M24.125,17.375v-2.25h2.25v2.25H24.125z
		 M24.125,48.875v-2.25h2.25v2.25H24.125z M28.625,17.375v-2.25h2.25v2.25H28.625z M28.625,48.875v-2.25h2.25v2.25H28.625z
		 M34.725,15.125l9.65,9.65v1.6h-11.25v-11.25H34.725z M33.125,48.875v-2.25h2.25v2.25H33.125z M35.375,24.125h5.15l-5.15-5.15
		V24.125z M37.625,48.875v-2.25h2.25v2.25H37.625z M42.125,30.875v-2.25h2.25v2.25H42.125z M42.125,35.375v-2.25h2.25v2.25H42.125z
		 M42.125,39.875v-2.25h2.25v2.25H42.125z M42.125,44.375v-2.25h2.25v2.25H42.125z M42.125,48.875v-2.25h2.25v2.25H42.125z"/>
</g>
</svg>
