<?xml version="1.0" encoding="utf-8"?>
<!-- Generator: Adobe Illustrator 15.1.0, SVG Export Plug-In . SVG Version: 6.00 Build 0)  -->
<!DOCTYPE svg PUBLIC "-//W3C//DTD SVG 1.0//EN" "http://www.w3.org/TR/2001/REC-SVG-20010904/DTD/svg10.dtd">
<svg version="1.0" id="icon" xmlns="http://www.w3.org/2000/svg" xmlns:xlink="http://www.w3.org/1999/xlink" x="0px" y="0px"
	 width="64px" height="64px" viewBox="0 0 64 64" enable-background="new 0 0 64 64" xml:space="preserve">
<g>
	<path fill="#231F20" d="M42.143,17.138c1.617,1.119,3.01,2.443,4.176,3.973s2.07,3.223,2.715,5.08S50,29.984,50,32
		c0,1.652-0.213,3.246-0.641,4.781s-1.031,2.971-1.811,4.307s-1.717,2.551-2.812,3.646s-2.312,2.033-3.648,2.812
		s-2.771,1.383-4.307,1.811S33.652,50,32,50s-3.246-0.215-4.781-0.643s-2.971-1.031-4.307-1.811s-2.552-1.717-3.647-2.812
		s-2.033-2.311-2.812-3.646s-1.383-2.77-1.811-4.299C14.214,35.261,14,33.664,14,32c0-1.641,0.217-3.234,0.65-4.781
		s1.052-3.003,1.854-4.368s1.778-2.607,2.927-3.727s2.443-2.077,3.885-2.874H18.5V14h9v9h-2.25v-5.221
		c-1.371,0.656-2.61,1.479-3.718,2.47s-2.054,2.104-2.839,3.34s-1.389,2.569-1.811,3.999S16.25,30.488,16.25,32
		c0,1.441,0.188,2.833,0.562,4.174c0.375,1.342,0.905,2.596,1.591,3.762s1.509,2.23,2.47,3.191s2.024,1.783,3.19,2.469
		s2.417,1.217,3.753,1.592S30.547,47.75,32,47.75c1.441,0,2.833-0.188,4.175-0.562s2.596-0.906,3.762-1.592
		c1.167-0.686,2.229-1.508,3.19-2.469s1.785-2.025,2.471-3.191s1.215-2.416,1.59-3.752S47.75,33.453,47.75,32
		c0-1.758-0.283-3.451-0.852-5.08s-1.363-3.111-2.383-4.447s-2.234-2.493-3.647-3.472s-2.968-1.702-4.667-2.171l0.598-2.162
		C38.744,15.195,40.525,16.019,42.143,17.138z"/>
</g>
</svg>
