<?xml version="1.0" encoding="utf-8"?>
<!-- Generator: Adobe Illustrator 15.1.0, SVG Export Plug-In . SVG Version: 6.00 Build 0)  -->
<!DOCTYPE svg PUBLIC "-//W3C//DTD SVG 1.0//EN" "http://www.w3.org/TR/2001/REC-SVG-20010904/DTD/svg10.dtd">
<svg version="1.0" id="icon" xmlns="http://www.w3.org/2000/svg" xmlns:xlink="http://www.w3.org/1999/xlink" x="0px" y="0px"
	 width="64px" height="64px" viewBox="0 0 64 64" enable-background="new 0 0 64 64" xml:space="preserve">
<g>
	<path fill="#231F20" d="M32,14c0.926,0,1.819,0.12,2.681,0.36s1.667,0.58,2.417,1.02s1.436,0.97,2.057,1.591
		s1.151,1.307,1.591,2.057s0.779,1.556,1.02,2.417s0.36,1.755,0.36,2.681c0,0.984-0.129,1.875-0.387,2.672s-0.598,1.526-1.02,2.188
		s-0.902,1.274-1.441,1.837s-1.09,1.107-1.652,1.635s-1.113,1.052-1.652,1.573s-1.02,1.075-1.441,1.661s-0.762,1.219-1.02,1.898
		s-0.387,1.441-0.387,2.285v3.375h-2.25v-3.375c0-0.984,0.129-1.875,0.387-2.672s0.598-1.526,1.02-2.188s0.902-1.271,1.441-1.828
		s1.09-1.099,1.652-1.626s1.113-1.055,1.652-1.582s1.02-1.084,1.441-1.67s0.762-1.219,1.02-1.898s0.387-1.441,0.387-2.285
		c0-1.09-0.208-2.112-0.624-3.067s-0.979-1.787-1.688-2.496s-1.541-1.271-2.496-1.688S33.09,16.25,32,16.25
		s-2.112,0.208-3.067,0.624s-1.787,0.979-2.496,1.688s-1.271,1.541-1.688,2.496s-0.624,1.978-0.624,3.067h-2.25
		c0-0.926,0.12-1.819,0.36-2.681s0.58-1.667,1.02-2.417s0.97-1.436,1.591-2.057s1.307-1.151,2.057-1.591s1.556-0.779,2.417-1.02
		S31.074,14,32,14z M30.875,47.75h2.25V50h-2.25V47.75z"/>
</g>
</svg>
