<?xml version="1.0" encoding="utf-8"?>
<!-- Generator: Adobe Illustrator 15.1.0, SVG Export Plug-In . SVG Version: 6.00 Build 0)  -->
<!DOCTYPE svg PUBLIC "-//W3C//DTD SVG 1.0//EN" "http://www.w3.org/TR/2001/REC-SVG-20010904/DTD/svg10.dtd">
<svg version="1.0" id="icon" xmlns="http://www.w3.org/2000/svg" xmlns:xlink="http://www.w3.org/1999/xlink" x="0px" y="0px"
	 width="64px" height="64px" viewBox="0 0 64 64" enable-background="new 0 0 64 64" xml:space="preserve">
<g>
	<path fill="#231F20" d="M46.625,28.625c0.469,0,0.908,0.088,1.318,0.264s0.768,0.416,1.072,0.721s0.545,0.662,0.721,1.072
		S50,31.531,50,32s-0.088,0.908-0.264,1.318s-0.416,0.768-0.721,1.072s-0.662,0.545-1.072,0.721s-0.85,0.264-1.318,0.264h-9.562
		l-6.75,13.5h-4.676l4.5-13.5H18.5l-1.178,2.25H14L15.898,32L14,26.375h3.322l1.178,2.25h11.637l-4.5-13.5h4.676l6.75,13.5H46.625z"
		/>
</g>
</svg>
