<?xml version="1.0" encoding="utf-8"?>
<!-- Generator: Adobe Illustrator 15.1.0, SVG Export Plug-In . SVG Version: 6.00 Build 0)  -->
<!DOCTYPE svg PUBLIC "-//W3C//DTD SVG 1.0//EN" "http://www.w3.org/TR/2001/REC-SVG-20010904/DTD/svg10.dtd">
<svg version="1.0" id="icon" xmlns="http://www.w3.org/2000/svg" xmlns:xlink="http://www.w3.org/1999/xlink" x="0px" y="0px"
	 width="64px" height="64px" viewBox="0 0 64 64" enable-background="new 0 0 64 64" xml:space="preserve">
<g>
	<path fill="#231F20" d="M50,32c0,1.652-0.214,3.246-0.642,4.781s-1.031,2.971-1.811,4.307s-1.717,2.552-2.812,3.647
		s-2.312,2.033-3.647,2.812s-2.771,1.383-4.307,1.811S33.652,50,32,50s-3.246-0.214-4.781-0.642s-2.971-1.031-4.307-1.811
		s-2.552-1.717-3.647-2.812s-2.033-2.312-2.812-3.647s-1.383-2.769-1.811-4.298S14,33.664,14,32c0-1.629,0.214-3.217,0.642-4.764
		s1.043-3.006,1.846-4.377s1.778-2.619,2.927-3.744s2.438-2.08,3.867-2.865H18.5V14h9v9h-2.25v-5.238
		c-1.371,0.656-2.61,1.479-3.718,2.47s-2.054,2.106-2.839,3.349s-1.389,2.578-1.811,4.008S16.25,30.488,16.25,32
		c0,1.441,0.188,2.833,0.562,4.175s0.905,2.596,1.591,3.762s1.509,2.229,2.47,3.19s2.024,1.784,3.19,2.47s2.417,1.216,3.753,1.591
		S30.547,47.75,32,47.75c1.441,0,2.833-0.188,4.175-0.562s2.596-0.905,3.762-1.591s2.229-1.509,3.19-2.47s1.784-2.024,2.47-3.19
		s1.216-2.417,1.591-3.753S47.75,33.453,47.75,32H50z M38.75,19.414c-0.34,0.246-0.697,0.448-1.072,0.606s-0.768,0.29-1.178,0.396
		v-2.303c0.656-0.223,1.28-0.489,1.872-0.8s1.169-0.665,1.731-1.063H41v13.5h-2.25V19.414z"/>
</g>
</svg>
