<?xml version="1.0" encoding="utf-8"?>
<!-- Generator: Adobe Illustrator 15.1.0, SVG Export Plug-In . SVG Version: 6.00 Build 0)  -->
<!DOCTYPE svg PUBLIC "-//W3C//DTD SVG 1.0//EN" "http://www.w3.org/TR/2001/REC-SVG-20010904/DTD/svg10.dtd">
<svg version="1.0" id="icon" xmlns="http://www.w3.org/2000/svg" xmlns:xlink="http://www.w3.org/1999/xlink" x="0px" y="0px"
	 width="64px" height="64px" viewBox="0 0 64 64" enable-background="new 0 0 64 64" xml:space="preserve">
<g>
	<path fill="#231F20" d="M32,48.875c-1.559,0-3.056-0.199-4.491-0.598s-2.78-0.964-4.034-1.696s-2.394-1.611-3.419-2.637
		s-1.904-2.165-2.637-3.419s-1.298-2.599-1.696-4.034S15.125,33.559,15.125,32s0.199-3.056,0.598-4.491s0.964-2.78,1.696-4.034
		s1.611-2.394,2.637-3.419s2.165-1.904,3.419-2.637s2.599-1.298,4.034-1.696s2.933-0.598,4.491-0.598s3.056,0.199,4.491,0.598
		s2.78,0.964,4.034,1.696s2.394,1.611,3.419,2.637s1.904,2.165,2.637,3.419s1.298,2.599,1.696,4.034s0.598,2.933,0.598,4.491
		s-0.199,3.056-0.598,4.491s-0.964,2.78-1.696,4.034s-1.611,2.394-2.637,3.419s-2.165,1.904-3.419,2.637s-2.599,1.298-4.034,1.696
		S33.559,48.875,32,48.875z M32,17.375c-1.348,0-2.643,0.176-3.885,0.527s-2.405,0.844-3.489,1.477s-2.071,1.395-2.962,2.285
		s-1.652,1.878-2.285,2.962s-1.125,2.25-1.477,3.498s-0.527,2.54-0.527,3.876s0.176,2.628,0.527,3.876s0.844,2.414,1.477,3.498
		s1.395,2.071,2.285,2.962s1.878,1.652,2.962,2.285s2.247,1.125,3.489,1.477s2.537,0.527,3.885,0.527
		c1.336,0,2.628-0.176,3.876-0.527s2.414-0.844,3.498-1.477s2.071-1.395,2.962-2.285s1.652-1.878,2.285-2.962
		s1.125-2.247,1.477-3.489s0.527-2.537,0.527-3.885c0-1.336-0.176-2.628-0.527-3.876s-0.844-2.414-1.477-3.498
		s-1.395-2.071-2.285-2.962s-1.878-1.652-2.962-2.285s-2.25-1.125-3.498-1.477S33.336,17.375,32,17.375z M30.875,24.125h2.25v2.25
		h-2.25V24.125z M30.875,28.625h2.25v11.25h-2.25V28.625z"/>
</g>
</svg>
