<?xml version="1.0" encoding="utf-8"?>
<!-- Generator: Adobe Illustrator 15.1.0, SVG Export Plug-In . SVG Version: 6.00 Build 0)  -->
<!DOCTYPE svg PUBLIC "-//W3C//DTD SVG 1.1//EN" "http://www.w3.org/Graphics/SVG/1.1/DTD/svg11.dtd">
<svg version="1.1" id="icon" xmlns="http://www.w3.org/2000/svg" xmlns:xlink="http://www.w3.org/1999/xlink" x="0px" y="0px"
	 width="64px" height="64px" viewBox="0 0 64 64" enable-background="new 0 0 64 64" xml:space="preserve">
<g>
	<path d="M32,14c1.652,0,3.246,0.214,4.781,0.642s2.971,1.031,4.307,1.811s2.551,1.717,3.646,2.812s2.033,2.312,2.812,3.647
		s1.383,2.771,1.811,4.307S50,30.348,50,32s-0.215,3.246-0.643,4.781s-1.031,2.971-1.811,4.307s-1.717,2.553-2.812,3.648
		s-2.311,2.033-3.646,2.812s-2.771,1.383-4.307,1.811S33.652,50,32,50s-3.246-0.213-4.781-0.641s-2.971-1.031-4.307-1.811
		s-2.552-1.717-3.647-2.812s-2.033-2.312-2.812-3.648s-1.383-2.768-1.811-4.297S14,33.664,14,32c0-1.652,0.214-3.246,0.642-4.781
		s1.031-2.971,1.811-4.307s1.717-2.552,2.812-3.647s2.312-2.033,3.647-2.812s2.769-1.383,4.298-1.811S30.336,14,32,14z M32,47.75
		c1.441,0,2.832-0.188,4.174-0.562s2.596-0.904,3.762-1.59s2.23-1.51,3.191-2.471s1.783-2.023,2.469-3.189s1.217-2.418,1.592-3.754
		S47.75,33.453,47.75,32c0-1.441-0.188-2.833-0.562-4.175s-0.906-2.596-1.592-3.762s-1.508-2.229-2.469-3.19
		s-2.025-1.784-3.191-2.47s-2.42-1.216-3.762-1.591S33.441,16.25,32,16.25s-2.833,0.188-4.175,0.562s-2.596,0.905-3.762,1.591
		s-2.229,1.509-3.19,2.47s-1.784,2.024-2.47,3.19s-1.216,2.42-1.591,3.762S16.25,30.559,16.25,32s0.188,2.834,0.562,4.176
		s0.905,2.596,1.591,3.762s1.509,2.229,2.47,3.189s2.024,1.785,3.19,2.471s2.417,1.215,3.753,1.59S30.547,47.75,32,47.75z M32,41
		c0.855,0,1.684-0.117,2.486-0.352s1.551-0.568,2.242-1.002s1.314-0.961,1.871-1.582s1.029-1.312,1.416-2.074l2.021,1.02
		c-0.48,0.949-1.072,1.811-1.775,2.584s-1.488,1.43-2.355,1.969s-1.803,0.955-2.805,1.248S33.066,43.25,32,43.25
		c-1.078,0-2.115-0.146-3.111-0.439s-1.928-0.709-2.795-1.248s-1.652-1.195-2.355-1.969s-1.295-1.635-1.775-2.584l2.021-1.02
		c0.387,0.762,0.858,1.453,1.415,2.074s1.181,1.148,1.872,1.582s1.436,0.768,2.232,1.002S31.133,41,32,41z M25.25,29.75
		c-0.316,0-0.609-0.059-0.879-0.176s-0.507-0.278-0.712-0.483s-0.366-0.442-0.483-0.712S23,27.816,23,27.5s0.059-0.609,0.176-0.879
		s0.278-0.507,0.483-0.712s0.442-0.366,0.712-0.483s0.562-0.176,0.879-0.176s0.609,0.059,0.879,0.176s0.507,0.278,0.712,0.483
		s0.366,0.442,0.483,0.712S27.5,27.184,27.5,27.5s-0.059,0.609-0.176,0.879s-0.278,0.507-0.483,0.712s-0.442,0.366-0.712,0.483
		S25.566,29.75,25.25,29.75z M38.75,29.75c-0.316,0-0.609-0.059-0.879-0.176s-0.508-0.278-0.713-0.483s-0.365-0.442-0.482-0.712
		S36.5,27.816,36.5,27.5s0.059-0.609,0.176-0.879s0.277-0.507,0.482-0.712s0.443-0.366,0.713-0.483s0.562-0.176,0.879-0.176
		s0.609,0.059,0.879,0.176s0.506,0.278,0.711,0.483s0.367,0.442,0.484,0.712S41,27.184,41,27.5s-0.059,0.609-0.176,0.879
		s-0.279,0.507-0.484,0.712s-0.441,0.366-0.711,0.483S39.066,29.75,38.75,29.75z"/>
</g>
</svg>
