<?xml version="1.0" encoding="utf-8"?>
<!-- Generator: Adobe Illustrator 15.1.0, SVG Export Plug-In . SVG Version: 6.00 Build 0)  -->
<!DOCTYPE svg PUBLIC "-//W3C//DTD SVG 1.0//EN" "http://www.w3.org/TR/2001/REC-SVG-20010904/DTD/svg10.dtd">
<svg version="1.0" id="icon" xmlns="http://www.w3.org/2000/svg" xmlns:xlink="http://www.w3.org/1999/xlink" x="0px" y="0px"
	 width="64px" height="64px" viewBox="0 0 64 64" enable-background="new 0 0 64 64" xml:space="preserve">
<g>
	<path fill="#231F20" d="M46.467,21.875c0.352,0,0.674,0.07,0.967,0.211s0.545,0.325,0.756,0.554s0.377,0.498,0.5,0.809
		s0.186,0.63,0.186,0.958v15.188c0,0.34-0.062,0.662-0.186,0.967s-0.289,0.571-0.5,0.8s-0.463,0.413-0.756,0.554
		s-0.615,0.211-0.967,0.211H17.533c-0.352,0-0.674-0.07-0.967-0.211s-0.545-0.325-0.756-0.554s-0.378-0.495-0.501-0.8
		s-0.185-0.627-0.185-0.967V24.406c0-0.328,0.062-0.647,0.185-0.958s0.29-0.58,0.501-0.809s0.463-0.413,0.756-0.554
		s0.615-0.211,0.967-0.211H46.467z M46.625,24.406c0-0.129-0.053-0.223-0.158-0.281H17.533c-0.105,0.059-0.158,0.152-0.158,0.281
		v15.188c0,0.129,0.053,0.223,0.158,0.281h28.934c0.105-0.059,0.158-0.152,0.158-0.281V24.406z M21.875,28.625h-2.25v-2.25h2.25
		V28.625z M19.625,30.875h4.5v2.25h-4.5V30.875z M19.625,35.375h4.5v2.25h-4.5V35.375z M26.375,28.625h-2.25v-2.25h2.25V28.625z
		 M26.375,30.875h2.25v2.25h-2.25V30.875z M26.375,35.375h11.25v2.25h-11.25V35.375z M30.875,28.625h-2.25v-2.25h2.25V28.625z
		 M30.875,30.875h2.25v2.25h-2.25V30.875z M35.375,28.625h-2.25v-2.25h2.25V28.625z M35.375,30.875h2.25v2.25h-2.25V30.875z
		 M39.875,28.625h-2.25v-2.25h2.25V28.625z M39.875,30.875h4.5v2.25h-4.5V30.875z M39.875,35.375h4.5v2.25h-4.5V35.375z
		 M42.125,26.375h2.25v2.25h-2.25V26.375z"/>
</g>
</svg>
