<?xml version="1.0" encoding="utf-8"?>
<!-- Generator: Adobe Illustrator 15.1.0, SVG Export Plug-In . SVG Version: 6.00 Build 0)  -->
<!DOCTYPE svg PUBLIC "-//W3C//DTD SVG 1.0//EN" "http://www.w3.org/TR/2001/REC-SVG-20010904/DTD/svg10.dtd">
<svg version="1.0" id="icon" xmlns="http://www.w3.org/2000/svg" xmlns:xlink="http://www.w3.org/1999/xlink" x="0px" y="0px"
	 width="64px" height="64px" viewBox="0 0 64 64" enable-background="new 0 0 64 64" xml:space="preserve">
<g>
	<path fill="#231F20" d="M50,18.5v27H14v-27H50z M16.25,20.75v11.9l7.875-7.857l11.25,11.25l4.5-4.5L47.75,39.4V20.75H16.25z
		 M16.25,43.25H39.4L24.125,27.957L16.25,35.85V43.25z M47.75,43.25V42.6l-7.875-7.893l-2.918,2.918L42.6,43.25H47.75z M42.125,27.5
		c-0.305,0-0.568-0.111-0.791-0.334S41,26.68,41,26.375s0.111-0.568,0.334-0.791s0.486-0.334,0.791-0.334s0.568,0.111,0.791,0.334
		s0.334,0.486,0.334,0.791s-0.111,0.568-0.334,0.791S42.43,27.5,42.125,27.5z"/>
</g>
</svg>
